<svg xmlns="http://www.w3.org/2000/svg" xmlns:xlink="http://www.w3.org/1999/xlink" width="300" zoomAndPan="magnify" viewBox="0 0 224.87999 60" height="80" preserveAspectRatio="xMidYMid meet" version="1.0"><defs><clipPath id="01996f725f"><path d="M 7.546875 2.097656 L 56.660156 2.097656 L 56.660156 59.589844 L 7.546875 59.589844 Z M 7.546875 2.097656 " clip-rule="nonzero"/></clipPath><clipPath id="f518dc1fd2"><path d="M 32 0.015625 L 57 0.015625 L 57 45 L 32 45 Z M 32 0.015625 " clip-rule="nonzero"/></clipPath><clipPath id="1166f4327e"><path d="M 23 0.015625 L 28.324219 0.015625 L 28.324219 0.523438 L 23 0.523438 Z M 23 0.015625 " clip-rule="nonzero"/></clipPath><clipPath id="71249b5457"><path d="M 40 13 L 51 13 L 51 59.984375 L 40 59.984375 Z M 40 13 " clip-rule="nonzero"/></clipPath></defs><g clip-path="url(#01996f725f)"><path fill="#d9d9d9" d="M 49.824219 57.804688 C 50.042969 58.554688 49.476562 59.308594 48.691406 59.308594 L 29.5 59.308594 C 28.925781 59.308594 28.4375 58.898438 28.335938 58.328125 C 27.984375 56.296875 27.074219 51.703125 25.941406 50.652344 C 24.164062 48.996094 20.019531 49.984375 17.464844 50.085938 C 11.675781 50.390625 12.75 46.023438 11.980469 41.714844 C 11.90625 41.265625 11.804688 40.820312 11.675781 40.375 C 11.675781 40.371094 11.671875 40.367188 11.671875 40.359375 C 10.578125 36.675781 7.527344 37.488281 7.660156 34.878906 C 7.746094 33.289062 12.070312 31.238281 12.078125 26.234375 C 12.082031 24.828125 11.828125 22.675781 11.785156 21.210938 C 11.441406 10.128906 22.144531 2.09375 34.648438 2.742188 C 46.089844 3.335938 54.359375 9.542969 56.136719 21.265625 C 57.230469 28.492188 54.910156 34.375 49.691406 41.15625 C 48.378906 42.859375 47.730469 45.816406 47.867188 47.957031 C 48.085938 51.402344 49.1875 55.605469 49.824219 57.804688 " fill-opacity="1" fill-rule="nonzero"/></g><path fill="#d9d9d9" d="M 50.589844 45.078125 C 57.964844 44.847656 66.09375 38.816406 65.953125 27.488281 C 65.835938 17.988281 70.875 10.585938 65.285156 9.484375 C 60.789062 8.597656 58.648438 14.273438 54.210938 17.191406 C 54.210938 17.191406 48.160156 22.417969 46.796875 26.054688 C 45.433594 29.695312 44.125 36.488281 45.492188 40.171875 C 46.851562 43.855469 49.136719 45.125 50.589844 45.078125 " fill-opacity="1" fill-rule="nonzero"/><g clip-path="url(#f518dc1fd2)"><path fill="#737373" d="M 48.464844 44.257812 C 48.464844 44.257812 61.097656 37.113281 53.914062 21.15625 C 51.167969 15.0625 45.9375 9.386719 42.457031 3.328125 C 39.132812 -2.449219 30.734375 -0.0546875 32.191406 6.535156 C 34.515625 17.039062 32.46875 19.84375 33.179688 26.207031 C 35.113281 43.46875 48.464844 44.257812 48.464844 44.257812 " fill-opacity="1" fill-rule="nonzero"/></g><path fill="#a6a6a6" d="M 51.261719 7.257812 C 52.25 7.878906 53.621094 7.578125 54.269531 7.378906 C 54.488281 7.308594 54.621094 7.101562 54.585938 6.871094 C 54.492188 6.203125 54.171875 4.828125 53.1875 4.207031 C 52.203125 3.582031 50.832031 3.886719 50.183594 4.085938 C 49.964844 4.152344 49.832031 4.363281 49.863281 4.59375 C 49.960938 5.261719 50.277344 6.636719 51.261719 7.257812 " fill-opacity="1" fill-rule="nonzero"/><g clip-path="url(#1166f4327e)"><path fill="#a6a6a6" d="M 26.808594 -0.332031 C 27.785156 -0.96875 28.078125 -2.347656 28.167969 -3.019531 C 28.199219 -3.246094 28.0625 -3.457031 27.84375 -3.515625 C 27.195312 -3.707031 25.8125 -3.992188 24.839844 -3.355469 C 23.863281 -2.71875 23.566406 -1.339844 23.480469 -0.667969 C 23.449219 -0.441406 23.585938 -0.234375 23.804688 -0.167969 C 24.453125 0.0195312 25.835938 0.304688 26.808594 -0.332031 " fill-opacity="1" fill-rule="nonzero"/></g><path fill="#545454" d="M 14.910156 28.988281 C 14.566406 28.988281 14.214844 28.90625 13.875 28.703125 C 13.550781 28.511719 13.449219 28.09375 13.640625 27.769531 C 13.835938 27.449219 14.253906 27.339844 14.578125 27.535156 C 15.140625 27.871094 16.007812 27.152344 16.011719 27.144531 C 16.292969 26.898438 16.726562 26.925781 16.972656 27.207031 C 17.222656 27.492188 17.195312 27.921875 16.914062 28.171875 C 16.496094 28.539062 15.730469 28.988281 14.910156 28.988281 " fill-opacity="1" fill-rule="nonzero"/><path fill="#545454" d="M 15.628906 40.933594 C 14.144531 41.609375 12.902344 41.71875 12.242188 41.71875 C 12.136719 41.71875 12.050781 41.71875 11.980469 41.714844 C 11.90625 41.265625 11.804688 40.820312 11.675781 40.375 C 11.675781 40.371094 11.671875 40.367188 11.671875 40.359375 C 11.75 40.339844 11.839844 40.332031 11.925781 40.34375 C 11.953125 40.34375 13.296875 40.496094 15.0625 39.695312 C 15.40625 39.535156 15.808594 39.6875 15.960938 40.035156 C 16.121094 40.375 15.964844 40.777344 15.628906 40.933594 " fill-opacity="1" fill-rule="nonzero"/><g clip-path="url(#71249b5457)"><path fill="#545454" d="M 49.542969 59.414062 C 49.296875 59.414062 49.058594 59.28125 48.941406 59.046875 C 47.570312 56.386719 47.144531 50.976562 47.785156 44.195312 C 48.6875 34.578125 45.980469 20.296875 40.5 14.371094 C 40.25 14.09375 40.261719 13.664062 40.539062 13.40625 C 40.816406 13.148438 41.246094 13.171875 41.503906 13.445312 C 47.414062 19.84375 50.070312 34.457031 49.144531 44.324219 C 48.539062 50.753906 48.914062 56.027344 50.148438 58.417969 C 50.320312 58.753906 50.191406 59.167969 49.855469 59.339844 C 49.757812 59.390625 49.648438 59.414062 49.542969 59.414062 " fill-opacity="1" fill-rule="nonzero"/></g><path fill="#545454" d="M 46.097656 54.238281 C 45.949219 54.238281 45.792969 54.1875 45.667969 54.085938 C 45.605469 54.03125 44.148438 52.828125 43.1875 51.570312 C 42.960938 51.269531 43.015625 50.84375 43.316406 50.613281 C 43.617188 50.386719 44.042969 50.445312 44.269531 50.742188 C 45.136719 51.875 46.519531 53.015625 46.535156 53.027344 C 46.824219 53.269531 46.867188 53.695312 46.628906 53.988281 C 46.492188 54.15625 46.300781 54.238281 46.097656 54.238281 " fill-opacity="1" fill-rule="nonzero"/><path fill="#737373" d="M 43.339844 51.839844 C 37.933594 51.839844 34.933594 49.609375 33.996094 47.65625 C 33.347656 46.308594 33.503906 44.914062 34.414062 43.820312 C 35.199219 42.878906 36.300781 42.488281 37.511719 42.730469 C 40.191406 43.257812 43.015625 46.636719 44.378906 50.949219 C 44.445312 51.15625 44.40625 51.378906 44.28125 51.554688 C 44.160156 51.726562 43.960938 51.832031 43.742188 51.839844 C 43.609375 51.839844 43.472656 51.839844 43.339844 51.839844 " fill-opacity="1" fill-rule="nonzero"/><path fill="#545454" d="M 51.082031 56.867188 C 50.847656 56.867188 50.617188 56.742188 50.492188 56.523438 C 50.304688 56.199219 50.414062 55.78125 50.742188 55.589844 C 52.851562 54.371094 53.699219 53.359375 53.707031 53.347656 C 53.949219 53.058594 54.375 53.015625 54.664062 53.253906 C 54.957031 53.492188 55 53.917969 54.761719 54.210938 C 54.726562 54.257812 53.777344 55.40625 51.425781 56.773438 C 51.316406 56.835938 51.199219 56.867188 51.082031 56.867188 " fill-opacity="1" fill-rule="nonzero"/><path fill="#d9d9d9" d="M 54.234375 54.460938 C 54.039062 54.460938 53.851562 54.378906 53.722656 54.230469 C 53.554688 54.042969 53.507812 53.777344 53.597656 53.542969 C 54.949219 49.929688 56.398438 47.957031 57.914062 47.667969 C 58.449219 47.570312 59.25 47.632812 60.027344 48.503906 C 60.554688 49.09375 60.714844 49.835938 60.476562 50.585938 C 59.96875 52.207031 57.632812 53.6875 54.390625 54.445312 C 54.339844 54.457031 54.285156 54.460938 54.234375 54.460938 " fill-opacity="1" fill-rule="nonzero"/><path fill="#737373" d="M 74.957031 30.835938 L 71.738281 30.835938 L 72.941406 16.746094 L 76.484375 16.746094 L 78.4375 21.839844 C 78.773438 22.695312 79.058594 23.476562 79.300781 24.191406 C 79.535156 24.898438 79.6875 25.398438 79.753906 25.691406 L 79.867188 26.109375 C 80.085938 25.195312 80.574219 23.769531 81.328125 21.839844 L 83.308594 16.746094 L 86.839844 16.746094 L 88.300781 30.835938 L 85.09375 30.835938 L 84.5625 25.386719 L 84.292969 21.261719 C 83.929688 22.304688 83.433594 23.679688 82.792969 25.386719 L 80.800781 30.6875 L 78.90625 30.6875 L 76.9375 25.386719 C 76.617188 24.515625 76.347656 23.742188 76.125 23.058594 C 75.90625 22.378906 75.757812 21.902344 75.683594 21.632812 L 75.585938 21.261719 C 75.585938 22.246094 75.519531 23.621094 75.390625 25.386719 Z M 74.957031 30.835938 " fill-opacity="1" fill-rule="nonzero"/><path fill="#737373" d="M 90.90625 16.746094 L 94.128906 16.746094 L 94.128906 30.835938 L 90.90625 30.835938 Z M 90.90625 16.746094 " fill-opacity="1" fill-rule="nonzero"/><path fill="#737373" d="M 100.269531 30.835938 L 97.046875 30.835938 L 97.046875 16.746094 L 100.589844 16.746094 L 103.859375 22.578125 C 104.320312 23.402344 104.722656 24.171875 105.066406 24.894531 C 105.410156 25.605469 105.632812 26.109375 105.730469 26.40625 L 105.890625 26.863281 C 105.75 25.828125 105.679688 24.402344 105.679688 22.578125 L 105.679688 16.746094 L 108.902344 16.746094 L 108.902344 30.835938 L 105.375 30.835938 L 102.003906 25.003906 C 101.5625 24.25 101.167969 23.507812 100.824219 22.777344 C 100.480469 22.046875 100.246094 21.503906 100.121094 21.152344 L 99.960938 20.636719 C 100.164062 21.890625 100.269531 23.347656 100.269531 25.003906 Z M 100.269531 30.835938 " fill-opacity="1" fill-rule="nonzero"/><path fill="#737373" d="M 116.414062 30.835938 L 111.605469 30.835938 L 111.605469 16.746094 L 116.464844 16.746094 C 118.578125 16.746094 120.308594 17.398438 121.65625 18.703125 C 123.007812 20.007812 123.683594 21.628906 123.683594 23.5625 C 123.683594 25.820312 123.019531 27.597656 121.691406 28.890625 C 120.363281 30.191406 118.605469 30.835938 116.414062 30.835938 Z M 116.355469 19.40625 L 114.914062 19.40625 L 114.914062 28.203125 L 116.378906 28.203125 C 117.671875 28.203125 118.667969 27.804688 119.367188 26.996094 C 120.070312 26.183594 120.425781 25.039062 120.425781 23.5625 C 120.425781 22.308594 120.066406 21.304688 119.355469 20.550781 C 118.648438 19.785156 117.648438 19.40625 116.355469 19.40625 Z M 116.355469 19.40625 " fill-opacity="1" fill-rule="nonzero"/><path fill="#737373" d="M 137.515625 30.835938 L 133.925781 30.835938 L 130.136719 16.746094 L 133.53125 16.746094 L 134.820312 21.925781 C 135.097656 23.042969 135.328125 24.054688 135.511719 24.953125 C 135.6875 25.851562 135.800781 26.472656 135.84375 26.824219 L 135.929688 27.328125 C 136.164062 26.242188 136.636719 24.4375 137.34375 21.925781 L 138.746094 16.957031 L 141.128906 16.957031 L 142.507812 21.925781 C 142.804688 22.980469 143.066406 23.953125 143.296875 24.855469 C 143.523438 25.75 143.679688 26.386719 143.761719 26.761719 L 143.886719 27.328125 C 144.0625 26.082031 144.453125 24.277344 145.054688 21.914062 L 146.355469 16.746094 L 149.628906 16.746094 L 145.878906 30.835938 L 142.273438 30.835938 L 141.042969 26.382812 C 140.75 25.308594 140.507812 24.402344 140.320312 23.664062 C 140.136719 22.925781 140.027344 22.453125 139.988281 22.246094 L 139.9375 21.925781 C 139.894531 22.503906 139.519531 23.988281 138.804688 26.382812 Z M 137.515625 30.835938 " fill-opacity="1" fill-rule="nonzero"/><path fill="#737373" d="M 163 30.835938 L 159.765625 30.835938 L 159.765625 25.210938 L 154.601562 25.210938 L 154.601562 30.835938 L 151.378906 30.835938 L 151.378906 16.746094 L 154.601562 16.746094 L 154.601562 22.46875 L 159.765625 22.46875 L 159.765625 16.746094 L 163 16.746094 Z M 163 30.835938 " fill-opacity="1" fill-rule="nonzero"/><path fill="#737373" d="M 165.917969 16.746094 L 169.140625 16.746094 L 169.140625 30.835938 L 165.917969 30.835938 Z M 165.917969 16.746094 " fill-opacity="1" fill-rule="nonzero"/><path fill="#737373" d="M 180.8125 26.738281 C 180.8125 28.011719 180.347656 29.039062 179.410156 29.828125 C 178.484375 30.613281 177.246094 31.007812 175.699219 31.007812 C 174.039062 31.007812 172.6875 30.714844 171.640625 30.121094 L 171.640625 26.886719 C 172.910156 27.804688 174.261719 28.265625 175.699219 28.265625 C 176.1875 28.265625 176.59375 28.136719 176.914062 27.882812 C 177.234375 27.621094 177.394531 27.28125 177.394531 26.863281 C 177.394531 26.722656 177.371094 26.589844 177.320312 26.46875 C 177.277344 26.34375 177.199219 26.226562 177.085938 26.109375 C 176.980469 25.996094 176.871094 25.902344 176.765625 25.828125 C 176.667969 25.753906 176.515625 25.664062 176.3125 25.558594 C 176.117188 25.453125 175.945312 25.367188 175.808594 25.300781 C 175.667969 25.226562 175.457031 25.125 175.179688 25.003906 C 174.910156 24.878906 174.691406 24.78125 174.527344 24.707031 C 173.617188 24.289062 172.886719 23.777344 172.339844 23.171875 C 171.789062 22.554688 171.515625 21.738281 171.515625 20.722656 C 171.515625 19.507812 171.960938 18.527344 172.855469 17.78125 C 173.75 17.035156 174.984375 16.660156 176.558594 16.660156 C 177.960938 16.660156 179.167969 16.898438 180.1875 17.375 L 180.1875 20.375 C 179.0625 19.730469 177.890625 19.40625 176.679688 19.40625 C 176.140625 19.40625 175.726562 19.515625 175.4375 19.738281 C 175.148438 19.957031 175.007812 20.246094 175.007812 20.597656 C 175.007812 20.941406 175.179688 21.25 175.523438 21.519531 C 175.875 21.792969 176.402344 22.085938 177.097656 22.394531 C 177.53125 22.585938 177.890625 22.75 178.167969 22.898438 C 178.457031 23.046875 178.785156 23.253906 179.152344 23.515625 C 179.523438 23.769531 179.8125 24.039062 180.027344 24.328125 C 180.246094 24.617188 180.433594 24.964844 180.578125 25.386719 C 180.734375 25.804688 180.8125 26.253906 180.8125 26.738281 Z M 180.8125 26.738281 " fill-opacity="1" fill-rule="nonzero"/><path fill="#737373" d="M 187.652344 26.285156 L 186.015625 26.285156 L 186.015625 30.835938 L 182.792969 30.835938 L 182.792969 16.746094 L 187.652344 16.746094 C 189.207031 16.746094 190.472656 17.1875 191.441406 18.0625 C 192.40625 18.941406 192.890625 20.054688 192.890625 21.410156 C 192.890625 22.953125 192.386719 24.152344 191.378906 25.003906 C 190.371094 25.859375 189.128906 26.285156 187.652344 26.285156 Z M 187.269531 19.316406 L 186.015625 19.316406 L 186.015625 23.722656 L 187.085938 23.722656 C 188.785156 23.722656 189.632812 22.953125 189.632812 21.410156 C 189.632812 20.015625 188.84375 19.316406 187.269531 19.316406 Z M 187.269531 19.316406 " fill-opacity="1" fill-rule="nonzero"/><path fill="#737373" d="M 203.308594 30.835938 L 194.554688 30.835938 L 194.554688 16.746094 L 203.238281 16.746094 L 203.238281 19.316406 L 197.800781 19.316406 L 197.800781 22.519531 L 202.644531 22.519531 L 202.644531 25.066406 L 197.800781 25.066406 L 197.800781 28.265625 L 203.308594 28.265625 Z M 203.308594 30.835938 " fill-opacity="1" fill-rule="nonzero"/><path fill="#737373" d="M 210.726562 19.355469 L 209.140625 19.355469 L 209.140625 23.328125 L 210.664062 23.328125 C 212.058594 23.328125 212.753906 22.648438 212.753906 21.289062 C 212.753906 20.679688 212.574219 20.210938 212.214844 19.871094 C 211.851562 19.527344 211.355469 19.355469 210.726562 19.355469 Z M 209.140625 30.835938 L 205.917969 30.835938 L 205.917969 16.746094 L 210.789062 16.746094 C 212.363281 16.746094 213.621094 17.164062 214.574219 18 C 215.535156 18.839844 216.015625 19.925781 216.015625 21.261719 C 216.015625 23.273438 215.15625 24.660156 213.445312 25.421875 L 217.023438 30.835938 L 213.171875 30.835938 L 210.125 25.9375 L 209.140625 25.9375 Z M 209.140625 30.835938 " fill-opacity="1" fill-rule="nonzero"/><path fill="#a6a6a6" d="M 73.792969 40.472656 L 73.078125 40.472656 L 71.847656 35.785156 L 72.4375 35.785156 L 72.882812 37.519531 L 73.460938 39.882812 C 73.722656 38.933594 73.941406 38.144531 74.125 37.519531 L 74.617188 35.847656 L 75.167969 35.847656 L 75.683594 37.519531 L 76.398438 39.90625 C 76.609375 38.882812 76.78125 38.09375 76.914062 37.53125 L 77.308594 35.785156 L 77.886719 35.785156 L 76.78125 40.472656 L 76.054688 40.472656 L 75.597656 38.984375 L 74.898438 36.644531 C 74.757812 37.1875 74.535156 37.96875 74.234375 38.984375 Z M 73.792969 40.472656 " fill-opacity="1" fill-rule="nonzero"/><path fill="#a6a6a6" d="M 82.066406 40.472656 L 81.511719 40.472656 L 81.511719 38.34375 L 79.226562 38.34375 L 79.226562 40.472656 L 78.671875 40.472656 L 78.671875 35.785156 L 79.226562 35.785156 L 79.226562 37.839844 L 81.511719 37.839844 L 81.511719 35.785156 L 82.066406 35.785156 Z M 82.066406 40.472656 " fill-opacity="1" fill-rule="nonzero"/><path fill="#a6a6a6" d="M 85.753906 40.472656 L 83.148438 40.472656 L 83.148438 35.785156 L 85.730469 35.785156 L 85.730469 36.277344 L 83.699219 36.277344 L 83.699219 37.875 L 85.484375 37.875 L 85.484375 38.382812 L 83.699219 38.382812 L 83.699219 39.980469 L 85.753906 39.980469 Z M 85.753906 40.472656 " fill-opacity="1" fill-rule="nonzero"/><path fill="#a6a6a6" d="M 87.839844 36.265625 L 87.1875 36.265625 L 87.1875 38.136719 L 87.902344 38.136719 C 88.222656 38.136719 88.46875 38.050781 88.640625 37.875 C 88.8125 37.703125 88.898438 37.484375 88.898438 37.210938 C 88.898438 36.582031 88.542969 36.265625 87.839844 36.265625 Z M 87.863281 38.617188 L 87.1875 38.617188 L 87.1875 40.472656 L 86.632812 40.472656 L 86.632812 35.785156 L 87.804688 35.785156 C 88.34375 35.785156 88.753906 35.914062 89.03125 36.167969 C 89.320312 36.421875 89.464844 36.777344 89.464844 37.226562 C 89.453125 37.542969 89.367188 37.820312 89.203125 38.050781 C 89.039062 38.28125 88.8125 38.441406 88.515625 38.527344 L 89.746094 40.472656 L 89.070312 40.472656 L 87.925781 38.617188 Z M 87.863281 38.617188 " fill-opacity="1" fill-rule="nonzero"/><path fill="#a6a6a6" d="M 93.054688 40.472656 L 90.449219 40.472656 L 90.449219 35.785156 L 93.03125 35.785156 L 93.03125 36.277344 L 91.003906 36.277344 L 91.003906 37.875 L 92.785156 37.875 L 92.785156 38.382812 L 91.003906 38.382812 L 91.003906 39.980469 L 93.054688 39.980469 Z M 93.054688 40.472656 " fill-opacity="1" fill-rule="nonzero"/><path fill="#a6a6a6" d="M 96.914062 38.75 L 96.1875 38.75 L 96.1875 40.472656 L 95.632812 40.472656 L 95.632812 35.785156 L 96.863281 35.785156 C 97.40625 35.785156 97.828125 35.925781 98.144531 36.203125 C 98.453125 36.484375 98.609375 36.84375 98.609375 37.285156 C 98.609375 37.703125 98.453125 38.054688 98.144531 38.332031 C 97.839844 38.613281 97.429688 38.75 96.914062 38.75 Z M 96.863281 36.265625 L 96.1875 36.265625 L 96.1875 38.269531 L 96.914062 38.269531 C 97.261719 38.269531 97.539062 38.179688 97.738281 38 C 97.941406 37.8125 98.042969 37.574219 98.042969 37.285156 C 98.042969 36.976562 97.941406 36.730469 97.738281 36.546875 C 97.53125 36.359375 97.238281 36.265625 96.863281 36.265625 Z M 96.863281 36.265625 " fill-opacity="1" fill-rule="nonzero"/><path fill="#a6a6a6" d="M 102.035156 40.472656 L 99.425781 40.472656 L 99.425781 35.785156 L 102.007812 35.785156 L 102.007812 36.277344 L 99.980469 36.277344 L 99.980469 37.875 L 101.761719 37.875 L 101.761719 38.382812 L 99.980469 38.382812 L 99.980469 39.980469 L 102.035156 39.980469 Z M 102.035156 40.472656 " fill-opacity="1" fill-rule="nonzero"/><path fill="#a6a6a6" d="M 103.886719 38.492188 L 103.800781 38.761719 L 105.460938 38.761719 L 105.375 38.492188 L 104.648438 36.226562 C 104.589844 36.433594 104.335938 37.1875 103.886719 38.492188 Z M 103.222656 40.472656 L 102.617188 40.472656 L 104.253906 35.785156 L 105.03125 35.785156 L 106.640625 40.472656 L 106.039062 40.472656 L 105.621094 39.242188 L 103.640625 39.242188 Z M 103.222656 40.472656 " fill-opacity="1" fill-rule="nonzero"/><path fill="#a6a6a6" d="M 110.78125 40.238281 C 110.492188 40.4375 110.097656 40.535156 109.601562 40.535156 C 108.894531 40.535156 108.320312 40.320312 107.878906 39.882812 C 107.4375 39.449219 107.214844 38.859375 107.214844 38.109375 C 107.214844 37.40625 107.4375 36.832031 107.878906 36.386719 C 108.328125 35.9375 108.894531 35.710938 109.578125 35.710938 C 110.058594 35.710938 110.457031 35.796875 110.769531 35.96875 L 110.769531 36.546875 C 110.5625 36.441406 110.378906 36.363281 110.214844 36.3125 C 110.050781 36.265625 109.835938 36.238281 109.578125 36.238281 C 109.066406 36.238281 108.644531 36.414062 108.308594 36.757812 C 107.972656 37.101562 107.804688 37.554688 107.804688 38.109375 C 107.804688 38.6875 107.972656 39.144531 108.308594 39.488281 C 108.644531 39.832031 109.085938 40.003906 109.636719 40.003906 C 110.082031 40.003906 110.460938 39.890625 110.78125 39.648438 Z M 110.78125 40.238281 " fill-opacity="1" fill-rule="nonzero"/><path fill="#a6a6a6" d="M 114.222656 40.472656 L 111.613281 40.472656 L 111.613281 35.785156 L 114.195312 35.785156 L 114.195312 36.277344 L 112.167969 36.277344 L 112.167969 37.875 L 113.949219 37.875 L 113.949219 38.382812 L 112.167969 38.382812 L 112.167969 39.980469 L 114.222656 39.980469 Z M 114.222656 40.472656 " fill-opacity="1" fill-rule="nonzero"/><path fill="#a6a6a6" d="M 117.304688 40.472656 L 116.75 40.472656 L 117.082031 35.785156 L 117.808594 35.785156 L 118.421875 37.496094 L 119.171875 39.671875 C 119.441406 38.917969 119.707031 38.195312 119.972656 37.496094 L 120.613281 35.785156 L 121.335938 35.785156 L 121.742188 40.472656 L 121.175781 40.472656 L 121.015625 38.617188 L 120.855469 36.535156 C 120.613281 37.226562 120.355469 37.921875 120.09375 38.617188 L 119.441406 40.375 L 118.902344 40.375 L 118.285156 38.617188 L 117.574219 36.585938 C 117.574219 36.765625 117.527344 37.441406 117.4375 38.617188 Z M 117.304688 40.472656 " fill-opacity="1" fill-rule="nonzero"/><path fill="#a6a6a6" d="M 125.371094 40.472656 L 122.765625 40.472656 L 122.765625 35.785156 L 125.347656 35.785156 L 125.347656 36.277344 L 123.316406 36.277344 L 123.316406 37.875 L 125.101562 37.875 L 125.101562 38.382812 L 123.316406 38.382812 L 123.316406 39.980469 L 125.371094 39.980469 Z M 125.371094 40.472656 " fill-opacity="1" fill-rule="nonzero"/><path fill="#a6a6a6" d="M 128.859375 40.472656 L 126.25 40.472656 L 126.25 35.785156 L 128.832031 35.785156 L 128.832031 36.277344 L 126.804688 36.277344 L 126.804688 37.875 L 128.585938 37.875 L 128.585938 38.382812 L 126.804688 38.382812 L 126.804688 39.980469 L 128.859375 39.980469 Z M 128.859375 40.472656 " fill-opacity="1" fill-rule="nonzero"/><path fill="#a6a6a6" d="M 132.417969 36.277344 L 131.152344 36.277344 L 131.152344 40.472656 L 130.585938 40.472656 L 130.585938 36.277344 L 129.320312 36.277344 L 129.320312 35.785156 L 132.417969 35.785156 Z M 132.417969 36.277344 " fill-opacity="1" fill-rule="nonzero"/><path fill="#a6a6a6" d="M 135.796875 39.230469 C 135.796875 39.644531 135.652344 39.960938 135.367188 40.191406 C 135.085938 40.410156 134.726562 40.523438 134.285156 40.523438 C 133.792969 40.523438 133.375 40.425781 133.03125 40.226562 L 133.03125 39.613281 C 133.367188 39.875 133.78125 40.003906 134.273438 40.003906 C 134.558594 40.003906 134.78125 39.941406 134.949219 39.808594 C 135.121094 39.679688 135.207031 39.488281 135.207031 39.242188 C 135.207031 39.136719 135.1875 39.046875 135.144531 38.972656 C 135.113281 38.890625 135.050781 38.816406 134.960938 38.75 C 134.871094 38.675781 134.78125 38.621094 134.703125 38.578125 C 134.621094 38.527344 134.507812 38.472656 134.371094 38.40625 C 134.335938 38.398438 134.296875 38.382812 134.25 38.355469 C 134.042969 38.269531 133.886719 38.195312 133.78125 38.148438 C 133.683594 38.09375 133.558594 38.007812 133.410156 37.902344 C 133.269531 37.789062 133.167969 37.660156 133.105469 37.519531 C 133.035156 37.371094 133.007812 37.207031 133.007812 37.015625 C 133.007812 36.617188 133.148438 36.300781 133.4375 36.082031 C 133.722656 35.851562 134.082031 35.734375 134.519531 35.734375 C 134.917969 35.734375 135.257812 35.808594 135.539062 35.957031 L 135.539062 36.546875 C 135.257812 36.359375 134.925781 36.265625 134.53125 36.265625 C 134.242188 36.265625 134.015625 36.332031 133.84375 36.460938 C 133.675781 36.59375 133.597656 36.765625 133.597656 36.980469 C 133.597656 37.09375 133.613281 37.195312 133.65625 37.285156 C 133.707031 37.378906 133.785156 37.457031 133.890625 37.53125 C 134.003906 37.605469 134.105469 37.664062 134.1875 37.703125 C 134.265625 37.746094 134.390625 37.804688 134.554688 37.875 C 134.710938 37.945312 134.828125 37.996094 134.914062 38.035156 C 135 38.078125 135.113281 38.144531 135.246094 38.234375 C 135.375 38.316406 135.472656 38.398438 135.539062 38.480469 C 135.605469 38.5625 135.664062 38.671875 135.710938 38.800781 C 135.765625 38.933594 135.796875 39.078125 135.796875 39.230469 Z M 135.796875 39.230469 " fill-opacity="1" fill-rule="nonzero"/><path fill="#a6a6a6" d="M 139.71875 38.75 L 138.992188 38.75 L 138.992188 40.472656 L 138.4375 40.472656 L 138.4375 35.785156 L 139.667969 35.785156 C 140.207031 35.785156 140.632812 35.925781 140.945312 36.203125 C 141.257812 36.484375 141.414062 36.84375 141.414062 37.285156 C 141.414062 37.703125 141.257812 38.054688 140.945312 38.332031 C 140.640625 38.613281 140.234375 38.75 139.71875 38.75 Z M 139.667969 36.265625 L 138.992188 36.265625 L 138.992188 38.269531 L 139.71875 38.269531 C 140.066406 38.269531 140.34375 38.179688 140.539062 38 C 140.742188 37.8125 140.847656 37.574219 140.847656 37.285156 C 140.847656 36.976562 140.742188 36.730469 140.539062 36.546875 C 140.335938 36.359375 140.042969 36.265625 139.667969 36.265625 Z M 139.667969 36.265625 " fill-opacity="1" fill-rule="nonzero"/><path fill="#a6a6a6" d="M 143.4375 36.265625 L 142.785156 36.265625 L 142.785156 38.136719 L 143.496094 38.136719 C 143.816406 38.136719 144.0625 38.050781 144.234375 37.875 C 144.40625 37.703125 144.492188 37.484375 144.492188 37.210938 C 144.492188 36.582031 144.140625 36.265625 143.4375 36.265625 Z M 143.460938 38.617188 L 142.785156 38.617188 L 142.785156 40.472656 L 142.230469 40.472656 L 142.230469 35.785156 L 143.398438 35.785156 C 143.941406 35.785156 144.347656 35.914062 144.628906 36.167969 C 144.914062 36.421875 145.058594 36.777344 145.058594 37.226562 C 145.050781 37.542969 144.964844 37.820312 144.800781 38.050781 C 144.636719 38.28125 144.40625 38.441406 144.113281 38.527344 L 145.34375 40.472656 L 144.664062 40.472656 L 143.523438 38.617188 Z M 143.460938 38.617188 " fill-opacity="1" fill-rule="nonzero"/><path fill="#a6a6a6" d="M 150.054688 38.109375 C 150.054688 38.847656 149.859375 39.441406 149.476562 39.882812 C 149.097656 40.320312 148.589844 40.535156 147.953125 40.535156 C 147.3125 40.535156 146.800781 40.3125 146.414062 39.871094 C 146.027344 39.425781 145.835938 38.84375 145.835938 38.109375 C 145.835938 37.371094 146.023438 36.789062 146.402344 36.351562 C 146.777344 35.90625 147.289062 35.6875 147.941406 35.6875 C 148.59375 35.6875 149.109375 35.90625 149.488281 36.339844 C 149.863281 36.777344 150.054688 37.367188 150.054688 38.109375 Z M 146.425781 38.109375 C 146.425781 38.6875 146.566406 39.144531 146.84375 39.488281 C 147.121094 39.828125 147.492188 39.992188 147.953125 39.992188 C 148.425781 39.992188 148.792969 39.828125 149.058594 39.488281 C 149.320312 39.152344 149.453125 38.695312 149.453125 38.109375 C 149.453125 37.519531 149.316406 37.058594 149.046875 36.71875 C 148.78125 36.386719 148.414062 36.214844 147.941406 36.214844 C 147.464844 36.214844 147.089844 36.386719 146.820312 36.71875 C 146.554688 37.058594 146.425781 37.519531 146.425781 38.109375 Z M 146.425781 38.109375 " fill-opacity="1" fill-rule="nonzero"/><path fill="#a6a6a6" d="M 154.570312 40.105469 C 154.191406 40.394531 153.710938 40.535156 153.117188 40.535156 C 152.398438 40.535156 151.816406 40.324219 151.371094 39.894531 C 150.929688 39.460938 150.707031 38.871094 150.707031 38.121094 C 150.707031 37.410156 150.925781 36.828125 151.359375 36.375 C 151.804688 35.925781 152.359375 35.699219 153.03125 35.699219 C 153.582031 35.699219 154.035156 35.804688 154.398438 36.019531 L 154.398438 36.621094 C 154.019531 36.371094 153.582031 36.238281 153.082031 36.238281 C 152.554688 36.238281 152.125 36.414062 151.789062 36.757812 C 151.460938 37.101562 151.300781 37.558594 151.300781 38.121094 C 151.300781 38.699219 151.460938 39.152344 151.789062 39.488281 C 152.117188 39.816406 152.566406 39.980469 153.132812 39.980469 C 153.449219 39.980469 153.738281 39.917969 154.003906 39.796875 L 154.003906 38.332031 L 152.984375 38.332031 L 152.984375 37.839844 L 154.570312 37.839844 Z M 154.570312 40.105469 " fill-opacity="1" fill-rule="nonzero"/><path fill="#a6a6a6" d="M 156.785156 36.265625 L 156.132812 36.265625 L 156.132812 38.136719 L 156.847656 38.136719 C 157.167969 38.136719 157.414062 38.050781 157.585938 37.875 C 157.757812 37.703125 157.84375 37.484375 157.84375 37.210938 C 157.84375 36.582031 157.488281 36.265625 156.785156 36.265625 Z M 156.808594 38.617188 L 156.132812 38.617188 L 156.132812 40.472656 L 155.582031 40.472656 L 155.582031 35.785156 L 156.75 35.785156 C 157.289062 35.785156 157.699219 35.914062 157.976562 36.167969 C 158.265625 36.421875 158.410156 36.777344 158.410156 37.226562 C 158.398438 37.542969 158.3125 37.820312 158.152344 38.050781 C 157.984375 38.28125 157.757812 38.441406 157.460938 38.527344 L 158.691406 40.472656 L 158.015625 40.472656 L 156.871094 38.617188 Z M 156.808594 38.617188 " fill-opacity="1" fill-rule="nonzero"/><path fill="#a6a6a6" d="M 162 40.472656 L 159.394531 40.472656 L 159.394531 35.785156 L 161.976562 35.785156 L 161.976562 36.277344 L 159.949219 36.277344 L 159.949219 37.875 L 161.730469 37.875 L 161.730469 38.382812 L 159.949219 38.382812 L 159.949219 39.980469 L 162 39.980469 Z M 162 40.472656 " fill-opacity="1" fill-rule="nonzero"/><path fill="#a6a6a6" d="M 165.585938 39.230469 C 165.585938 39.644531 165.441406 39.960938 165.15625 40.191406 C 164.875 40.410156 164.515625 40.523438 164.074219 40.523438 C 163.582031 40.523438 163.164062 40.425781 162.820312 40.226562 L 162.820312 39.613281 C 163.15625 39.875 163.570312 40.003906 164.0625 40.003906 C 164.347656 40.003906 164.570312 39.941406 164.738281 39.808594 C 164.910156 39.679688 164.996094 39.488281 164.996094 39.242188 C 164.996094 39.136719 164.976562 39.046875 164.933594 38.972656 C 164.902344 38.890625 164.839844 38.816406 164.75 38.75 C 164.660156 38.675781 164.570312 38.621094 164.492188 38.578125 C 164.410156 38.527344 164.296875 38.472656 164.160156 38.40625 C 164.125 38.398438 164.085938 38.382812 164.039062 38.355469 C 163.832031 38.269531 163.675781 38.195312 163.570312 38.148438 C 163.472656 38.09375 163.347656 38.007812 163.199219 37.902344 C 163.058594 37.789062 162.957031 37.660156 162.894531 37.519531 C 162.824219 37.371094 162.796875 37.207031 162.796875 37.015625 C 162.796875 36.617188 162.9375 36.300781 163.226562 36.082031 C 163.511719 35.851562 163.871094 35.734375 164.308594 35.734375 C 164.707031 35.734375 165.046875 35.808594 165.328125 35.957031 L 165.328125 36.546875 C 165.046875 36.359375 164.714844 36.265625 164.320312 36.265625 C 164.03125 36.265625 163.804688 36.332031 163.632812 36.460938 C 163.464844 36.59375 163.386719 36.765625 163.386719 36.980469 C 163.386719 37.09375 163.402344 37.195312 163.445312 37.285156 C 163.496094 37.378906 163.574219 37.457031 163.679688 37.53125 C 163.792969 37.605469 163.894531 37.664062 163.976562 37.703125 C 164.054688 37.746094 164.179688 37.804688 164.34375 37.875 C 164.5 37.945312 164.617188 37.996094 164.703125 38.035156 C 164.789062 38.078125 164.902344 38.144531 165.035156 38.234375 C 165.164062 38.316406 165.261719 38.398438 165.328125 38.480469 C 165.394531 38.5625 165.453125 38.671875 165.5 38.800781 C 165.554688 38.933594 165.585938 39.078125 165.585938 39.230469 Z M 165.585938 39.230469 " fill-opacity="1" fill-rule="nonzero"/><path fill="#a6a6a6" d="M 169.234375 39.230469 C 169.234375 39.644531 169.089844 39.960938 168.804688 40.191406 C 168.523438 40.410156 168.164062 40.523438 167.722656 40.523438 C 167.230469 40.523438 166.8125 40.425781 166.46875 40.226562 L 166.46875 39.613281 C 166.800781 39.875 167.21875 40.003906 167.710938 40.003906 C 167.996094 40.003906 168.21875 39.941406 168.386719 39.808594 C 168.558594 39.679688 168.644531 39.488281 168.644531 39.242188 C 168.644531 39.136719 168.621094 39.046875 168.582031 38.972656 C 168.546875 38.890625 168.488281 38.816406 168.398438 38.75 C 168.304688 38.675781 168.21875 38.621094 168.140625 38.578125 C 168.054688 38.527344 167.945312 38.472656 167.808594 38.40625 C 167.773438 38.398438 167.734375 38.382812 167.683594 38.355469 C 167.480469 38.269531 167.320312 38.195312 167.21875 38.148438 C 167.117188 38.09375 166.996094 38.007812 166.847656 37.902344 C 166.707031 37.789062 166.605469 37.660156 166.539062 37.519531 C 166.472656 37.371094 166.441406 37.207031 166.441406 37.015625 C 166.441406 36.617188 166.582031 36.300781 166.871094 36.082031 C 167.160156 35.851562 167.519531 35.734375 167.957031 35.734375 C 168.355469 35.734375 168.695312 35.808594 168.976562 35.957031 L 168.976562 36.546875 C 168.695312 36.359375 168.359375 36.265625 167.96875 36.265625 C 167.679688 36.265625 167.449219 36.332031 167.277344 36.460938 C 167.113281 36.59375 167.03125 36.765625 167.03125 36.980469 C 167.03125 37.09375 167.050781 37.195312 167.09375 37.285156 C 167.144531 37.378906 167.21875 37.457031 167.328125 37.53125 C 167.441406 37.605469 167.539062 37.664062 167.625 37.703125 C 167.703125 37.746094 167.824219 37.804688 167.992188 37.875 C 168.144531 37.945312 168.265625 37.996094 168.347656 38.035156 C 168.4375 38.078125 168.546875 38.144531 168.679688 38.234375 C 168.808594 38.316406 168.910156 38.398438 168.976562 38.480469 C 169.039062 38.5625 169.097656 38.671875 169.148438 38.800781 C 169.203125 38.933594 169.234375 39.078125 169.234375 39.230469 Z M 169.234375 39.230469 " fill-opacity="1" fill-rule="nonzero"/></svg>