<svg xmlns="http://www.w3.org/2000/svg" xmlns:xlink="http://www.w3.org/1999/xlink" width="400" zoomAndPan="magnify" viewBox="0 0 300 187.499995" height="250" preserveAspectRatio="xMidYMid meet" version="1.0"><defs><g/><clipPath id="f5d42e8222"><path d="M 17.601562 61 L 80 61 L 80 134 L 17.601562 134 Z M 17.601562 61 " clip-rule="nonzero"/></clipPath><clipPath id="c2b455fdfc"><path d="M 37 53.25 L 44 53.25 L 44 59 L 37 59 Z M 37 53.25 " clip-rule="nonzero"/></clipPath></defs><g clip-path="url(#f5d42e8222)"><path fill="#d9d9d9" d="M 71.316406 131.730469 C 71.59375 132.683594 70.871094 133.640625 69.875 133.640625 L 45.492188 133.640625 C 44.761719 133.640625 44.140625 133.121094 44.015625 132.398438 C 43.566406 129.816406 42.410156 123.984375 40.96875 122.648438 C 38.710938 120.546875 33.445312 121.800781 30.203125 121.933594 C 22.84375 122.316406 24.210938 116.773438 23.234375 111.300781 C 23.136719 110.730469 23.011719 110.164062 22.84375 109.601562 C 22.84375 109.59375 22.839844 109.589844 22.839844 109.582031 C 21.453125 104.90625 17.574219 105.9375 17.746094 102.625 C 17.851562 100.605469 23.347656 98 23.359375 91.648438 C 23.363281 89.859375 23.039062 87.128906 22.984375 85.269531 C 22.546875 71.199219 36.148438 60.996094 52.035156 61.820312 C 66.570312 62.570312 77.078125 70.453125 79.335938 85.335938 C 80.722656 94.515625 77.777344 101.984375 71.144531 110.59375 C 69.480469 112.753906 68.65625 116.507812 68.828125 119.230469 C 69.105469 123.601562 70.503906 128.9375 71.316406 131.730469 " fill-opacity="1" fill-rule="nonzero"/></g><path fill="#d9d9d9" d="M 72.289062 115.570312 C 81.65625 115.28125 91.984375 107.621094 91.808594 93.238281 C 91.660156 81.175781 98.058594 71.777344 90.960938 70.378906 C 85.246094 69.253906 82.527344 76.460938 76.890625 80.164062 C 76.890625 80.164062 69.199219 86.800781 67.46875 91.417969 C 65.738281 96.039062 64.074219 104.667969 65.808594 109.34375 C 67.539062 114.019531 70.441406 115.632812 72.289062 115.570312 " fill-opacity="1" fill-rule="nonzero"/><path fill="#737373" d="M 69.585938 114.53125 C 69.585938 114.53125 85.640625 105.460938 76.511719 85.199219 C 73.023438 77.460938 66.378906 70.253906 61.953125 62.5625 C 57.730469 55.226562 47.058594 58.265625 48.914062 66.632812 C 51.867188 79.96875 49.265625 83.53125 50.167969 91.609375 C 52.625 113.527344 69.585938 114.53125 69.585938 114.53125 " fill-opacity="1" fill-rule="nonzero"/><path fill="#a6a6a6" d="M 73.140625 67.550781 C 74.394531 68.339844 76.140625 67.957031 76.960938 67.703125 C 77.242188 67.617188 77.410156 67.351562 77.367188 67.0625 C 77.246094 66.210938 76.839844 64.46875 75.589844 63.675781 C 74.339844 62.886719 72.59375 63.273438 71.769531 63.523438 C 71.492188 63.609375 71.324219 63.875 71.363281 64.167969 C 71.488281 65.019531 71.890625 66.761719 73.140625 67.550781 " fill-opacity="1" fill-rule="nonzero"/><g clip-path="url(#c2b455fdfc)"><path fill="#a6a6a6" d="M 42.074219 57.914062 C 43.3125 57.105469 43.6875 55.355469 43.800781 54.503906 C 43.839844 54.214844 43.667969 53.949219 43.386719 53.871094 C 42.5625 53.628906 40.808594 53.269531 39.570312 54.078125 C 38.332031 54.886719 37.953125 56.636719 37.84375 57.488281 C 37.804688 57.777344 37.976562 58.039062 38.257812 58.125 C 39.082031 58.363281 40.835938 58.722656 42.074219 57.914062 " fill-opacity="1" fill-rule="nonzero"/></g><path fill="#545454" d="M 26.957031 95.144531 C 26.519531 95.144531 26.070312 95.039062 25.640625 94.78125 C 25.230469 94.539062 25.097656 94.007812 25.34375 93.597656 C 25.589844 93.1875 26.121094 93.050781 26.53125 93.296875 C 27.25 93.726562 28.347656 92.8125 28.355469 92.800781 C 28.714844 92.488281 29.261719 92.523438 29.578125 92.882812 C 29.894531 93.242188 29.859375 93.789062 29.5 94.105469 C 28.972656 94.570312 27.996094 95.144531 26.957031 95.144531 " fill-opacity="1" fill-rule="nonzero"/><path fill="#545454" d="M 27.867188 110.308594 C 25.984375 111.167969 24.402344 111.308594 23.566406 111.308594 C 23.433594 111.308594 23.324219 111.308594 23.234375 111.300781 C 23.136719 110.730469 23.011719 110.164062 22.84375 109.601562 C 22.84375 109.59375 22.839844 109.589844 22.839844 109.582031 C 22.941406 109.554688 23.054688 109.546875 23.164062 109.5625 C 23.199219 109.5625 24.90625 109.753906 27.148438 108.738281 C 27.585938 108.535156 28.097656 108.730469 28.292969 109.167969 C 28.492188 109.601562 28.296875 110.113281 27.867188 110.308594 " fill-opacity="1" fill-rule="nonzero"/><path fill="#545454" d="M 70.957031 133.777344 C 70.644531 133.777344 70.339844 133.605469 70.191406 133.308594 C 68.449219 129.933594 67.910156 123.0625 68.722656 114.453125 C 69.871094 102.242188 66.429688 84.109375 59.46875 76.582031 C 59.148438 76.230469 59.167969 75.683594 59.519531 75.359375 C 59.871094 75.03125 60.417969 75.058594 60.742188 75.40625 C 68.253906 83.53125 71.628906 102.085938 70.449219 114.613281 C 69.679688 122.777344 70.15625 129.472656 71.726562 132.511719 C 71.945312 132.9375 71.78125 133.460938 71.355469 133.679688 C 71.230469 133.746094 71.09375 133.777344 70.957031 133.777344 " fill-opacity="1" fill-rule="nonzero"/><path fill="#545454" d="M 66.582031 127.203125 C 66.390625 127.203125 66.195312 127.140625 66.035156 127.007812 C 65.957031 126.941406 64.105469 125.414062 62.882812 123.816406 C 62.59375 123.433594 62.664062 122.894531 63.046875 122.601562 C 63.429688 122.3125 63.96875 122.386719 64.257812 122.765625 C 65.359375 124.203125 67.117188 125.652344 67.136719 125.667969 C 67.503906 125.972656 67.558594 126.515625 67.253906 126.886719 C 67.082031 127.097656 66.835938 127.203125 66.582031 127.203125 " fill-opacity="1" fill-rule="nonzero"/><path fill="#737373" d="M 63.078125 124.160156 C 56.207031 124.160156 52.394531 121.324219 51.203125 118.847656 C 50.382812 117.136719 50.578125 115.363281 51.734375 113.976562 C 52.734375 112.78125 54.132812 112.285156 55.671875 112.59375 C 59.074219 113.261719 62.664062 117.550781 64.398438 123.027344 C 64.480469 123.289062 64.433594 123.574219 64.273438 123.796875 C 64.117188 124.015625 63.863281 124.148438 63.589844 124.15625 C 63.417969 124.160156 63.246094 124.160156 63.078125 124.160156 " fill-opacity="1" fill-rule="nonzero"/><path fill="#545454" d="M 72.914062 130.539062 C 72.613281 130.539062 72.324219 130.382812 72.164062 130.105469 C 71.925781 129.691406 72.066406 129.160156 72.480469 128.921875 C 75.160156 127.371094 76.238281 126.085938 76.25 126.074219 C 76.554688 125.707031 77.097656 125.652344 77.464844 125.953125 C 77.835938 126.253906 77.890625 126.796875 77.589844 127.167969 C 77.542969 127.230469 76.339844 128.6875 73.347656 130.421875 C 73.210938 130.5 73.0625 130.539062 72.914062 130.539062 " fill-opacity="1" fill-rule="nonzero"/><path fill="#d9d9d9" d="M 76.917969 127.488281 C 76.671875 127.488281 76.433594 127.382812 76.269531 127.195312 C 76.054688 126.953125 75.996094 126.617188 76.109375 126.320312 C 77.824219 121.734375 79.667969 119.226562 81.59375 118.863281 C 82.273438 118.738281 83.289062 118.816406 84.277344 119.921875 C 84.949219 120.671875 85.152344 121.613281 84.851562 122.566406 C 84.203125 124.625 81.234375 126.503906 77.117188 127.464844 C 77.050781 127.480469 76.984375 127.488281 76.917969 127.488281 " fill-opacity="1" fill-rule="nonzero"/><g fill="#737373" fill-opacity="1"><g transform="translate(97.827272, 97.489115)"><g><path d="M 5.421875 0 L 1.328125 0 L 2.859375 -17.890625 L 7.359375 -17.890625 L 9.84375 -11.421875 C 10.269531 -10.335938 10.632812 -9.34375 10.9375 -8.4375 C 11.238281 -7.539062 11.429688 -6.90625 11.515625 -6.53125 L 11.65625 -6 C 11.9375 -7.164062 12.554688 -8.972656 13.515625 -11.421875 L 16.03125 -17.890625 L 20.515625 -17.890625 L 22.375 0 L 18.296875 0 L 17.625 -6.921875 L 17.28125 -12.15625 C 16.820312 -10.832031 16.1875 -9.085938 15.375 -6.921875 L 12.84375 -0.1875 L 10.4375 -0.1875 L 7.9375 -6.921875 C 7.53125 -8.023438 7.1875 -9.007812 6.90625 -9.875 C 6.625 -10.738281 6.4375 -11.34375 6.34375 -11.6875 L 6.21875 -12.15625 C 6.21875 -10.90625 6.132812 -9.160156 5.96875 -6.921875 Z M 5.421875 0 "/></g></g></g><g fill="#737373" fill-opacity="1"><g transform="translate(121.52687, 97.489115)"><g><path d="M 6.078125 0 L 1.984375 0 L 1.984375 -17.890625 L 6.078125 -17.890625 Z M 6.078125 0 "/></g></g></g><g fill="#737373" fill-opacity="1"><g transform="translate(129.594817, 97.489115)"><g><path d="M 5.8125 0 L 1.71875 0 L 1.71875 -17.890625 L 6.21875 -17.890625 L 10.375 -10.484375 C 10.957031 -9.441406 11.46875 -8.460938 11.90625 -7.546875 C 12.34375 -6.640625 12.625 -6 12.75 -5.625 L 12.953125 -5.046875 C 12.773438 -6.359375 12.6875 -8.171875 12.6875 -10.484375 L 12.6875 -17.890625 L 16.78125 -17.890625 L 16.78125 0 L 12.296875 0 L 8.015625 -7.40625 C 7.453125 -8.363281 6.953125 -9.304688 6.515625 -10.234375 C 6.078125 -11.160156 5.78125 -11.847656 5.625 -12.296875 L 5.421875 -12.953125 C 5.679688 -11.359375 5.8125 -9.507812 5.8125 -7.40625 Z M 5.8125 0 "/></g></g></g><g fill="#737373" fill-opacity="1"><g transform="translate(148.092712, 97.489115)"><g><path d="M 7.828125 0 L 1.71875 0 L 1.71875 -17.890625 L 7.890625 -17.890625 C 10.578125 -17.890625 12.773438 -17.0625 14.484375 -15.40625 C 16.203125 -13.75 17.0625 -11.691406 17.0625 -9.234375 C 17.0625 -6.367188 16.21875 -4.113281 14.53125 -2.46875 C 12.84375 -0.820312 10.609375 0 7.828125 0 Z M 7.75 -14.515625 L 5.921875 -14.515625 L 5.921875 -3.34375 L 7.78125 -3.34375 C 9.425781 -3.34375 10.691406 -3.851562 11.578125 -4.875 C 12.472656 -5.90625 12.921875 -7.359375 12.921875 -9.234375 C 12.921875 -10.828125 12.46875 -12.101562 11.5625 -13.0625 C 10.664062 -14.03125 9.394531 -14.515625 7.75 -14.515625 Z M 7.75 -14.515625 "/></g></g></g><g fill="#737373" fill-opacity="1"><g transform="translate(166.219063, 97.489115)"><g/></g></g><g fill="#737373" fill-opacity="1"><g transform="translate(172.853892, 97.489115)"><g><path d="M 9.875 0 L 5.3125 0 L 0.5 -17.890625 L 4.8125 -17.890625 L 6.453125 -11.3125 C 6.804688 -9.894531 7.097656 -8.613281 7.328125 -7.46875 C 7.554688 -6.332031 7.695312 -5.539062 7.75 -5.09375 L 7.859375 -4.453125 C 8.160156 -5.835938 8.757812 -8.125 9.65625 -11.3125 L 11.4375 -17.625 L 14.46875 -17.625 L 16.21875 -11.3125 C 16.59375 -9.976562 16.925781 -8.738281 17.21875 -7.59375 C 17.507812 -6.457031 17.707031 -5.648438 17.8125 -5.171875 L 17.96875 -4.453125 C 18.195312 -6.035156 18.691406 -8.328125 19.453125 -11.328125 L 21.109375 -17.890625 L 25.265625 -17.890625 L 20.5 0 L 15.921875 0 L 14.359375 -5.65625 C 13.984375 -7.019531 13.675781 -8.171875 13.4375 -9.109375 C 13.207031 -10.046875 13.066406 -10.644531 13.015625 -10.90625 L 12.953125 -11.3125 C 12.898438 -10.582031 12.421875 -8.695312 11.515625 -5.65625 Z M 9.875 0 "/></g></g></g><g fill="#737373" fill-opacity="1"><g transform="translate(198.623559, 97.489115)"><g><path d="M 16.484375 0 L 12.375 0 L 12.375 -7.140625 L 5.8125 -7.140625 L 5.8125 0 L 1.71875 0 L 1.71875 -17.890625 L 5.8125 -17.890625 L 5.8125 -10.625 L 12.375 -10.625 L 12.375 -17.890625 L 16.484375 -17.890625 Z M 16.484375 0 "/></g></g></g><g fill="#737373" fill-opacity="1"><g transform="translate(216.829522, 97.489115)"><g><path d="M 6.078125 0 L 1.984375 0 L 1.984375 -17.890625 L 6.078125 -17.890625 Z M 6.078125 0 "/></g></g></g><g fill="#737373" fill-opacity="1"><g transform="translate(224.897469, 97.489115)"><g><path d="M 12.84375 -5.203125 C 12.84375 -3.585938 12.25 -2.28125 11.0625 -1.28125 C 9.882812 -0.28125 8.3125 0.21875 6.34375 0.21875 C 4.238281 0.21875 2.519531 -0.15625 1.1875 -0.90625 L 1.1875 -5.015625 C 2.800781 -3.847656 4.519531 -3.265625 6.34375 -3.265625 C 6.96875 -3.265625 7.484375 -3.425781 7.890625 -3.75 C 8.296875 -4.082031 8.5 -4.515625 8.5 -5.046875 C 8.5 -5.222656 8.46875 -5.390625 8.40625 -5.546875 C 8.351562 -5.703125 8.253906 -5.851562 8.109375 -6 C 7.972656 -6.144531 7.835938 -6.265625 7.703125 -6.359375 C 7.578125 -6.453125 7.382812 -6.566406 7.125 -6.703125 C 6.875 -6.835938 6.660156 -6.945312 6.484375 -7.03125 C 6.304688 -7.125 6.039062 -7.25 5.6875 -7.40625 C 5.34375 -7.5625 5.066406 -7.6875 4.859375 -7.78125 C 3.703125 -8.3125 2.773438 -8.960938 2.078125 -9.734375 C 1.378906 -10.515625 1.03125 -11.550781 1.03125 -12.84375 C 1.03125 -14.382812 1.597656 -15.628906 2.734375 -16.578125 C 3.867188 -17.523438 5.4375 -18 7.4375 -18 C 9.21875 -18 10.753906 -17.695312 12.046875 -17.09375 L 12.046875 -13.28125 C 10.617188 -14.101562 9.132812 -14.515625 7.59375 -14.515625 C 6.90625 -14.515625 6.378906 -14.375 6.015625 -14.09375 C 5.648438 -13.8125 5.46875 -13.445312 5.46875 -13 C 5.46875 -12.5625 5.6875 -12.171875 6.125 -11.828125 C 6.570312 -11.484375 7.238281 -11.113281 8.125 -10.71875 C 8.675781 -10.476562 9.128906 -10.265625 9.484375 -10.078125 C 9.847656 -9.890625 10.265625 -9.628906 10.734375 -9.296875 C 11.203125 -8.972656 11.570312 -8.628906 11.84375 -8.265625 C 12.125 -7.898438 12.359375 -7.453125 12.546875 -6.921875 C 12.742188 -6.390625 12.84375 -5.816406 12.84375 -5.203125 Z M 12.84375 -5.203125 "/></g></g></g><g fill="#737373" fill-opacity="1"><g transform="translate(238.538672, 97.489115)"><g><path d="M 7.890625 -5.78125 L 5.8125 -5.78125 L 5.8125 0 L 1.71875 0 L 1.71875 -17.890625 L 7.890625 -17.890625 C 9.867188 -17.890625 11.472656 -17.332031 12.703125 -16.21875 C 13.929688 -15.101562 14.546875 -13.6875 14.546875 -11.96875 C 14.546875 -10.007812 13.90625 -8.488281 12.625 -7.40625 C 11.34375 -6.320312 9.765625 -5.78125 7.890625 -5.78125 Z M 7.40625 -14.625 L 5.8125 -14.625 L 5.8125 -9.03125 L 7.171875 -9.03125 C 9.328125 -9.03125 10.40625 -10.007812 10.40625 -11.96875 C 10.40625 -13.738281 9.40625 -14.625 7.40625 -14.625 Z M 7.40625 -14.625 "/></g></g></g><g fill="#737373" fill-opacity="1"><g transform="translate(253.480312, 97.489115)"><g><path d="M 12.84375 0 L 1.71875 0 L 1.71875 -17.890625 L 12.75 -17.890625 L 12.75 -14.625 L 5.84375 -14.625 L 5.84375 -10.5625 L 12 -10.5625 L 12 -7.328125 L 5.84375 -7.328125 L 5.84375 -3.265625 L 12.84375 -3.265625 Z M 12.84375 0 "/></g></g></g><g fill="#737373" fill-opacity="1"><g transform="translate(267.917699, 97.489115)"><g><path d="M 7.828125 -14.578125 L 5.8125 -14.578125 L 5.8125 -9.53125 L 7.75 -9.53125 C 9.519531 -9.53125 10.40625 -10.394531 10.40625 -12.125 C 10.40625 -12.894531 10.175781 -13.492188 9.71875 -13.921875 C 9.257812 -14.359375 8.628906 -14.578125 7.828125 -14.578125 Z M 5.8125 0 L 1.71875 0 L 1.71875 -17.890625 L 7.90625 -17.890625 C 9.90625 -17.890625 11.507812 -17.359375 12.71875 -16.296875 C 13.9375 -15.234375 14.546875 -13.851562 14.546875 -12.15625 C 14.546875 -9.601562 13.457031 -7.84375 11.28125 -6.875 L 15.828125 0 L 10.9375 0 L 7.0625 -6.21875 L 5.8125 -6.21875 Z M 5.8125 0 "/></g></g></g><g fill="#a6a6a6" fill-opacity="1"><g transform="translate(98.984573, 109.725964)"><g><path d="M 2.78125 0 L 1.875 0 L 0.3125 -5.953125 L 1.0625 -5.953125 L 1.625 -3.75 L 2.359375 -0.75 C 2.691406 -1.957031 2.972656 -2.957031 3.203125 -3.75 L 3.828125 -5.875 L 4.53125 -5.875 L 5.1875 -3.75 L 6.09375 -0.71875 C 6.363281 -2.019531 6.582031 -3.023438 6.75 -3.734375 L 7.25 -5.953125 L 7.984375 -5.953125 L 6.578125 0 L 5.65625 0 L 5.078125 -1.890625 L 4.1875 -4.859375 C 4.007812 -4.171875 3.726562 -3.179688 3.34375 -1.890625 Z M 2.78125 0 "/></g></g></g><g fill="#a6a6a6" fill-opacity="1"><g transform="translate(107.279269, 109.725964)"><g><path d="M 5 0 L 4.296875 0 L 4.296875 -2.703125 L 1.390625 -2.703125 L 1.390625 0 L 0.6875 0 L 0.6875 -5.953125 L 1.390625 -5.953125 L 1.390625 -3.34375 L 4.296875 -3.34375 L 4.296875 -5.953125 L 5 -5.953125 Z M 5 0 "/></g></g></g><g fill="#a6a6a6" fill-opacity="1"><g transform="translate(112.965288, 109.725964)"><g><path d="M 4 0 L 0.6875 0 L 0.6875 -5.953125 L 3.96875 -5.953125 L 3.96875 -5.328125 L 1.390625 -5.328125 L 1.390625 -3.296875 L 3.65625 -3.296875 L 3.65625 -2.65625 L 1.390625 -2.65625 L 1.390625 -0.625 L 4 -0.625 Z M 4 0 "/></g></g></g><g fill="#a6a6a6" fill-opacity="1"><g transform="translate(117.395608, 109.725964)"><g><path d="M 2.21875 -5.34375 L 1.390625 -5.34375 L 1.390625 -2.96875 L 2.296875 -2.96875 C 2.703125 -2.96875 3.015625 -3.078125 3.234375 -3.296875 C 3.453125 -3.515625 3.5625 -3.796875 3.5625 -4.140625 C 3.5625 -4.941406 3.113281 -5.34375 2.21875 -5.34375 Z M 2.25 -2.359375 L 1.390625 -2.359375 L 1.390625 0 L 0.6875 0 L 0.6875 -5.953125 L 2.171875 -5.953125 C 2.859375 -5.953125 3.378906 -5.789062 3.734375 -5.46875 C 4.097656 -5.144531 4.28125 -4.695312 4.28125 -4.125 C 4.269531 -3.71875 4.160156 -3.367188 3.953125 -3.078125 C 3.742188 -2.785156 3.453125 -2.582031 3.078125 -2.46875 L 4.640625 0 L 3.78125 0 L 2.328125 -2.359375 Z M 2.25 -2.359375 "/></g></g></g><g fill="#a6a6a6" fill-opacity="1"><g transform="translate(122.241549, 109.725964)"><g><path d="M 4 0 L 0.6875 0 L 0.6875 -5.953125 L 3.96875 -5.953125 L 3.96875 -5.328125 L 1.390625 -5.328125 L 1.390625 -3.296875 L 3.65625 -3.296875 L 3.65625 -2.65625 L 1.390625 -2.65625 L 1.390625 -0.625 L 4 -0.625 Z M 4 0 "/></g></g></g><g fill="#a6a6a6" fill-opacity="1"><g transform="translate(126.671868, 109.725964)"><g/></g></g><g fill="#a6a6a6" fill-opacity="1"><g transform="translate(128.829547, 109.725964)"><g><path d="M 2.3125 -2.1875 L 1.390625 -2.1875 L 1.390625 0 L 0.6875 0 L 0.6875 -5.953125 L 2.25 -5.953125 C 2.9375 -5.953125 3.476562 -5.773438 3.875 -5.421875 C 4.269531 -5.066406 4.46875 -4.609375 4.46875 -4.046875 C 4.46875 -3.515625 4.269531 -3.070312 3.875 -2.71875 C 3.488281 -2.363281 2.96875 -2.1875 2.3125 -2.1875 Z M 2.25 -5.34375 L 1.390625 -5.34375 L 1.390625 -2.796875 L 2.3125 -2.796875 C 2.757812 -2.796875 3.109375 -2.910156 3.359375 -3.140625 C 3.617188 -3.378906 3.75 -3.679688 3.75 -4.046875 C 3.75 -4.441406 3.617188 -4.753906 3.359375 -4.984375 C 3.097656 -5.222656 2.726562 -5.34375 2.25 -5.34375 Z M 2.25 -5.34375 "/></g></g></g><g fill="#a6a6a6" fill-opacity="1"><g transform="translate(133.648963, 109.725964)"><g><path d="M 4 0 L 0.6875 0 L 0.6875 -5.953125 L 3.96875 -5.953125 L 3.96875 -5.328125 L 1.390625 -5.328125 L 1.390625 -3.296875 L 3.65625 -3.296875 L 3.65625 -2.65625 L 1.390625 -2.65625 L 1.390625 -0.625 L 4 -0.625 Z M 4 0 "/></g></g></g><g fill="#a6a6a6" fill-opacity="1"><g transform="translate(138.079282, 109.725964)"><g><path d="M 1.921875 -2.515625 L 1.8125 -2.171875 L 3.921875 -2.171875 L 3.8125 -2.515625 L 2.890625 -5.390625 C 2.816406 -5.128906 2.492188 -4.171875 1.921875 -2.515625 Z M 1.078125 0 L 0.3125 0 L 2.390625 -5.953125 L 3.375 -5.953125 L 5.421875 0 L 4.65625 0 L 4.125 -1.5625 L 1.609375 -1.5625 Z M 1.078125 0 "/></g></g></g><g fill="#a6a6a6" fill-opacity="1"><g transform="translate(143.809518, 109.725964)"><g><path d="M 4.953125 -0.296875 C 4.585938 -0.046875 4.085938 0.078125 3.453125 0.078125 C 2.554688 0.078125 1.828125 -0.195312 1.265625 -0.75 C 0.703125 -1.300781 0.421875 -2.050781 0.421875 -3 C 0.421875 -3.894531 0.703125 -4.625 1.265625 -5.1875 C 1.835938 -5.757812 2.554688 -6.046875 3.421875 -6.046875 C 4.035156 -6.046875 4.539062 -5.9375 4.9375 -5.71875 L 4.9375 -4.984375 C 4.675781 -5.117188 4.441406 -5.21875 4.234375 -5.28125 C 4.023438 -5.34375 3.753906 -5.375 3.421875 -5.375 C 2.773438 -5.375 2.238281 -5.15625 1.8125 -4.71875 C 1.382812 -4.28125 1.171875 -3.707031 1.171875 -3 C 1.171875 -2.269531 1.382812 -1.6875 1.8125 -1.25 C 2.238281 -0.8125 2.800781 -0.59375 3.5 -0.59375 C 4.0625 -0.59375 4.546875 -0.742188 4.953125 -1.046875 Z M 4.953125 -0.296875 "/></g></g></g><g fill="#a6a6a6" fill-opacity="1"><g transform="translate(149.132982, 109.725964)"><g><path d="M 4 0 L 0.6875 0 L 0.6875 -5.953125 L 3.96875 -5.953125 L 3.96875 -5.328125 L 1.390625 -5.328125 L 1.390625 -3.296875 L 3.65625 -3.296875 L 3.65625 -2.65625 L 1.390625 -2.65625 L 1.390625 -0.625 L 4 -0.625 Z M 4 0 "/></g></g></g><g fill="#a6a6a6" fill-opacity="1"><g transform="translate(153.563301, 109.725964)"><g/></g></g><g fill="#a6a6a6" fill-opacity="1"><g transform="translate(155.720981, 109.725964)"><g><path d="M 1.328125 0 L 0.625 0 L 1.046875 -5.953125 L 1.96875 -5.953125 L 2.75 -3.78125 L 3.703125 -1.015625 C 4.046875 -1.972656 4.382812 -2.894531 4.71875 -3.78125 L 5.53125 -5.953125 L 6.453125 -5.953125 L 6.96875 0 L 6.25 0 L 6.046875 -2.359375 L 5.84375 -5 C 5.53125 -4.125 5.207031 -3.242188 4.875 -2.359375 L 4.046875 -0.125 L 3.359375 -0.125 L 2.578125 -2.359375 L 1.671875 -4.9375 C 1.671875 -4.707031 1.613281 -3.847656 1.5 -2.359375 Z M 1.328125 0 "/></g></g></g><g fill="#a6a6a6" fill-opacity="1"><g transform="translate(163.2994, 109.725964)"><g><path d="M 4 0 L 0.6875 0 L 0.6875 -5.953125 L 3.96875 -5.953125 L 3.96875 -5.328125 L 1.390625 -5.328125 L 1.390625 -3.296875 L 3.65625 -3.296875 L 3.65625 -2.65625 L 1.390625 -2.65625 L 1.390625 -0.625 L 4 -0.625 Z M 4 0 "/></g></g></g><g fill="#a6a6a6" fill-opacity="1"><g transform="translate(167.729719, 109.725964)"><g><path d="M 4 0 L 0.6875 0 L 0.6875 -5.953125 L 3.96875 -5.953125 L 3.96875 -5.328125 L 1.390625 -5.328125 L 1.390625 -3.296875 L 3.65625 -3.296875 L 3.65625 -2.65625 L 1.390625 -2.65625 L 1.390625 -0.625 L 4 -0.625 Z M 4 0 "/></g></g></g><g fill="#a6a6a6" fill-opacity="1"><g transform="translate(172.160038, 109.725964)"><g><path d="M 4.09375 -5.328125 L 2.484375 -5.328125 L 2.484375 0 L 1.765625 0 L 1.765625 -5.328125 L 0.15625 -5.328125 L 0.15625 -5.953125 L 4.09375 -5.953125 Z M 4.09375 -5.328125 "/></g></g></g><g fill="#a6a6a6" fill-opacity="1"><g transform="translate(176.422346, 109.725964)"><g><path d="M 4.125 -1.578125 C 4.125 -1.054688 3.941406 -0.648438 3.578125 -0.359375 C 3.222656 -0.078125 2.765625 0.0625 2.203125 0.0625 C 1.578125 0.0625 1.046875 -0.0625 0.609375 -0.3125 L 0.609375 -1.09375 C 1.035156 -0.757812 1.5625 -0.59375 2.1875 -0.59375 C 2.550781 -0.59375 2.835938 -0.675781 3.046875 -0.84375 C 3.265625 -1.007812 3.375 -1.25 3.375 -1.5625 C 3.375 -1.695312 3.347656 -1.8125 3.296875 -1.90625 C 3.253906 -2.007812 3.175781 -2.101562 3.0625 -2.1875 C 2.945312 -2.28125 2.835938 -2.351562 2.734375 -2.40625 C 2.628906 -2.46875 2.488281 -2.539062 2.3125 -2.625 C 2.269531 -2.632812 2.21875 -2.65625 2.15625 -2.6875 C 1.894531 -2.800781 1.695312 -2.890625 1.5625 -2.953125 C 1.4375 -3.023438 1.28125 -3.128906 1.09375 -3.265625 C 0.914062 -3.410156 0.785156 -3.570312 0.703125 -3.75 C 0.617188 -3.9375 0.578125 -4.148438 0.578125 -4.390625 C 0.578125 -4.898438 0.757812 -5.296875 1.125 -5.578125 C 1.488281 -5.867188 1.945312 -6.015625 2.5 -6.015625 C 3.007812 -6.015625 3.441406 -5.921875 3.796875 -5.734375 L 3.796875 -4.984375 C 3.441406 -5.222656 3.015625 -5.34375 2.515625 -5.34375 C 2.148438 -5.34375 1.859375 -5.257812 1.640625 -5.09375 C 1.429688 -4.925781 1.328125 -4.707031 1.328125 -4.4375 C 1.328125 -4.289062 1.351562 -4.160156 1.40625 -4.046875 C 1.46875 -3.929688 1.566406 -3.828125 1.703125 -3.734375 C 1.847656 -3.640625 1.972656 -3.566406 2.078125 -3.515625 C 2.179688 -3.460938 2.335938 -3.390625 2.546875 -3.296875 C 2.742188 -3.210938 2.894531 -3.144531 3 -3.09375 C 3.113281 -3.039062 3.253906 -2.957031 3.421875 -2.84375 C 3.585938 -2.738281 3.710938 -2.632812 3.796875 -2.53125 C 3.878906 -2.425781 3.953125 -2.289062 4.015625 -2.125 C 4.085938 -1.957031 4.125 -1.773438 4.125 -1.578125 Z M 4.125 -1.578125 "/></g></g></g><g fill="#a6a6a6" fill-opacity="1"><g transform="translate(181.056059, 109.725964)"><g/></g></g><g fill="#a6a6a6" fill-opacity="1"><g transform="translate(183.213739, 109.725964)"><g><path d="M 2.3125 -2.1875 L 1.390625 -2.1875 L 1.390625 0 L 0.6875 0 L 0.6875 -5.953125 L 2.25 -5.953125 C 2.9375 -5.953125 3.476562 -5.773438 3.875 -5.421875 C 4.269531 -5.066406 4.46875 -4.609375 4.46875 -4.046875 C 4.46875 -3.515625 4.269531 -3.070312 3.875 -2.71875 C 3.488281 -2.363281 2.96875 -2.1875 2.3125 -2.1875 Z M 2.25 -5.34375 L 1.390625 -5.34375 L 1.390625 -2.796875 L 2.3125 -2.796875 C 2.757812 -2.796875 3.109375 -2.910156 3.359375 -3.140625 C 3.617188 -3.378906 3.75 -3.679688 3.75 -4.046875 C 3.75 -4.441406 3.617188 -4.753906 3.359375 -4.984375 C 3.097656 -5.222656 2.726562 -5.34375 2.25 -5.34375 Z M 2.25 -5.34375 "/></g></g></g><g fill="#a6a6a6" fill-opacity="1"><g transform="translate(188.033154, 109.725964)"><g><path d="M 2.21875 -5.34375 L 1.390625 -5.34375 L 1.390625 -2.96875 L 2.296875 -2.96875 C 2.703125 -2.96875 3.015625 -3.078125 3.234375 -3.296875 C 3.453125 -3.515625 3.5625 -3.796875 3.5625 -4.140625 C 3.5625 -4.941406 3.113281 -5.34375 2.21875 -5.34375 Z M 2.25 -2.359375 L 1.390625 -2.359375 L 1.390625 0 L 0.6875 0 L 0.6875 -5.953125 L 2.171875 -5.953125 C 2.859375 -5.953125 3.378906 -5.789062 3.734375 -5.46875 C 4.097656 -5.144531 4.28125 -4.695312 4.28125 -4.125 C 4.269531 -3.71875 4.160156 -3.367188 3.953125 -3.078125 C 3.742188 -2.785156 3.453125 -2.582031 3.078125 -2.46875 L 4.640625 0 L 3.78125 0 L 2.328125 -2.359375 Z M 2.25 -2.359375 "/></g></g></g><g fill="#a6a6a6" fill-opacity="1"><g transform="translate(192.879095, 109.725964)"><g><path d="M 5.78125 -3 C 5.78125 -2.0625 5.535156 -1.3125 5.046875 -0.75 C 4.566406 -0.195312 3.921875 0.078125 3.109375 0.078125 C 2.296875 0.078125 1.644531 -0.203125 1.15625 -0.765625 C 0.664062 -1.328125 0.421875 -2.070312 0.421875 -3 C 0.421875 -3.9375 0.660156 -4.679688 1.140625 -5.234375 C 1.617188 -5.796875 2.269531 -6.078125 3.09375 -6.078125 C 3.925781 -6.078125 4.582031 -5.800781 5.0625 -5.25 C 5.539062 -4.695312 5.78125 -3.945312 5.78125 -3 Z M 1.171875 -3 C 1.171875 -2.269531 1.347656 -1.6875 1.703125 -1.25 C 2.054688 -0.820312 2.523438 -0.609375 3.109375 -0.609375 C 3.710938 -0.609375 4.179688 -0.820312 4.515625 -1.25 C 4.847656 -1.675781 5.015625 -2.257812 5.015625 -3 C 5.015625 -3.75 4.84375 -4.335938 4.5 -4.765625 C 4.164062 -5.191406 3.695312 -5.40625 3.09375 -5.40625 C 2.488281 -5.40625 2.015625 -5.191406 1.671875 -4.765625 C 1.335938 -4.335938 1.171875 -3.75 1.171875 -3 Z M 1.171875 -3 "/></g></g></g><g fill="#a6a6a6" fill-opacity="1"><g transform="translate(199.069163, 109.725964)"><g><path d="M 5.328125 -0.46875 C 4.847656 -0.101562 4.234375 0.078125 3.484375 0.078125 C 2.566406 0.078125 1.828125 -0.191406 1.265625 -0.734375 C 0.703125 -1.285156 0.421875 -2.035156 0.421875 -2.984375 C 0.421875 -3.890625 0.695312 -4.628906 1.25 -5.203125 C 1.8125 -5.773438 2.519531 -6.0625 3.375 -6.0625 C 4.070312 -6.0625 4.648438 -5.925781 5.109375 -5.65625 L 5.109375 -4.890625 C 4.628906 -5.210938 4.070312 -5.375 3.4375 -5.375 C 2.769531 -5.375 2.222656 -5.15625 1.796875 -4.71875 C 1.378906 -4.28125 1.171875 -3.703125 1.171875 -2.984375 C 1.171875 -2.253906 1.378906 -1.675781 1.796875 -1.25 C 2.210938 -0.832031 2.78125 -0.625 3.5 -0.625 C 3.90625 -0.625 4.273438 -0.703125 4.609375 -0.859375 L 4.609375 -2.71875 L 3.3125 -2.71875 L 3.3125 -3.34375 L 5.328125 -3.34375 Z M 5.328125 -0.46875 "/></g></g></g><g fill="#a6a6a6" fill-opacity="1"><g transform="translate(204.993944, 109.725964)"><g><path d="M 2.21875 -5.34375 L 1.390625 -5.34375 L 1.390625 -2.96875 L 2.296875 -2.96875 C 2.703125 -2.96875 3.015625 -3.078125 3.234375 -3.296875 C 3.453125 -3.515625 3.5625 -3.796875 3.5625 -4.140625 C 3.5625 -4.941406 3.113281 -5.34375 2.21875 -5.34375 Z M 2.25 -2.359375 L 1.390625 -2.359375 L 1.390625 0 L 0.6875 0 L 0.6875 -5.953125 L 2.171875 -5.953125 C 2.859375 -5.953125 3.378906 -5.789062 3.734375 -5.46875 C 4.097656 -5.144531 4.28125 -4.695312 4.28125 -4.125 C 4.269531 -3.71875 4.160156 -3.367188 3.953125 -3.078125 C 3.742188 -2.785156 3.453125 -2.582031 3.078125 -2.46875 L 4.640625 0 L 3.78125 0 L 2.328125 -2.359375 Z M 2.25 -2.359375 "/></g></g></g><g fill="#a6a6a6" fill-opacity="1"><g transform="translate(209.839885, 109.725964)"><g><path d="M 4 0 L 0.6875 0 L 0.6875 -5.953125 L 3.96875 -5.953125 L 3.96875 -5.328125 L 1.390625 -5.328125 L 1.390625 -3.296875 L 3.65625 -3.296875 L 3.65625 -2.65625 L 1.390625 -2.65625 L 1.390625 -0.625 L 4 -0.625 Z M 4 0 "/></g></g></g><g fill="#a6a6a6" fill-opacity="1"><g transform="translate(214.270204, 109.725964)"><g><path d="M 4.125 -1.578125 C 4.125 -1.054688 3.941406 -0.648438 3.578125 -0.359375 C 3.222656 -0.078125 2.765625 0.0625 2.203125 0.0625 C 1.578125 0.0625 1.046875 -0.0625 0.609375 -0.3125 L 0.609375 -1.09375 C 1.035156 -0.757812 1.5625 -0.59375 2.1875 -0.59375 C 2.550781 -0.59375 2.835938 -0.675781 3.046875 -0.84375 C 3.265625 -1.007812 3.375 -1.25 3.375 -1.5625 C 3.375 -1.695312 3.347656 -1.8125 3.296875 -1.90625 C 3.253906 -2.007812 3.175781 -2.101562 3.0625 -2.1875 C 2.945312 -2.28125 2.835938 -2.351562 2.734375 -2.40625 C 2.628906 -2.46875 2.488281 -2.539062 2.3125 -2.625 C 2.269531 -2.632812 2.21875 -2.65625 2.15625 -2.6875 C 1.894531 -2.800781 1.695312 -2.890625 1.5625 -2.953125 C 1.4375 -3.023438 1.28125 -3.128906 1.09375 -3.265625 C 0.914062 -3.410156 0.785156 -3.570312 0.703125 -3.75 C 0.617188 -3.9375 0.578125 -4.148438 0.578125 -4.390625 C 0.578125 -4.898438 0.757812 -5.296875 1.125 -5.578125 C 1.488281 -5.867188 1.945312 -6.015625 2.5 -6.015625 C 3.007812 -6.015625 3.441406 -5.921875 3.796875 -5.734375 L 3.796875 -4.984375 C 3.441406 -5.222656 3.015625 -5.34375 2.515625 -5.34375 C 2.148438 -5.34375 1.859375 -5.257812 1.640625 -5.09375 C 1.429688 -4.925781 1.328125 -4.707031 1.328125 -4.4375 C 1.328125 -4.289062 1.351562 -4.160156 1.40625 -4.046875 C 1.46875 -3.929688 1.566406 -3.828125 1.703125 -3.734375 C 1.847656 -3.640625 1.972656 -3.566406 2.078125 -3.515625 C 2.179688 -3.460938 2.335938 -3.390625 2.546875 -3.296875 C 2.742188 -3.210938 2.894531 -3.144531 3 -3.09375 C 3.113281 -3.039062 3.253906 -2.957031 3.421875 -2.84375 C 3.585938 -2.738281 3.710938 -2.632812 3.796875 -2.53125 C 3.878906 -2.425781 3.953125 -2.289062 4.015625 -2.125 C 4.085938 -1.957031 4.125 -1.773438 4.125 -1.578125 Z M 4.125 -1.578125 "/></g></g></g><g fill="#a6a6a6" fill-opacity="1"><g transform="translate(218.903924, 109.725964)"><g><path d="M 4.125 -1.578125 C 4.125 -1.054688 3.941406 -0.648438 3.578125 -0.359375 C 3.222656 -0.078125 2.765625 0.0625 2.203125 0.0625 C 1.578125 0.0625 1.046875 -0.0625 0.609375 -0.3125 L 0.609375 -1.09375 C 1.035156 -0.757812 1.5625 -0.59375 2.1875 -0.59375 C 2.550781 -0.59375 2.835938 -0.675781 3.046875 -0.84375 C 3.265625 -1.007812 3.375 -1.25 3.375 -1.5625 C 3.375 -1.695312 3.347656 -1.8125 3.296875 -1.90625 C 3.253906 -2.007812 3.175781 -2.101562 3.0625 -2.1875 C 2.945312 -2.28125 2.835938 -2.351562 2.734375 -2.40625 C 2.628906 -2.46875 2.488281 -2.539062 2.3125 -2.625 C 2.269531 -2.632812 2.21875 -2.65625 2.15625 -2.6875 C 1.894531 -2.800781 1.695312 -2.890625 1.5625 -2.953125 C 1.4375 -3.023438 1.28125 -3.128906 1.09375 -3.265625 C 0.914062 -3.410156 0.785156 -3.570312 0.703125 -3.75 C 0.617188 -3.9375 0.578125 -4.148438 0.578125 -4.390625 C 0.578125 -4.898438 0.757812 -5.296875 1.125 -5.578125 C 1.488281 -5.867188 1.945312 -6.015625 2.5 -6.015625 C 3.007812 -6.015625 3.441406 -5.921875 3.796875 -5.734375 L 3.796875 -4.984375 C 3.441406 -5.222656 3.015625 -5.34375 2.515625 -5.34375 C 2.148438 -5.34375 1.859375 -5.257812 1.640625 -5.09375 C 1.429688 -4.925781 1.328125 -4.707031 1.328125 -4.4375 C 1.328125 -4.289062 1.351562 -4.160156 1.40625 -4.046875 C 1.46875 -3.929688 1.566406 -3.828125 1.703125 -3.734375 C 1.847656 -3.640625 1.972656 -3.566406 2.078125 -3.515625 C 2.179688 -3.460938 2.335938 -3.390625 2.546875 -3.296875 C 2.742188 -3.210938 2.894531 -3.144531 3 -3.09375 C 3.113281 -3.039062 3.253906 -2.957031 3.421875 -2.84375 C 3.585938 -2.738281 3.710938 -2.632812 3.796875 -2.53125 C 3.878906 -2.425781 3.953125 -2.289062 4.015625 -2.125 C 4.085938 -1.957031 4.125 -1.773438 4.125 -1.578125 Z M 4.125 -1.578125 "/></g></g></g></svg>