<svg xmlns="http://www.w3.org/2000/svg" xmlns:xlink="http://www.w3.org/1999/xlink" width="50" zoomAndPan="magnify" viewBox="0 0 37.5 37.499999" height="50" preserveAspectRatio="xMidYMid meet" version="1.0"><path fill="#fd9d2a" d="M 32.699219 18.339844 C 32.699219 25.421875 26.960938 31.164062 19.878906 31.164062 C 12.796875 31.164062 7.054688 25.421875 7.054688 18.339844 C 7.054688 11.257812 12.796875 5.519531 19.878906 5.519531 C 26.960938 5.519531 32.699219 11.257812 32.699219 18.339844 Z M 32.699219 18.339844 " fill-opacity="1" fill-rule="nonzero"/><path fill="#2b2018" d="M 20.394531 11.074219 C 20.550781 11.210938 20.371094 11.484375 20.078125 11.550781 C 19.613281 11.660156 18.933594 11.855469 18.226562 12.1875 C 17.496094 12.527344 16.894531 12.941406 16.515625 13.226562 C 16.296875 13.394531 15.988281 13.367188 15.980469 13.179688 C 15.949219 12.429688 16.628906 11.550781 17.695312 11.050781 C 18.742188 10.5625 19.835938 10.59375 20.394531 11.074219 Z M 20.394531 11.074219 " fill-opacity="1" fill-rule="nonzero"/><path fill="#2b2018" d="M 26.308594 11.074219 C 26.148438 11.210938 26.332031 11.484375 26.625 11.550781 C 27.085938 11.660156 27.769531 11.855469 28.476562 12.1875 C 29.207031 12.527344 29.808594 12.941406 30.1875 13.226562 C 30.40625 13.394531 30.710938 13.367188 30.722656 13.179688 C 30.753906 12.429688 30.074219 11.550781 29.007812 11.050781 C 27.960938 10.5625 26.867188 10.59375 26.308594 11.074219 Z M 26.308594 11.074219 " fill-opacity="1" fill-rule="nonzero"/><path fill="#211f17" d="M 18.207031 20.167969 C 18.972656 21.21875 20.160156 21.984375 21.382812 22.378906 C 22.496094 22.738281 23.722656 22.773438 24.859375 22.496094 C 25.78125 22.269531 26.621094 21.8125 27.359375 21.21875 C 27.734375 20.914062 28.085938 20.566406 28.363281 20.167969 C 28.578125 19.871094 28.429688 19.378906 28.113281 19.214844 C 27.753906 19.023438 27.382812 19.144531 27.15625 19.464844 C 27.085938 19.566406 27.199219 19.410156 27.21875 19.386719 C 27.175781 19.4375 27.132812 19.492188 27.085938 19.546875 C 26.933594 19.722656 26.761719 19.890625 26.585938 20.046875 C 26.53125 20.09375 26.476562 20.140625 26.421875 20.1875 C 26.390625 20.210938 26.363281 20.234375 26.332031 20.261719 C 26.25 20.328125 26.390625 20.214844 26.394531 20.210938 C 26.371094 20.226562 26.347656 20.246094 26.324219 20.265625 C 26.179688 20.371094 26.03125 20.472656 25.878906 20.5625 C 25.707031 20.671875 25.527344 20.765625 25.34375 20.855469 C 25.304688 20.871094 25.214844 20.894531 25.1875 20.925781 C 25.183594 20.925781 25.324219 20.871094 25.253906 20.898438 C 25.230469 20.90625 25.210938 20.914062 25.191406 20.921875 C 25.078125 20.964844 24.964844 21.007812 24.847656 21.042969 C 24.621094 21.117188 24.386719 21.175781 24.152344 21.21875 C 24.09375 21.230469 24.035156 21.238281 23.976562 21.246094 C 23.898438 21.261719 24.03125 21.238281 24.035156 21.238281 C 24.011719 21.234375 23.960938 21.25 23.933594 21.25 C 23.789062 21.265625 23.648438 21.277344 23.507812 21.28125 C 23.242188 21.289062 22.976562 21.277344 22.714844 21.25 C 22.53125 21.226562 22.792969 21.261719 22.664062 21.242188 C 22.597656 21.234375 22.53125 21.222656 22.464844 21.210938 C 22.339844 21.1875 22.21875 21.160156 22.101562 21.128906 C 21.871094 21.074219 21.648438 21 21.429688 20.914062 C 21.410156 20.90625 21.390625 20.898438 21.367188 20.890625 C 21.300781 20.863281 21.335938 20.84375 21.414062 20.910156 C 21.382812 20.882812 21.3125 20.867188 21.273438 20.847656 C 21.179688 20.804688 21.082031 20.757812 20.992188 20.707031 C 20.816406 20.617188 20.648438 20.515625 20.484375 20.40625 C 20.414062 20.359375 20.34375 20.3125 20.273438 20.261719 C 20.238281 20.234375 20.199219 20.207031 20.164062 20.179688 C 20.085938 20.125 20.300781 20.292969 20.171875 20.1875 C 19.949219 20.003906 19.734375 19.808594 19.535156 19.597656 C 19.476562 19.53125 19.421875 19.46875 19.367188 19.402344 C 19.257812 19.269531 19.464844 19.535156 19.414062 19.464844 C 19.199219 19.167969 18.796875 18.996094 18.457031 19.214844 C 18.164062 19.402344 17.976562 19.851562 18.207031 20.167969 Z M 18.207031 20.167969 " fill-opacity="1" fill-rule="nonzero"/><path fill="#211f17" d="M 29.355469 20.121094 C 29.382812 20.257812 29.179688 20.332031 28.996094 20.25 C 28.710938 20.125 28.269531 19.957031 27.765625 19.851562 C 27.242188 19.742188 26.761719 19.722656 26.445312 19.726562 C 26.265625 19.726562 26.113281 19.589844 26.183594 19.488281 C 26.460938 19.078125 27.171875 18.882812 27.933594 19.039062 C 28.683594 19.195312 29.246094 19.644531 29.355469 20.121094 Z M 29.355469 20.121094 " fill-opacity="1" fill-rule="nonzero"/><path fill="#211f17" d="M 17.214844 20.121094 C 17.1875 20.257812 17.390625 20.332031 17.574219 20.25 C 17.863281 20.125 18.300781 19.957031 18.804688 19.851562 C 19.328125 19.742188 19.808594 19.722656 20.125 19.726562 C 20.308594 19.726562 20.457031 19.589844 20.386719 19.488281 C 20.109375 19.078125 19.398438 18.882812 18.636719 19.039062 C 17.890625 19.195312 17.324219 19.644531 17.214844 20.121094 Z M 17.214844 20.121094 " fill-opacity="1" fill-rule="nonzero"/><path fill="#211f17" d="M 20.585938 15.980469 C 20.585938 17.019531 19.742188 17.863281 18.703125 17.863281 C 17.664062 17.863281 16.820312 17.019531 16.820312 15.980469 C 16.820312 14.941406 17.664062 14.097656 18.703125 14.097656 C 19.742188 14.097656 20.585938 14.941406 20.585938 15.980469 Z M 20.585938 15.980469 " fill-opacity="1" fill-rule="nonzero"/><path fill="#fdf6f6" d="M 18.703125 15.117188 C 18.703125 15.449219 18.433594 15.714844 18.105469 15.714844 C 17.773438 15.714844 17.507812 15.449219 17.507812 15.117188 C 17.507812 14.789062 17.773438 14.519531 18.105469 14.519531 C 18.433594 14.519531 18.703125 14.789062 18.703125 15.117188 Z M 18.703125 15.117188 " fill-opacity="1" fill-rule="nonzero"/><path fill="#211f17" d="M 29.773438 15.980469 C 29.773438 17.019531 28.929688 17.863281 27.890625 17.863281 C 26.851562 17.863281 26.007812 17.019531 26.007812 15.980469 C 26.007812 14.941406 26.851562 14.097656 27.890625 14.097656 C 28.929688 14.097656 29.773438 14.941406 29.773438 15.980469 Z M 29.773438 15.980469 " fill-opacity="1" fill-rule="nonzero"/><path fill="#fdf6f6" d="M 27.890625 15.117188 C 27.890625 15.449219 27.621094 15.714844 27.292969 15.714844 C 26.960938 15.714844 26.695312 15.449219 26.695312 15.117188 C 26.695312 14.789062 26.960938 14.519531 27.292969 14.519531 C 27.621094 14.519531 27.890625 14.789062 27.890625 15.117188 Z M 27.890625 15.117188 " fill-opacity="1" fill-rule="nonzero"/><path fill="#f7cd91" d="M 18.65625 24.171875 C 18.832031 23.902344 18.949219 23.597656 18.984375 23.273438 C 19.140625 21.84375 16.222656 20.808594 14.339844 20.597656 C 14.019531 20.5625 13.75 20.554688 13.519531 20.570312 C 11.21875 20.375 10.175781 20.546875 9.5625 19.585938 C 7.054688 19.871094 6.421875 21.734375 5.183594 26.148438 C 4.257812 29.433594 8.210938 30.867188 12.425781 31.996094 C 12.691406 32.101562 12.976562 32.175781 13.273438 32.207031 C 14.675781 32.363281 15.941406 31.613281 16.347656 30.46875 C 17.222656 30.105469 17.863281 29.351562 17.964844 28.425781 C 17.992188 28.183594 17.980469 27.945312 17.933594 27.714844 C 18.503906 27.371094 18.929688 26.839844 19.082031 26.179688 C 19.25 25.472656 19.074219 24.753906 18.65625 24.171875 Z M 18.65625 24.171875 " fill-opacity="1" fill-rule="nonzero"/><path fill="#f7cd91" d="M 6.980469 21.710938 C 6.902344 21.582031 6.882812 21.429688 6.917969 21.285156 C 7.128906 20.460938 7.859375 17.355469 7.441406 15.671875 C 6.957031 13.71875 10.386719 12.960938 11.289062 15.429688 C 12.191406 17.902344 10.433594 21.804688 10.433594 21.804688 C 10.433594 21.804688 7.988281 23.382812 6.980469 21.710938 Z M 6.980469 21.710938 " fill-opacity="1" fill-rule="nonzero"/></svg>