<svg xmlns="http://www.w3.org/2000/svg" xmlns:xlink="http://www.w3.org/1999/xlink" width="816" zoomAndPan="magnify" viewBox="0 0 612 791.999994" height="1056" preserveAspectRatio="xMidYMid meet" version="1.0"><defs><clipPath id="6b575ef1ee"><path d="M 132 147.519531 L 175 147.519531 L 175 202 L 132 202 Z M 132 147.519531 " clip-rule="nonzero"/></clipPath></defs><path fill="#fa9a2d" d="M 557.597656 284.652344 C 555.894531 293.117188 554.21875 301.582031 552.472656 310.035156 C 549.105469 326.351562 545.707031 342.65625 542.328125 358.972656 C 542.152344 359.800781 542.113281 360.664062 542.011719 361.511719 C 540.203125 361.242188 540.589844 359.6875 540.402344 358.578125 C 539.5625 353.625 539.070312 348.613281 538.328125 343.648438 C 538.078125 341.964844 537.878906 340.234375 536.835938 338.792969 C 535.03125 336.308594 532.5 336.417969 530.878906 339.011719 C 529.636719 340.992188 529.824219 343.101562 530.304688 345.21875 C 532.203125 353.5625 534.234375 361.875 536.230469 370.191406 C 536.660156 371.984375 537.605469 373.882812 536.203125 375.710938 C 535.167969 376.40625 533.960938 376.585938 532.808594 376.417969 C 524.148438 375.1875 515.792969 377.503906 507.351562 378.597656 C 496.21875 380.039062 485.144531 381.957031 473.992188 383.28125 C 470.121094 383.746094 466.652344 384.222656 465.699219 388.789062 C 465.5 388.886719 465.160156 388.941406 465.140625 388.859375 C 464.21875 384.949219 460.890625 385.664062 458.164062 385.226562 C 455.816406 384.640625 453.476562 385.328125 451.128906 385.296875 C 449.042969 385.636719 446.980469 385.519531 444.925781 385.0625 C 439.757812 383.527344 434.382812 383.570312 429.089844 383.03125 C 416.570312 381.746094 404.007812 380.984375 391.449219 380.335938 C 390.480469 380.285156 389.527344 380.1875 388.648438 379.742188 C 387.679688 379.183594 387.222656 378.339844 387.238281 377.234375 C 387.527344 375.234375 387.894531 373.234375 388.171875 371.226562 C 388.703125 367.316406 389.875 366.175781 393.84375 366.523438 C 398.851562 366.957031 403.863281 367.386719 408.859375 367.964844 C 410.351562 368.140625 411.84375 368.195312 413.332031 368.359375 C 421.78125 369.605469 430.3125 369.894531 438.832031 370.234375 C 443.464844 370.421875 445.070312 369.128906 446.628906 364.679688 C 448.359375 359.730469 448.984375 354.480469 450.554688 349.488281 C 452.460938 340.289062 454.90625 331.207031 456.792969 322 C 456.941406 321.273438 457.011719 320.535156 457.121094 319.800781 C 457.207031 319.292969 457.398438 318.824219 457.578125 318.355469 C 459.996094 310.828125 462.332031 303.269531 466.046875 296.238281 C 466.59375 294.746094 467.347656 293.382812 468.539062 292.300781 C 471.492188 290.777344 473.386719 287.824219 476.4375 286.421875 C 481.949219 283.519531 487.84375 283.886719 493.703125 284.625 C 498.792969 285.269531 503.863281 286.15625 508.898438 287.136719 C 516.269531 288.570312 521.78125 286.324219 525.753906 279.789062 C 528.753906 274.847656 531.324219 269.675781 534.199219 264.675781 C 534.65625 263.886719 535.390625 262.910156 534.652344 262.027344 C 533.957031 261.203125 532.847656 261.640625 531.910156 261.757812 C 529.152344 262.109375 526.378906 262.425781 523.648438 262.925781 C 510.308594 265.367188 497.5 262.984375 484.796875 258.992188 C 480.734375 257.71875 479.292969 255.023438 478.957031 251.21875 C 478.480469 247.519531 479.144531 243.835938 478.867188 240.089844 C 478.472656 234.789062 477.605469 229.757812 475.132812 225.042969 C 474.785156 224.386719 474.539062 223.671875 474.421875 222.925781 C 474.46875 221.429688 473.84375 219.769531 475.414062 218.625 C 491.691406 218.675781 507.96875 218.246094 524.238281 219.105469 C 532.734375 219.554688 540.414062 222.066406 546.503906 228.351562 C 548.160156 230.054688 549.96875 231.921875 550.402344 234.152344 C 551.226562 238.425781 553.773438 238.957031 557.308594 238.359375 C 557.933594 238.257812 558.589844 238.320312 559.234375 238.316406 C 566.753906 238.199219 566.679688 238.1875 565.144531 245.65625 C 562.472656 258.625 559.710938 271.574219 557.597656 284.652344 Z M 557.597656 284.652344 " fill-opacity="1" fill-rule="nonzero"/><path fill="#fcf1de" d="M 475.105469 223.0625 C 480.207031 230.15625 480.117188 238.371094 480.152344 246.554688 C 480.160156 248.136719 480.039062 249.726562 479.980469 251.316406 C 480.308594 253.613281 479.863281 255.910156 480.019531 258.207031 C 477.976562 264.585938 477.1875 271.277344 475.203125 277.683594 C 473.972656 281.660156 472.542969 285.550781 471.101562 289.445312 C 470.652344 290.667969 470.046875 291.765625 468.945312 292.539062 C 468.269531 293.761719 467.597656 294.976562 466.921875 296.199219 C 466.425781 296.707031 465.777344 296.847656 465.164062 296.628906 C 458.070312 294.132812 451.101562 296.367188 444.117188 297.265625 C 442.179688 297.519531 440.335938 297.632812 438.476562 297.003906 C 434.921875 294.140625 434.605469 290.378906 435.519531 286.285156 C 439.671875 283.53125 444.4375 282.863281 449.230469 282.734375 C 451.554688 282.671875 453.402344 285.707031 453.621094 288.839844 C 453.644531 289.175781 453.921875 289.007812 454.039062 288.992188 C 454.558594 288.929688 455.191406 288.882812 454.851562 288.066406 C 454.339844 286.851562 453.476562 285.886719 452.507812 285.042969 C 451.101562 283.828125 450.894531 282.464844 452.160156 281.152344 C 455.957031 277.195312 456.34375 272.109375 456.789062 267.109375 C 457.050781 264.128906 457.316406 261.144531 457.578125 258.160156 C 457.417969 254.039062 458.714844 250.066406 458.894531 246.601562 C 458.835938 245.550781 458.121094 245.964844 458.550781 245.914062 C 458.714844 245.894531 458.796875 245.925781 458.796875 246.003906 C 458.894531 249.199219 458.140625 252.203125 456.820312 255.09375 C 455.707031 257.402344 455.269531 260.136719 452.777344 261.589844 C 448.835938 263.109375 444.605469 263.171875 440.53125 263.988281 C 437.484375 264.601562 434.425781 265.128906 431.585938 266.460938 C 428.515625 267.898438 426.859375 270.074219 426.875 273.722656 C 426.894531 277.734375 427.679688 281.851562 426.054688 285.777344 C 425.902344 286.117188 425.683594 286.402344 425.390625 286.640625 C 424.523438 287.007812 423.988281 286.574219 423.542969 285.894531 C 423.414062 285.539062 423.371094 285.167969 423.402344 284.792969 C 423.449219 279.121094 424.1875 273.425781 422.90625 267.796875 C 420.851562 263.738281 420.75 259.402344 421.109375 255.007812 C 423.160156 246.933594 422.40625 238.644531 422.667969 230.433594 C 422.429688 238.296875 423.125 246.222656 421.285156 253.964844 C 420.769531 256.160156 420.757812 258.4375 421.066406 260.597656 C 421.394531 262.894531 420.59375 264.554688 419.167969 266.042969 C 416.28125 269.046875 413.808594 272.320312 411.921875 276.039062 C 411.34375 277.175781 410.488281 278.136719 409.289062 278.714844 C 407.363281 279.390625 405.992188 278.238281 404.648438 277.203125 C 401.917969 275.105469 399.03125 273.277344 395.882812 271.902344 C 394.96875 271.503906 394.09375 270.722656 392.753906 271.25 C 393.804688 273.144531 395.574219 274.199219 397.011719 275.5625 C 397.78125 276.296875 398.664062 277.113281 398.1875 278.316406 C 397.667969 279.648438 396.417969 279.679688 395.203125 279.640625 C 394.769531 279.628906 395.3125 279.632812 394.878906 279.609375 C 386.761719 279.152344 384.488281 274.578125 388.484375 266.734375 C 388.96875 265.757812 389.824219 265.230469 390.835938 265.449219 C 394.539062 266.261719 396.277344 263.820312 397.929688 261.273438 C 403.148438 253.238281 408.652344 245.410156 414.421875 237.761719 C 416.785156 234.628906 417.414062 230.757812 418.085938 226.980469 C 420.015625 216.109375 426.121094 214.527344 434.730469 213.617188 C 435.449219 213.542969 435.828125 214.171875 436.144531 214.746094 C 437.277344 215.960938 436.601562 217.382812 436.542969 218.707031 C 436.234375 225.441406 440.316406 228.71875 446.738281 226.535156 C 451.902344 224.785156 455.121094 220.925781 456.878906 215.820312 C 457.359375 214.417969 457.375 212.871094 458.230469 211.585938 C 459.152344 210.769531 460.078125 211.226562 460.894531 211.695312 C 464.792969 213.925781 468.75 216.070312 472.234375 218.9375 C 473.574219 220.027344 474.726562 221.28125 475.105469 223.0625 Z M 475.105469 223.0625 " fill-opacity="1" fill-rule="nonzero"/><path fill="#161111" d="M 475.105469 223.0625 C 470.554688 217.839844 464.371094 214.910156 458.605469 211.414062 C 456.941406 211.175781 456.433594 209.816406 455.886719 208.542969 C 455.125 206.769531 454.644531 204.894531 454.171875 203.03125 C 453.367188 199.859375 452.925781 196.660156 449.945312 194.363281 C 448.121094 192.960938 447.722656 190.28125 446.722656 188.152344 C 445.257812 185.019531 442.609375 182.398438 442.808594 178.535156 C 442.855469 177.660156 442.0625 176.808594 440.917969 176.46875 C 441.484375 178.039062 442.539062 179.265625 442.945312 180.804688 C 443.425781 182.644531 442.957031 184.046875 441.109375 184.664062 C 439.042969 185.351562 438.847656 183.78125 438.578125 182.359375 C 438.308594 180.925781 437.347656 180.140625 435.996094 179.8125 C 431.03125 178.589844 427.277344 175.347656 423.480469 172.222656 C 421.058594 170.230469 419.828125 167.757812 421.183594 164.566406 C 424.039062 157.8125 430.28125 156.859375 436.339844 156.320312 C 448.972656 155.195312 457.773438 162.535156 459.777344 175.304688 C 459.921875 176.238281 459.433594 177.246094 461.242188 177.460938 C 468.578125 178.316406 472.164062 181.898438 473.289062 189.339844 C 473.875 193.207031 473.992188 196.976562 477.347656 200.011719 C 479.691406 202.136719 479.226562 205.5 478.261719 208.492188 C 477.179688 211.832031 475.8125 215.085938 475.433594 218.625 C 475.3125 220.101562 475.210938 221.582031 475.105469 223.0625 Z M 475.105469 223.0625 " fill-opacity="1" fill-rule="nonzero"/><path fill="#b6795b" d="M 421.175781 164.566406 C 420.839844 167.46875 421.863281 169.867188 424.15625 171.59375 C 428.046875 174.519531 431.605469 177.941406 436.742188 178.894531 C 439.359375 179.375 440.683594 181.28125 439.222656 184.183594 C 443.574219 183.183594 443.425781 181.957031 438.375 175.292969 C 441.992188 174.460938 444.617188 176.675781 444.15625 180.265625 C 444.046875 181.113281 443.628906 181.886719 444.398438 182.625 C 447.046875 185.160156 448.019531 188.609375 449.390625 191.835938 C 450.058594 193.417969 450.605469 195.058594 452.671875 195.382812 C 454.117188 195.605469 453.917969 196.878906 454.128906 197.890625 C 455.101562 202.566406 455.660156 207.386719 458.605469 211.414062 C 458.164062 218.867188 454.84375 224.457031 447.78125 227.296875 C 439.875 230.472656 434.582031 226.304688 435.570312 217.871094 C 435.695312 216.816406 435.957031 215.78125 436.152344 214.738281 C 437.691406 210.582031 435.417969 207.109375 434.089844 203.488281 C 433.730469 202.503906 432.878906 202.894531 432.167969 203.121094 C 430.847656 203.53125 429.546875 204.117188 428.1875 204.308594 C 423.929688 204.914062 423.273438 204.375 421.992188 200.316406 C 421.136719 197.605469 420.101562 194.957031 419.070312 192.304688 C 418.894531 191.863281 418.398438 191.308594 417.96875 191.230469 C 414.5 190.589844 415.578125 188.703125 416.738281 186.84375 C 418.070312 184.714844 419.023438 182.496094 418.855469 179.917969 C 419.25 179.738281 419.566406 180.15625 419.953125 180.050781 C 419.527344 179.832031 419.171875 179.480469 418.695312 179.34375 C 416.875 177.710938 417.441406 175.640625 417.769531 173.691406 C 418.316406 170.441406 419.242188 167.308594 421.175781 164.566406 Z M 421.175781 164.566406 " fill-opacity="1" fill-rule="nonzero"/><path fill="#b47457" d="M 423.949219 285.945312 C 424.34375 286.132812 424.730469 286.324219 425.121094 286.511719 C 428.703125 285.558594 432.277344 284.425781 435.972656 286.007812 C 436.285156 289.585938 435.925781 293.335938 438.558594 296.335938 C 438.207031 298.167969 436.726562 297.808594 435.570312 297.703125 C 432.390625 297.425781 429.199219 297.355469 426.050781 296.824219 C 424.890625 296.476562 424.207031 298.175781 422.976562 297.554688 C 421.730469 296.082031 420.066406 295.476562 418.199219 295.324219 C 413.074219 294.894531 408.914062 292.558594 405.308594 288.980469 C 402.851562 286.535156 399.683594 285.128906 396.496094 283.949219 C 391.113281 281.960938 385.582031 280.40625 380.160156 278.507812 C 378.640625 278.046875 377.171875 277.441406 375.632812 277.027344 C 374.460938 276.480469 373.285156 275.972656 372.015625 275.683594 C 366.933594 273.476562 361.65625 271.761719 356.773438 269.097656 C 355.042969 268.152344 353.214844 267.667969 351.230469 268.042969 C 347.046875 268.832031 342.949219 268.375 338.902344 267.207031 C 335.398438 266.351562 331.945312 265.3125 328.46875 264.34375 C 324.445312 263.222656 321.585938 261.070312 321.53125 256.460938 C 323.796875 253.464844 327.203125 255.09375 330.027344 254.359375 C 333.246094 253.792969 336.53125 254.636719 339.746094 253.902344 C 343.144531 253.574219 343.644531 252.617188 341.835938 249.863281 C 341.15625 248.820312 340.441406 247.796875 339.738281 246.769531 C 338.894531 245.847656 339.429688 245.203125 340.214844 244.710938 C 340.9375 244.253906 341.636719 244.515625 342.300781 244.953125 C 343.214844 245.558594 343.273438 246.542969 343.464844 247.476562 C 352.667969 255.175781 361.558594 263.421875 374.351562 264.683594 C 379.058594 265.371094 383.765625 266.054688 388.472656 266.742188 C 388.480469 269.507812 388.71875 272.289062 387.945312 275.003906 C 387.410156 276.878906 388.152344 277.730469 390.0625 277.921875 C 392.070312 278.121094 394.054688 278.539062 396.058594 278.816406 C 396.675781 278.902344 397.453125 278.976562 397.730469 278.257812 C 398.019531 277.523438 397.300781 277.136719 396.851562 276.753906 C 394.371094 274.640625 391.761719 272.652344 390.210938 269.617188 C 391.871094 268.71875 392.992188 269.546875 394.140625 270.003906 C 398.632812 271.773438 402.683594 274.3125 406.488281 277.253906 C 407.261719 277.851562 407.890625 278.585938 409 278.230469 C 412.359375 281.539062 416.457031 283.410156 421.035156 284.296875 C 422.230469 284.503906 423.320312 284.800781 423.949219 285.945312 Z M 423.949219 285.945312 " fill-opacity="1" fill-rule="nonzero"/><path fill="#603a2a" d="M 418.695312 179.335938 C 419.042969 178.855469 419.460938 179.023438 419.746094 179.335938 C 420.492188 180.15625 421.980469 179.0625 422.457031 180.40625 C 422.527344 180.597656 422.296875 181.101562 422.132812 181.132812 C 420.808594 181.402344 419.707031 180.972656 418.855469 179.917969 C 418.785156 179.722656 418.726562 179.535156 418.695312 179.335938 Z M 418.695312 179.335938 " fill-opacity="1" fill-rule="nonzero"/><path fill="#d09565" d="M 549.394531 414.449219 C 554.078125 414 558.726562 414.585938 563.335938 415.183594 C 570.089844 416.050781 576.941406 416.496094 583.417969 418.90625 C 585.75 419.769531 587.933594 420.875 589.933594 422.316406 C 593.121094 424.605469 593.03125 427.503906 589.832031 429.875 C 582.871094 435.046875 574.648438 437.25 566.496094 439.378906 C 551.21875 443.371094 535.625 445.792969 519.984375 447.960938 C 507.320312 449.714844 494.597656 450.90625 481.898438 452.277344 C 472.683594 453.273438 463.402344 453.644531 454.15625 454.328125 C 442.996094 455.152344 431.835938 456.039062 420.679688 456.832031 C 415.992188 457.164062 411.285156 457.15625 406.597656 457.339844 C 399.765625 457.601562 392.933594 458 386.101562 458.289062 C 376.585938 458.6875 367.0625 458.523438 357.558594 458.871094 C 320.9375 460.195312 284.308594 459.273438 247.683594 459.320312 C 238.722656 459.332031 229.714844 459.191406 220.75 458.722656 C 210.617188 458.1875 200.476562 457.96875 190.347656 457.480469 C 176.285156 456.804688 162.230469 455.9375 148.191406 454.886719 C 136.617188 454.023438 125.039062 453.015625 113.511719 451.671875 C 93.078125 449.277344 72.621094 446.832031 52.878906 440.652344 C 47.503906 438.964844 42.035156 437.15625 38.042969 432.75 C 36.628906 431.1875 36.761719 426.839844 38.519531 425.957031 C 42.894531 423.757812 47.40625 421.839844 52.269531 420.921875 C 53.582031 421.507812 54.933594 421.589844 56.332031 421.261719 C 57.914062 421.019531 59.484375 421.003906 61.039062 421.429688 C 71.5 426.445312 82.234375 430.65625 93.792969 432.390625 C 106.597656 434.316406 119.5 435.589844 132.269531 437.738281 C 149.25 440.59375 166.34375 440.523438 183.464844 441.03125 C 209.59375 441.800781 235.714844 441.242188 261.835938 441.539062 C 262.691406 441.550781 263.546875 441.566406 264.390625 441.75 C 266.394531 441.886719 268.390625 441.789062 270.394531 441.816406 C 282.027344 441.199219 293.675781 441.566406 305.316406 441.511719 C 318.019531 441.457031 330.710938 440.710938 343.40625 440.566406 C 343.839844 440.5625 344.257812 440.625 344.652344 440.785156 C 344.964844 442.566406 346.246094 442.304688 347.527344 442.175781 C 352.789062 441.648438 358.042969 441.0625 363.316406 440.632812 C 366.53125 442.144531 369.859375 442.277344 373.308594 441.636719 C 374.769531 441.367188 375.601562 440.742188 375.878906 439.253906 C 376.214844 437.472656 376.636719 435.710938 376.546875 433.871094 C 376.496094 432.804688 376.507812 431.730469 376.84375 430.699219 C 377.191406 429.625 377.796875 428.582031 378.988281 428.613281 C 380.449219 428.652344 380.316406 430 380.4375 431.035156 C 380.628906 432.648438 379.632812 434.101562 379.820312 435.722656 C 379.933594 436.726562 379.5625 437.957031 381.101562 438.21875 C 389.703125 437.53125 397.839844 434.796875 406.128906 432.730469 C 407.171875 432.46875 408.175781 431.992188 408.15625 430.617188 C 408.117188 428.230469 409.847656 427.636719 411.691406 427.199219 C 413.050781 426.878906 414.464844 426.691406 415.832031 426.871094 C 424.265625 427.984375 432.6875 426.429688 441.109375 426.851562 C 446.441406 427.117188 451.792969 427.320312 456.917969 429.109375 C 458.03125 429.496094 459.144531 429.855469 460.15625 430.46875 C 461.609375 431.296875 461.398438 434.390625 464.1875 433.433594 C 471.144531 431.59375 478.304688 430.867188 485.351562 429.484375 C 495.863281 427.417969 506.359375 425.28125 516.707031 422.472656 C 520.214844 421.519531 523.171875 419.648438 526.023438 417.5625 C 528.019531 416.101562 527.882812 415.371094 525.667969 414.132812 C 523.671875 413.023438 521.585938 412.371094 519.242188 412.398438 C 515.496094 412.4375 511.734375 412.617188 508 412.261719 C 507.023438 412.171875 504.738281 412.527344 506.042969 410.070312 C 507.320312 409.367188 508.722656 409.386719 510.105469 409.386719 C 519.816406 409.367188 529.53125 409.367188 539.242188 409.386719 C 540.734375 409.394531 542.238281 409.417969 543.628906 410.0625 C 545.351562 410.871094 545.757812 412.527344 546.253906 414.152344 C 546.890625 416.238281 546.890625 418.515625 548.128906 420.695312 C 549.699219 418.65625 547.296875 416.078125 549.394531 414.449219 Z M 549.394531 414.449219 " fill-opacity="1" fill-rule="nonzero"/><path fill="#1b1616" d="M 55.351562 422.15625 C 53.761719 423.132812 52.71875 422.753906 52.261719 420.921875 C 52.636719 418.347656 53.007812 415.78125 53.382812 413.207031 C 56.226562 395.851562 58.824219 378.464844 61.070312 361.015625 C 60.488281 354.003906 62.222656 347.25 63.375 340.4375 C 63.664062 338.726562 64.609375 337.265625 65.96875 336.121094 C 68.582031 333.921875 71.675781 334.222656 73.835938 336.933594 C 76.050781 339.707031 76.019531 342.800781 75.183594 346.054688 C 72.683594 355.773438 70.308594 365.519531 67.925781 375.265625 C 64.894531 386.75 62.523438 398.394531 59.523438 409.882812 C 58.519531 412.589844 58.402344 415.519531 57.546875 418.265625 C 56.949219 419.640625 56.871094 421.308594 55.351562 422.15625 Z M 55.351562 422.15625 " fill-opacity="1" fill-rule="nonzero"/><path fill="#1a1615" d="M 549.394531 414.449219 C 549.570312 416.46875 549.75 418.484375 549.925781 420.503906 C 550.015625 421.566406 549.789062 422.476562 548.546875 422.625 C 547.417969 422.761719 547.128906 421.800781 546.847656 421.023438 C 545.699219 417.832031 545.707031 414.320312 544.140625 411.246094 C 543.132812 409.945312 542.667969 408.429688 542.328125 406.851562 C 540.355469 397.78125 538.0625 388.789062 536.164062 379.707031 C 535.863281 378.277344 535.222656 376.816406 536.175781 375.375 C 533.800781 365.207031 531.417969 355.035156 529.070312 344.851562 C 528.832031 343.820312 528.683594 342.742188 528.722656 341.691406 C 528.832031 338.425781 531.066406 335.753906 533.738281 335.550781 C 536.210938 335.363281 538.375 337.28125 538.921875 340.675781 C 539.925781 346.890625 540.683594 353.136719 541.566406 359.371094 C 541.667969 360.089844 541.863281 360.804688 542.015625 361.511719 C 543.898438 375.355469 545.769531 389.207031 547.65625 403.058594 C 548.003906 405.589844 548.378906 408.125 548.738281 410.660156 C 548.957031 411.929688 549.175781 413.1875 549.394531 414.449219 Z M 549.394531 414.449219 " fill-opacity="1" fill-rule="nonzero"/><path fill="#ed802d" d="M 67.011719 375.296875 C 68.78125 364.96875 71.9375 354.957031 74.203125 344.742188 C 74.4375 343.707031 74.707031 342.644531 74.679688 341.601562 C 74.617188 338.578125 72.421875 335.910156 69.863281 335.5625 C 67.488281 335.242188 65.054688 337.265625 64.46875 340.476562 C 63.234375 347.300781 62.183594 354.167969 61.058594 361.015625 C 58.53125 348.464844 55.9375 335.933594 53.496094 323.371094 C 48.238281 296.230469 43.105469 269.066406 37.78125 241.9375 C 37.195312 238.945312 37.882812 237.949219 40.792969 238.335938 C 41.007812 238.359375 41.226562 238.316406 41.4375 238.339844 C 47.476562 239.011719 52.003906 238.558594 54.945312 231.355469 C 57.925781 224.058594 65.699219 221.140625 73.296875 219.902344 C 86.457031 217.761719 99.785156 218.804688 113.042969 218.625 C 113.410156 218.617188 113.785156 218.964844 114.15625 219.152344 C 114.382812 219.941406 114.144531 220.683594 113.695312 221.273438 C 109.097656 227.390625 107.453125 234.550781 106.359375 241.90625 C 105.066406 246.625 103.628906 247.675781 98.394531 247.886719 C 87.765625 248.324219 77.21875 247.714844 66.761719 245.667969 C 65.015625 245.328125 62.601562 244.421875 61.566406 245.757812 C 60.386719 247.28125 62.472656 248.980469 63.265625 250.519531 C 66.347656 256.519531 69.003906 262.722656 72.085938 268.71875 C 74.199219 273.015625 76.523438 277.195312 79.207031 281.171875 C 82.664062 286.285156 87.210938 288.523438 93.460938 287.078125 C 95.8125 286.53125 98.214844 285.824219 100.714844 286.214844 C 101.503906 286.53125 102.289062 286.988281 103.179688 286.808594 C 112.386719 284.933594 117.957031 290.171875 122.574219 296.917969 C 126.300781 302.367188 128.4375 308.601562 130.117188 314.917969 C 135.417969 334.886719 140.382812 354.9375 143.898438 375.3125 C 144.453125 378.507812 144.257812 382.1875 148.902344 382.621094 C 149.304688 382.65625 149.449219 383.21875 149.410156 383.679688 C 147.554688 385.289062 145.003906 384.585938 142.984375 385.644531 C 140.5625 386.253906 138.320312 385.636719 136.132812 384.652344 C 135.773438 384.582031 135.410156 384.503906 135.042969 384.445312 C 116.609375 382.015625 98.226562 379.28125 79.8125 376.71875 C 76.941406 376.320312 74.050781 376.585938 71.164062 376.46875 C 69.703125 376.425781 68.140625 376.617188 67.011719 375.296875 Z M 67.011719 375.296875 " fill-opacity="1" fill-rule="nonzero"/><path fill="#fcf0db" d="M 105.523438 241.660156 C 106.300781 233.347656 108.582031 225.617188 114.167969 219.152344 C 119.460938 213.472656 125.613281 208.9375 132.46875 205.3125 C 135.410156 203.757812 137.769531 201.390625 140.277344 199.246094 C 141.882812 199.589844 142.28125 201.03125 142.933594 202.207031 C 146.886719 209.339844 151.199219 211.542969 159.410156 210.550781 C 159.949219 210.484375 160.464844 210.484375 160.941406 210.792969 C 162.214844 209.257812 161.03125 207.269531 161.917969 205.238281 C 169.296875 210.976562 178.105469 214.757812 181.984375 223.996094 C 184.203125 229.289062 184.609375 234.957031 185.242188 240.527344 C 186.246094 249.359375 188.777344 257.574219 193.480469 265.132812 C 194.074219 266.085938 195.511719 267.019531 194.945312 268.136719 C 194.351562 269.308594 192.8125 268.390625 191.710938 268.5625 C 191.292969 268.628906 190.863281 268.609375 190.429688 268.628906 C 189.914062 269.386719 189.078125 269.65625 188.304688 270.015625 C 186.40625 271.046875 186.394531 273.128906 185.613281 274.785156 C 185.074219 275.933594 185.207031 277.574219 183.417969 277.84375 C 182.054688 277.570312 181.253906 276.546875 180.449219 275.550781 C 179.3125 274.132812 178.46875 272.472656 177.222656 271.179688 C 172.703125 266.484375 171.609375 260.984375 172.742188 254.746094 C 173.296875 251.707031 173.160156 248.59375 173.097656 245.917969 C 173.46875 252.101562 171.796875 258.648438 172.652344 265.261719 C 172.292969 272.757812 172.53125 280.246094 172.375 287.738281 C 172.054688 289.199219 172.125 290.6875 172.085938 292.164062 C 172.035156 294.3125 170.816406 295.265625 168.816406 295.125 C 166.078125 294.929688 163.296875 294.964844 160.671875 293.984375 C 156.332031 292.578125 151.976562 291.195312 147.5625 290.015625 C 146.335938 289.6875 145.050781 289.417969 144.378906 288.132812 C 143.9375 284.511719 142.859375 281.050781 141.632812 277.640625 C 139.015625 270.410156 137.953125 262.742188 135.40625 255.492188 C 134.972656 254.257812 135.210938 252.949219 135.160156 251.683594 C 135.386719 248.402344 135.28125 245.03125 137.402344 242.117188 C 135.359375 243.769531 136.140625 246.277344 135.347656 248.273438 C 134.992188 249.746094 135.222656 251.246094 135.160156 252.730469 C 135.019531 254.140625 135.460938 255.53125 135.320312 256.9375 C 134.675781 258.597656 134.792969 260.316406 134.941406 262.027344 C 135.0625 265.859375 134.105469 269.617188 134.148438 273.464844 C 134.234375 281.320312 134.164062 281.320312 126.796875 283.460938 C 128.902344 282.863281 130.976562 281.996094 133.230469 282.742188 C 134.347656 283.3125 135.539062 283.835938 135.210938 285.460938 C 131.851562 287.058594 128.160156 287.546875 124.644531 288.640625 C 119.945312 286.460938 114.652344 287.058594 109.8125 285.5 C 108.734375 284.214844 108.542969 282.605469 108.226562 281.054688 C 106.746094 273.773438 105.921875 266.394531 105.097656 259.015625 C 104.292969 253.214844 104.171875 247.417969 105.523438 241.660156 Z M 105.523438 241.660156 " fill-opacity="1" fill-rule="nonzero"/><g clip-path="url(#6b575ef1ee)"><path fill="#151010" d="M 174.519531 199.285156 C 174.429688 201.722656 172.613281 201.960938 170.90625 201.742188 C 167.585938 201.320312 164.296875 200.613281 160.992188 200.027344 C 155.9375 200.078125 152.839844 197.265625 152.800781 192.398438 C 152.769531 188.96875 152.667969 185.558594 151.921875 182.199219 C 151.488281 180.269531 150.703125 178.546875 149.121094 177.285156 C 148.441406 176.746094 147.671875 176.203125 146.789062 176.65625 C 145.9375 177.085938 145.804688 178 145.765625 178.875 C 145.714844 180.070312 146.191406 181.175781 146.410156 182.328125 C 147.015625 185.449219 144.328125 189.347656 141.066406 190.144531 C 138.996094 185.585938 136.859375 181.046875 134.875 176.449219 C 132.4375 170.800781 132.417969 165.0625 134.394531 159.242188 C 137.15625 151.066406 141.902344 147.707031 150.566406 148.152344 C 155.976562 148.425781 161.367188 148.40625 166.753906 147.808594 C 169.132812 147.546875 170.992188 148.472656 172.042969 150.621094 C 173.335938 153.277344 172.582031 155.574219 170.476562 157.515625 C 169.53125 159.535156 167.535156 159.414062 165.800781 159.71875 C 161.121094 160.527344 160.714844 160.875 160.691406 165.699219 C 160.675781 168.164062 160.125 170.3125 158.410156 172.152344 C 157.355469 173.285156 156.859375 174.6875 156.902344 176.257812 C 157.066406 182.097656 157.984375 187.539062 163.871094 190.660156 C 165.609375 191.578125 167.03125 192.539062 168.320312 190.105469 C 168.859375 189.089844 169.980469 188.703125 171.109375 189.179688 C 172.503906 189.765625 171.589844 190.777344 171.410156 191.632812 C 171.242188 192.429688 171.351562 193.496094 172.054688 193.566406 C 176.507812 193.992188 174.269531 197.152344 174.519531 199.285156 Z M 174.519531 199.285156 " fill-opacity="1" fill-rule="nonzero"/></g><path fill="#fb9b2c" d="M 255.371094 362.355469 C 254.496094 365.425781 254.277344 368.492188 255.351562 371.5625 C 256.988281 374.875 255.894531 377.132812 252.46875 377.519531 C 251.320312 376.816406 251.097656 375.644531 251.03125 374.46875 C 250.484375 364.476562 249.597656 354.507812 248.957031 344.515625 C 248.664062 339.847656 248.507812 335.164062 247.964844 330.507812 C 247.65625 327.847656 247.585938 325.191406 247.984375 322.535156 C 250.007812 314.867188 250.136719 306.949219 251.109375 299.132812 C 251.605469 295.164062 251.644531 291.296875 250.316406 287.445312 C 248.597656 282.457031 245.546875 278.945312 240.296875 277.570312 C 238.976562 277.222656 237.535156 277.015625 236.71875 275.679688 C 251.667969 272.667969 260.363281 278.476562 261.757812 294.289062 C 262.730469 305.289062 260.753906 316.210938 259.542969 327.128906 C 259.402344 328.394531 259.355469 329.675781 259.273438 330.949219 C 258.101562 334.71875 258.222656 338.675781 257.707031 342.535156 C 256.859375 348.941406 255.597656 355.304688 255.417969 361.796875 C 255.578125 361.9375 255.621094 362.066406 255.558594 362.183594 C 255.492188 362.296875 255.4375 362.355469 255.371094 362.355469 Z M 255.371094 362.355469 " fill-opacity="1" fill-rule="nonzero"/><path fill="#e2772f" d="M 236.726562 275.683594 C 247.394531 276.460938 253.484375 284.78125 252.382812 297.085938 C 251.792969 303.660156 250.972656 310.195312 250.304688 316.753906 C 250.117188 318.574219 249.867188 320.324219 249.042969 321.964844 C 247.363281 320.417969 247.484375 318.296875 247.328125 316.308594 C 247.167969 314.28125 247.039062 312.261719 246.808594 310.242188 C 246.191406 304.84375 243.203125 301.488281 238.191406 299.742188 C 236.195312 299.082031 234.058594 298.667969 233.613281 296.007812 C 233.390625 294.675781 232.199219 294.539062 231.085938 294.75 C 229.476562 295.054688 228.238281 294.339844 226.929688 293.566406 C 222.277344 290.832031 218.109375 287.277344 212.984375 285.328125 C 211.792969 284.503906 210.5625 283.707031 210.359375 282.089844 C 210.726562 281.738281 211.054688 281.160156 211.472656 281.070312 C 219.90625 279.371094 228.1875 276.914062 236.726562 275.683594 Z M 236.726562 275.683594 " fill-opacity="1" fill-rule="nonzero"/><path fill="#a46445" d="M 174.519531 199.285156 C 174.519531 197.792969 174.519531 196.308594 174.519531 194.765625 C 173.070312 194.289062 171.449219 196.6875 170.578125 194.519531 C 170.011719 193.105469 169.246094 191.347656 170.90625 189.773438 C 169.5625 189.507812 168.601562 189.875 168.628906 191.523438 C 168.660156 193.425781 167.738281 193.664062 166.183594 193.1875 C 160.882812 191.554688 157.089844 186.265625 156.265625 180.6875 C 155.636719 176.410156 155.550781 172.738281 159.085938 169.585938 C 160.347656 168.460938 159.648438 166.53125 159.5625 164.945312 C 159.335938 160.5 160.378906 159.261719 164.894531 158.777344 C 166.804688 158.570312 168.71875 158.398438 170.476562 157.523438 C 172.902344 161.988281 174.589844 166.53125 173.941406 171.84375 C 173.554688 175.035156 175.613281 177.703125 177.425781 180.25 C 178.453125 181.703125 179.675781 183.269531 176.625 183.890625 C 175.800781 184.058594 175.320312 184.585938 175.601562 185.539062 C 176.039062 186.992188 175.917969 188.261719 174.519531 189.210938 C 173.851562 189.667969 174.171875 190.253906 174.4375 190.902344 C 175.582031 193.65625 175.152344 196.480469 174.519531 199.285156 Z M 174.519531 199.285156 " fill-opacity="1" fill-rule="nonzero"/><path fill="#9e5f41" d="M 141.058594 190.144531 C 143.800781 187.4375 147.015625 185.011719 144.773438 180.289062 C 143.921875 178.507812 144.140625 176.242188 146.164062 175.234375 C 148.113281 174.253906 149.621094 175.824219 150.800781 177.183594 C 153.257812 180.011719 153.226562 183.667969 153.792969 187.109375 C 153.863281 187.527344 153.882812 187.976562 153.792969 188.382812 C 152.46875 194.570312 155.03125 198.347656 160.992188 200.03125 C 160.972656 203.621094 160.960938 207.210938 160.941406 210.800781 C 155.371094 213.664062 147.722656 211.46875 143.792969 205.710938 C 142.417969 203.699219 141.4375 201.410156 140.277344 199.246094 C 140.988281 196.25 140.953125 193.1875 141.058594 190.144531 Z M 141.058594 190.144531 " fill-opacity="1" fill-rule="nonzero"/><path fill="#fcf8f1" d="M 210.351562 282.089844 C 211.292969 282.925781 212.546875 283.421875 213.113281 284.664062 C 212.835938 285.933594 211.683594 286.445312 210.867188 287.25 C 208.972656 289.101562 206.933594 290.839844 206.289062 293.59375 C 206.101562 294.390625 205.554688 294.855469 204.757812 295.035156 C 200.867188 294.964844 197.179688 293.761719 193.398438 293.074219 C 191.691406 290.777344 191.699219 290.75 195.820312 288.511719 C 194.210938 288.574219 192.765625 289.097656 191.285156 288.738281 C 185.5625 286.15625 184.152344 283.976562 184.488281 278.289062 C 185.167969 275.105469 185.414062 271.753906 187.96875 269.289062 C 188.722656 268.820312 189.527344 268.554688 190.421875 268.632812 C 190.738281 268.910156 191.066406 269.449219 191.363281 269.425781 C 197.976562 268.941406 200.328125 275.027344 204.613281 278.078125 C 206.519531 279.429688 208.238281 281.035156 210.351562 282.089844 Z M 210.351562 282.089844 " fill-opacity="1" fill-rule="nonzero"/><path fill="#1c1616" d="M 267.636719 338.664062 C 265.035156 337.992188 265.742188 335.898438 265.699219 334.140625 C 265.648438 332.269531 267.171875 331.980469 268.441406 331.722656 C 271.824219 331.035156 275.234375 330.507812 278.632812 329.921875 C 280.726562 328.921875 282.949219 328.5625 285.242188 328.5 C 289.160156 329 293.109375 328.699219 297.035156 328.699219 C 299.246094 328.699219 300.824219 329.398438 302.195312 331.207031 C 305.316406 335.304688 312.226562 335.332031 315.585938 331.335938 C 316.71875 329.992188 317.832031 328.769531 319.726562 328.667969 C 325.972656 328.085938 332.101562 329 338.210938 330.160156 C 339.691406 330.441406 341.101562 331.015625 342.132812 332.199219 C 344.394531 334.804688 343.285156 338.347656 339.746094 339.929688 C 335.726562 341.726562 335.734375 341.726562 336.214844 346.042969 C 336.570312 349.21875 337.097656 352.390625 337.085938 355.605469 C 336.796875 357.300781 335.855469 358.683594 334.839844 359.976562 C 334.1875 360.804688 333.464844 361.988281 332.089844 360.890625 C 330.242188 356.378906 330.046875 351.515625 329.089844 346.820312 C 328.226562 342.601562 328.207031 342.464844 323.929688 342.453125 C 311.613281 342.417969 299.296875 342.417969 286.980469 342.453125 C 282.59375 342.464844 282.511719 342.601562 281.691406 347.0625 C 278.164062 366.324219 274.84375 385.625 271.46875 404.917969 C 271.171875 406.601562 270.863281 408.285156 270.367188 409.925781 C 269.703125 413.492188 269.203125 417.09375 268.324219 420.613281 C 267.824219 422.625 266.871094 424.34375 264.257812 423.042969 C 262.839844 421.238281 263.492188 419.234375 263.722656 417.273438 C 263.980469 415.074219 264.28125 412.886719 264.734375 410.726562 C 265.621094 405.316406 266.1875 399.851562 267.101562 394.449219 C 269.640625 378.320312 272.144531 362.183594 274.617188 346.042969 C 275.253906 341.886719 274.886719 341.5 270.722656 340.289062 C 269.582031 339.941406 268.492188 339.523438 267.636719 338.664062 Z M 267.636719 338.664062 " fill-opacity="1" fill-rule="nonzero"/><path fill="#d26f2f" d="M 479.125 258.328125 C 479.40625 255.988281 479.691406 253.652344 479.980469 251.308594 C 479.550781 256.539062 483.496094 257.375 487.183594 258.539062 C 495.988281 261.3125 504.980469 263.179688 514.222656 262.753906 C 520.152344 262.484375 526.035156 261.332031 531.949219 260.59375 C 533.003906 260.457031 534.066406 260.285156 535.121094 260.335938 C 536.382812 260.398438 537.296875 261.050781 536.542969 262.425781 C 532.570312 269.726562 529.199219 277.363281 524.007812 283.976562 C 519.917969 289.1875 514.519531 289.007812 508.863281 288.265625 C 501.800781 287.347656 494.890625 285.46875 487.699219 285.25 C 483.636719 285.128906 479.914062 286.195312 476.136719 287.269531 C 474.585938 285.46875 475.402344 283.410156 475.640625 281.5 C 476.601562 273.753906 477.816406 266.035156 479.125 258.328125 Z M 479.125 258.328125 " fill-opacity="1" fill-rule="nonzero"/><path fill="#e1cd9b" d="M 425.15625 295.644531 C 428.617188 295.960938 432.089844 296.257812 435.554688 296.589844 C 436.582031 296.6875 437.625 297.183594 438.558594 296.328125 C 444.496094 296.496094 450.234375 294.894531 456.078125 294.289062 C 459.902344 293.894531 463.492188 294.546875 466.929688 296.199219 C 463.632812 303.546875 460.832031 311.070312 458.5 318.777344 C 457.378906 319.519531 456.1875 319.761719 454.851562 319.492188 C 444.953125 317.492188 435.011719 315.695312 425.128906 313.632812 C 423.847656 313.363281 422.28125 313.425781 421.457031 312 C 421.109375 311.316406 420.898438 310.542969 421.144531 309.855469 C 422.765625 305.191406 423.09375 300.175781 425.15625 295.644531 Z M 425.15625 295.644531 " fill-opacity="1" fill-rule="nonzero"/><path fill="#ec8931" d="M 413.621094 369.488281 C 407.421875 368.90625 401.214844 368.332031 395.015625 367.726562 C 390.0625 367.246094 388.921875 367.625 389.058594 372.03125 C 389.109375 373.75 388.34375 375.492188 387.953125 377.230469 C 387.417969 376.9375 387.164062 376.449219 386.992188 375.898438 C 386.683594 374.605469 386.804688 373.316406 387.03125 372.03125 C 388.511719 365.03125 389.257812 357.898438 390.886719 350.917969 C 391.375 349.933594 391.402344 348.699219 392.417969 347.992188 C 394.671875 347.140625 396.855469 347.984375 399.039062 348.324219 C 402.941406 348.929688 406.9375 348.679688 410.777344 349.742188 C 412.875 350.839844 415.148438 350.550781 417.382812 350.570312 C 420.480469 350.597656 423.582031 350.472656 426.679688 350.621094 C 429.21875 350.742188 430.324219 351.933594 429.765625 354.351562 C 428.644531 359.214844 426.171875 363.480469 422.976562 367.265625 C 421.785156 368.671875 419.953125 369.15625 418.039062 369.207031 C 416.570312 369.246094 415.058594 368.851562 413.621094 369.488281 Z M 413.621094 369.488281 " fill-opacity="1" fill-rule="nonzero"/><path fill="#d16f2f" d="M 413.621094 369.488281 C 414.136719 368.808594 414.941406 368.777344 415.65625 368.738281 C 424.953125 368.242188 425.980469 360.265625 428.851562 354.050781 C 429.570312 352.492188 428.667969 351.476562 426.769531 351.503906 C 422.40625 351.5625 418.03125 351.535156 413.667969 351.496094 C 412.535156 351.484375 411.292969 351.832031 410.351562 350.808594 C 411.699219 349.375 413.488281 349.632812 415.160156 349.617188 C 422.425781 349.574219 429.679688 349.59375 436.945312 349.597656 C 441.417969 349.605469 445.875 349.066406 450.355469 349.089844 C 450.773438 349.15625 451.132812 349.328125 451.449219 349.605469 C 450.328125 354.917969 449.375 360.277344 447.632812 365.429688 C 446.015625 370.210938 444.140625 371.523438 439.101562 371.417969 C 430.570312 371.253906 422.089844 370.449219 413.621094 369.488281 Z M 413.621094 369.488281 " fill-opacity="1" fill-rule="nonzero"/><path fill="#221b19" d="M 465.269531 388.484375 C 465.152344 393.285156 465.035156 398.085938 464.921875 402.875 C 464.707031 405.835938 464.835938 408.738281 465.222656 411.730469 C 466.128906 418.832031 466.074219 425.996094 464.605469 433.074219 C 464.496094 433.601562 464.082031 433.992188 463.730469 434.398438 C 459.902344 436.160156 460.921875 432.917969 460.445312 431.21875 C 458.835938 429.355469 459.132812 426.96875 458.945312 424.820312 C 458.53125 420.070312 458.359375 415.300781 458.203125 410.527344 C 458.074219 403.191406 457.554688 395.871094 457.355469 388.542969 C 457.316406 387.058594 457.347656 385.535156 458.578125 384.394531 C 459.71875 384.484375 460.871094 385.160156 461.996094 384.601562 C 465.152344 383.019531 465.460938 384.714844 465.160156 387.230469 C 465.105469 387.636719 465.222656 388.066406 465.269531 388.484375 Z M 465.269531 388.484375 " fill-opacity="1" fill-rule="nonzero"/><path fill="#241c18" d="M 451.5 384.363281 C 451.539062 393.097656 451.578125 401.835938 451.625 410.570312 C 452.28125 411.582031 452.382812 412.597656 451.378906 413.40625 C 450.664062 413.988281 449.777344 413.953125 448.972656 413.511719 C 447.941406 412.9375 447.445312 412.003906 447.652344 410.847656 C 447.855469 409.695312 448.222656 408.570312 447.773438 407.40625 C 446.929688 399.652344 446.082031 391.894531 445.238281 384.144531 C 447.324219 384.222656 449.414062 384.292969 451.5 384.363281 Z M 451.5 384.363281 " fill-opacity="1" fill-rule="nonzero"/><path fill="#e4c697" d="M 479.125 258.328125 C 479.214844 265.835938 477.796875 273.195312 477.003906 280.617188 C 476.765625 282.84375 476.425781 285.058594 476.128906 287.277344 C 473.695312 288.96875 472.207031 291.960938 468.949219 292.539062 C 471.878906 283.984375 475.007812 275.484375 476.929688 266.613281 C 477.527344 263.820312 477.875 260.953125 479.125 258.328125 Z M 479.125 258.328125 " fill-opacity="1" fill-rule="nonzero"/><path fill="#c29469" d="M 421.929688 311.574219 C 427.132812 313.546875 432.660156 314.074219 438.050781 315.167969 C 444.832031 316.546875 451.578125 318.179688 458.5 318.777344 C 458.308594 318.992188 458.121094 319.203125 457.933594 319.414062 C 457.65625 319.886719 457.398438 320.378906 456.839844 320.585938 C 453.910156 321.105469 451.117188 320.179688 448.316406 319.667969 C 439.609375 318.066406 430.941406 316.25 422.257812 314.507812 C 420.925781 314.238281 419.460938 314.148438 418.617188 312.796875 C 418.523438 311.871094 419.203125 311.546875 419.867188 311.207031 C 420.613281 310.96875 421.304688 311.078125 421.929688 311.574219 Z M 421.929688 311.574219 " fill-opacity="1" fill-rule="nonzero"/><path fill="#b88860" d="M 457.246094 320.167969 C 457.476562 319.917969 457.703125 319.667969 457.933594 319.414062 C 458.035156 323.308594 456.652344 326.949219 455.894531 330.6875 C 454.597656 337.035156 452.949219 343.3125 451.445312 349.625 C 451.210938 349.59375 450.988281 349.554688 450.761719 349.523438 C 447.839844 349.269531 444.855469 349.277344 442.074219 348.242188 C 441.226562 347.925781 439.050781 348.0625 440.425781 345.945312 C 441.992188 345.140625 443.554688 345.734375 445.113281 345.988281 C 448.675781 346.574219 448.996094 346.472656 449.925781 343.160156 C 451.667969 336.90625 453.703125 330.730469 455.261719 324.425781 C 455.640625 322.875 455.867188 321.25 457.246094 320.167969 Z M 457.246094 320.167969 " fill-opacity="1" fill-rule="nonzero"/><path fill="#dcae79" d="M 387.777344 375.839844 C 387.835938 376.300781 387.894531 376.765625 387.957031 377.230469 C 387.796875 377.949219 388.144531 378.515625 388.539062 379.0625 C 386.855469 383.46875 386.902344 388.191406 386.027344 392.746094 C 385.371094 396.179688 385.027344 399.679688 384.417969 403.121094 C 384.222656 404.226562 383.996094 405.476562 382.792969 406.105469 C 381.6875 405.078125 381.875 403.796875 382.125 402.523438 C 383.574219 395.09375 384.675781 387.613281 385.703125 380.117188 C 385.917969 378.554688 385.703125 376.589844 387.777344 375.839844 Z M 387.777344 375.839844 " fill-opacity="1" fill-rule="nonzero"/><path fill="#e7d2a5" d="M 435.972656 286.007812 C 432.371094 286.515625 428.761719 286.824219 425.121094 286.511719 C 425.140625 286.34375 425.167969 286.183594 425.199219 286.015625 C 429.367188 284.859375 430.921875 281.289062 432.566406 277.882812 C 434.148438 274.609375 436.453125 271.792969 438.136719 268.589844 C 438.773438 267.371094 439.875 266.972656 441.082031 267.148438 C 445.230469 267.726562 448.316406 266.152344 450.625 262.765625 C 451.167969 261.976562 451.976562 261.421875 452.78125 260.894531 C 453.84375 258.957031 454.90625 257.027344 455.96875 255.09375 C 457.433594 254.003906 458.398438 253.902344 458.292969 256.191406 C 458.261719 256.886719 458.070312 257.632812 458.546875 258.277344 C 458.09375 263.253906 457.78125 268.246094 457.148438 273.207031 C 456.722656 276.535156 455.519531 279.652344 452.808594 281.886719 C 451.617188 282.871094 451.953125 283.53125 452.859375 284.441406 C 454.4375 286.007812 455.925781 287.675781 457.644531 289.507812 C 455.675781 290.273438 453.941406 289.734375 451.757812 288.949219 C 454.175781 288.355469 453.980469 287.566406 452.640625 286.144531 C 450.734375 284.117188 448.976562 282.964844 445.957031 283.945312 C 442.738281 284.980469 439.308594 285.347656 435.972656 286.007812 Z M 435.972656 286.007812 " fill-opacity="1" fill-rule="nonzero"/><path fill="#f3e6c8" d="M 452.789062 260.894531 C 451.257812 264.324219 449.140625 267.140625 445.242188 268.101562 C 444.734375 268.222656 444.105469 268.664062 443.75 268.5 C 439.828125 266.582031 438.886719 269.707031 437.195312 272.042969 C 434.792969 275.363281 433.015625 279.03125 431.195312 282.625 C 429.777344 285.421875 428.011719 286.324219 425.191406 286.023438 C 426.308594 281.925781 425.980469 277.71875 425.714844 273.605469 C 425.398438 268.722656 428.050781 266.75 431.5625 265.160156 C 435.488281 263.378906 439.785156 263.023438 443.960938 262.253906 C 446.890625 261.707031 449.847656 261.339844 452.789062 260.894531 Z M 452.789062 260.894531 " fill-opacity="1" fill-rule="nonzero"/><path fill="#cd6a31" d="M 423.949219 285.945312 C 419.1875 284.992188 414.492188 283.875 410.46875 280.914062 C 409.519531 280.214844 408.386719 279.710938 409.019531 278.210938 C 412.328125 273.292969 415.367188 268.214844 419.507812 263.855469 C 421.894531 261.332031 420.082031 257.671875 420.75 254.597656 C 421.324219 254.378906 421.585938 254.488281 421.347656 255.144531 C 420.707031 259.472656 421.96875 263.390625 423.949219 267.160156 C 424.367188 273.273438 424.355469 279.390625 423.957031 285.5 C 424.035156 285.65625 424.035156 285.796875 423.949219 285.945312 Z M 423.949219 285.945312 " fill-opacity="1" fill-rule="nonzero"/><path fill="#e4bd93" d="M 421.347656 255.148438 C 421.148438 254.964844 420.949219 254.785156 420.75 254.597656 C 422.300781 247.242188 421.933594 239.773438 422.011719 232.339844 C 422.023438 231.324219 422.191406 230.265625 423.195312 229.320312 C 422.992188 238.101562 424.109375 246.753906 421.347656 255.148438 Z M 421.347656 255.148438 " fill-opacity="1" fill-rule="nonzero"/><path fill="#d3af7f" d="M 458.546875 258.28125 C 458.351562 257.820312 457.921875 257.3125 458 256.894531 C 458.320312 255.085938 457.230469 255.035156 455.96875 255.09375 C 456.753906 251.6875 458.382812 248.53125 458.90625 245.019531 C 459.9375 249.484375 458.46875 253.863281 458.546875 258.28125 Z M 458.546875 258.28125 " fill-opacity="1" fill-rule="nonzero"/><path fill="#b47457" d="M 423.957031 285.5 C 423.957031 279.390625 423.949219 273.277344 423.949219 267.160156 C 425.296875 269.6875 424.40625 272.390625 424.453125 274.996094 C 424.511719 278.5 424.722656 282.035156 423.957031 285.5 Z M 423.957031 285.5 " fill-opacity="1" fill-rule="nonzero"/><path fill="#b6ada1" d="M 474.808594 200.089844 C 476.792969 201.886719 477.019531 204.273438 476.980469 206.742188 C 475.722656 204.722656 474.984375 202.515625 474.808594 200.089844 Z M 474.808594 200.089844 " fill-opacity="1" fill-rule="nonzero"/><path fill="#df7830" d="M 375.679688 276.347656 C 377.359375 276.121094 378.742188 276.917969 380.148438 277.644531 C 383.527344 280 385.582031 283.273438 386.542969 287.210938 C 387.667969 291.855469 388.195312 296.628906 389.625 301.214844 C 390.359375 303.566406 389.324219 305.089844 386.953125 305.796875 C 385.613281 306.195312 384.21875 306.164062 382.890625 306.5625 C 380.328125 306.570312 377.785156 306.242188 375.210938 306.296875 C 370.664062 306.402344 367.199219 308.390625 364.757812 312.132812 C 362.421875 315.714844 360.527344 319.5625 358.28125 323.199219 C 357.546875 324.382812 357.097656 326.078125 355.121094 325.878906 C 354.171875 325.160156 353.960938 324.078125 353.863281 323.023438 C 352.996094 313.234375 351.21875 303.527344 351.296875 293.644531 C 351.328125 289.785156 352.28125 286.222656 354.097656 282.890625 C 356.753906 278.007812 360.691406 275.132812 366.515625 275.363281 C 369.59375 275.484375 372.722656 275.085938 375.679688 276.347656 Z M 375.679688 276.347656 " fill-opacity="1" fill-rule="nonzero"/><path fill="#d36f30" d="M 382.703125 305.699219 C 389.503906 304.027344 389.566406 304.007812 387.382812 297.242188 C 386.753906 295.277344 386.503906 293.292969 386.367188 291.308594 C 386 285.945312 382.8125 281.929688 380.148438 277.644531 C 388.5625 280.195312 397.164062 282.253906 404.789062 286.878906 C 405.832031 287.507812 406.5 288.730469 407.429688 289.578125 C 410.679688 292.570312 414.5625 293.984375 418.949219 294.398438 C 420.890625 294.578125 423.492188 294.371094 423.351562 297.621094 C 424.214844 298.539062 423.890625 299.601562 423.628906 300.605469 C 422.65625 304.347656 422.148438 308.246094 420.0625 311.632812 C 419.578125 311.902344 419.09375 312.164062 418.613281 312.4375 C 417.429688 313.5625 416.019531 313.238281 414.660156 313 C 405.476562 311.378906 396.347656 309.523438 387.179688 307.828125 C 385.550781 307.527344 383.707031 307.429688 382.703125 305.699219 Z M 382.703125 305.699219 " fill-opacity="1" fill-rule="nonzero"/><path fill="#fb9b2c" d="M 375.679688 276.347656 C 372.519531 276.378906 369.433594 275.890625 366.195312 276.089844 C 357.226562 276.644531 353.066406 284.890625 352.5625 291.683594 C 351.992188 299.460938 353.324219 307.148438 354.246094 314.855469 C 354.683594 318.527344 354.585938 322.265625 355.527344 325.878906 C 356.292969 326.890625 355.550781 327.707031 355.089844 328.460938 C 352.628906 332.410156 350.109375 336.328125 347.59375 340.234375 C 347.078125 341.035156 346.492188 341.816406 345.386719 341.820312 C 344.871094 338.277344 345.398438 334.71875 344.972656 331.136719 C 343.902344 322.117188 343.246094 313.054688 342.46875 304.003906 C 342.089844 299.609375 342.253906 295.214844 343.09375 290.890625 C 345.496094 278.535156 354.011719 272.710938 366.792969 274.636719 C 368.710938 274.925781 370.617188 275.066406 372.550781 275.039062 C 373.726562 275.117188 374.824219 275.453125 375.679688 276.347656 Z M 375.679688 276.347656 " fill-opacity="1" fill-rule="nonzero"/><path fill="#f7f1e5" d="M 420.0625 311.632812 C 420.144531 307.902344 422.082031 304.621094 422.648438 301.003906 C 422.828125 299.867188 423.113281 298.746094 423.34375 297.613281 C 424.144531 297.136719 423.421875 295.273438 425.148438 295.644531 C 425.082031 299.859375 423.667969 303.800781 422.664062 307.824219 C 422.355469 309.058594 421.761719 310.242188 421.921875 311.566406 C 421.304688 311.59375 420.6875 311.613281 420.0625 311.632812 Z M 420.0625 311.632812 " fill-opacity="1" fill-rule="nonzero"/><path fill="#c18365" d="M 344.773438 441.4375 C 342.648438 442.039062 340.472656 442.085938 338.269531 442.148438 C 315.578125 442.792969 292.890625 442.84375 270.199219 442.761719 C 269.960938 442.015625 270.4375 441.878906 271.003906 441.820312 C 270.625 441.785156 270.269531 441.90625 269.910156 442.003906 C 268.113281 442.503906 266.097656 441.457031 264.410156 442.761719 C 240.863281 442.761719 217.3125 443.152344 193.785156 442.59375 C 182.78125 442.332031 171.769531 442.605469 160.785156 442.058594 C 150.375 441.539062 140.035156 440.246094 129.726562 438.558594 C 119.757812 436.933594 109.714844 435.773438 99.703125 434.425781 C 87.378906 432.757812 75.300781 430.289062 64.378906 423.898438 C 63.1875 423.203125 61.847656 422.765625 60.582031 422.214844 C 60.683594 420.503906 62.125 420.644531 63.175781 420.476562 C 71.71875 419.121094 79.980469 419.054688 88.34375 422.492188 C 99.714844 427.15625 111.441406 430.976562 123.6875 432.847656 C 125.921875 433.1875 128.15625 433.316406 130.402344 433.257812 C 134.070312 433.164062 134.355469 432.855469 134.671875 429.238281 C 134.800781 427.796875 134.484375 426.164062 136.152344 425.28125 C 138.339844 426.800781 137.363281 429.128906 137.523438 431.109375 C 137.683594 433.105469 138.457031 433.773438 140.351562 433.183594 C 142.710938 433.117188 145.0625 433.226562 147.375 433.75 C 153.15625 435.0625 159.007812 435.191406 164.90625 435.144531 C 176.671875 435.054688 188.441406 435.171875 200.203125 435.097656 C 208.972656 435.046875 217.738281 434.769531 226.230469 432.171875 C 229.796875 431.078125 233.261719 431.453125 236.394531 433.445312 C 238.300781 434.65625 240.335938 434.152344 242.308594 434.417969 C 247.347656 435.863281 252.519531 435.191406 257.617188 435.082031 C 262.101562 434.984375 266.566406 434.636719 271.042969 435.152344 C 272.207031 435.285156 273.398438 435.246094 274.570312 435.15625 C 275.90625 435.054688 277.765625 435.78125 278.414062 434.410156 C 279.085938 432.988281 276.664062 432.855469 276.324219 431.601562 C 275.957031 428.929688 277.667969 427.777344 279.769531 426.929688 C 287.359375 423.867188 295.238281 423.003906 303.332031 423.945312 C 306.023438 424.261719 308.621094 424.53125 311.003906 422.792969 C 311.949219 422.097656 312.980469 422.355469 314.003906 422.921875 C 317.222656 424.703125 320.511719 424.683594 323.820312 423.109375 C 324.59375 422.742188 325.4375 422.195312 326.234375 422.347656 C 332.347656 423.566406 337.660156 420.414062 343.351562 419.34375 C 343.664062 419.289062 343.988281 419.28125 344.304688 419.292969 C 345.242188 419.371094 345.511719 420.40625 346.621094 420.835938 C 347.15625 418.746094 346.054688 416.664062 346.683594 414.679688 C 347.253906 412.476562 346.871094 409.574219 350.433594 409.574219 C 350.769531 409.585938 351.070312 409.683594 351.355469 409.863281 C 352.75 411.863281 351.457031 414 351.636719 416.0625 C 351.738281 417.222656 351.558594 418.398438 351.6875 419.878906 C 353.019531 416.675781 352.171875 413.132812 354.386719 410.492188 C 354.722656 410.378906 355.050781 410.398438 355.371094 410.539062 C 356.285156 411.703125 357.585938 411.527344 358.847656 411.636719 C 362.027344 411.910156 363.464844 413.097656 364.050781 416.21875 C 364.554688 418.90625 365.222656 421.597656 365.046875 424.375 C 364.515625 430.886719 361.179688 435.453125 355.332031 438.21875 C 353.414062 439.125 351.429688 439.890625 349.511719 440.800781 C 347.933594 441.082031 346.460938 442.058594 344.773438 441.4375 Z M 344.773438 441.4375 " fill-opacity="1" fill-rule="nonzero"/><path fill="#b3765d" d="M 349.292969 440.175781 C 350.554688 438.960938 352.164062 438.324219 353.75 437.757812 C 359.898438 435.542969 363.109375 431.066406 364.078125 424.773438 C 365.042969 420.914062 363.871094 416.9375 364.738281 413.066406 C 365.015625 411.832031 364.964844 410.519531 365.617188 409.367188 C 366.421875 408.460938 367.59375 408.304688 368.636719 407.882812 C 371.144531 407.464844 373.671875 407.089844 376.199219 406.808594 C 377.347656 406.679688 378.539062 406.394531 379.53125 407.328125 C 381.757812 411.117188 385.445312 410.050781 388.777344 410.054688 C 407.414062 410.082031 426.050781 410.042969 444.691406 410.101562 C 446.71875 410.109375 448.0625 409.832031 447.765625 407.410156 C 448.46875 408.339844 448.28125 409.445312 448.398438 410.492188 C 448.535156 411.714844 448.289062 413.335938 450.195312 413.296875 C 452.074219 413.257812 451.128906 411.484375 451.625 410.570312 C 454.140625 410.578125 456.664062 410.582031 459.183594 410.589844 C 459.601562 417.464844 460.019531 424.34375 460.4375 431.214844 C 451.328125 427.992188 441.835938 427.40625 432.371094 428.113281 C 426.488281 428.550781 420.707031 428.105469 414.878906 427.964844 C 413.472656 427.933594 412.136719 428.191406 410.777344 428.519531 C 409.320312 428.871094 408.15625 428.980469 409.625 430.867188 C 411.019531 432.65625 409.269531 432.957031 408.085938 433.3125 C 400.628906 435.523438 393.109375 437.492188 385.445312 438.851562 C 383.6875 439.164062 381.9375 439.867188 380.082031 439.507812 C 379.085938 437.699219 379.464844 435.808594 379.78125 433.929688 C 380.71875 428.28125 381.839844 422.683594 384.449219 418.8125 C 383.605469 420.726562 382.066406 423.640625 381.042969 426.792969 C 380.554688 428.292969 381.429688 430.25 379.59375 431.304688 C 379.484375 430.589844 379.382812 429.882812 379.265625 429.117188 C 377.667969 429.605469 377.554688 430.769531 377.589844 431.964844 C 377.664062 434.496094 377.328125 436.972656 377.0625 439.472656 C 376.792969 442.054688 375.640625 442.554688 373.433594 442.804688 C 369.902344 443.203125 366.464844 443.648438 363.34375 441.402344 C 363.324219 440.773438 363.664062 440.535156 364.25 440.5625 C 363.863281 440.40625 363.515625 440.617188 363.175781 440.722656 C 359.878906 441.730469 356.441406 441.765625 353.054688 442.003906 C 351.71875 442.105469 349.707031 442.453125 349.292969 440.175781 Z M 349.292969 440.175781 " fill-opacity="1" fill-rule="nonzero"/><path fill="#b57960" d="M 463.722656 434.398438 C 464.460938 424.949219 464.449219 415.480469 464.546875 406.015625 C 464.558594 404.96875 464.785156 403.925781 464.914062 402.882812 C 464.964844 403.089844 465.054688 403.296875 465.0625 403.507812 C 465.429688 410.542969 465.421875 410.511719 472.441406 410.527344 C 483.46875 410.542969 494.5 410.601562 505.527344 410.648438 C 509.039062 412 512.683594 411.15625 516.261719 411.238281 C 519.894531 411.324219 523.480469 411.148438 526.710938 413.265625 C 527.664062 413.890625 529.109375 413.992188 529.179688 415.445312 C 529.242188 416.753906 528.210938 417.453125 527.277344 418.21875 C 521.804688 422.710938 515.15625 424.261719 508.511719 425.808594 C 493.699219 429.257812 478.71875 431.84375 463.722656 434.398438 Z M 463.722656 434.398438 " fill-opacity="1" fill-rule="nonzero"/><path fill="#bb7d60" d="M 136.394531 425.410156 C 135.296875 426.96875 135.824219 428.742188 135.855469 430.398438 C 135.914062 433.257812 134.742188 434.386719 131.851562 434.449219 C 124.058594 434.617188 116.570312 433.046875 109.21875 430.75 C 100.65625 428.082031 92.058594 425.519531 83.773438 422.003906 C 78.113281 419.601562 72.027344 420.40625 66.136719 421.21875 C 64.308594 421.46875 62.234375 420.855469 60.582031 422.195312 C 58.835938 422.183594 57.097656 422.164062 55.351562 422.148438 C 55.757812 420.824219 56.167969 419.507812 56.574219 418.179688 C 67.867188 416.246094 79.273438 415.5 90.699219 415.195312 C 104.472656 414.835938 118.234375 414.199219 131.980469 413.226562 C 133.523438 413.117188 134.644531 412.597656 135.242188 411.125 C 135.6875 410.679688 136.125 410.222656 136.777344 410.835938 C 138.089844 415.734375 138.695312 420.613281 136.394531 425.410156 Z M 136.394531 425.410156 " fill-opacity="1" fill-rule="nonzero"/><path fill="#38231c" d="M 379.59375 431.308594 C 379.992188 425.804688 382.054688 420.910156 385.464844 416.46875 C 383.289062 424.058594 379.5625 431.324219 380.089844 439.511719 C 377.554688 437.996094 379.363281 435.640625 379.027344 433.703125 C 378.898438 432.964844 379.386719 432.113281 379.59375 431.308594 Z M 379.59375 431.308594 " fill-opacity="1" fill-rule="nonzero"/><path fill="#2d1d1b" d="M 349.292969 440.175781 C 353.453125 442.476562 357.746094 440.929688 361.992188 440.613281 C 363.453125 440.503906 364.914062 440.273438 367.109375 440.007812 C 365.550781 441.132812 364.160156 440.523438 363.335938 441.417969 C 357.46875 442.085938 351.597656 442.753906 345.734375 443.429688 C 343.492188 443.6875 343.703125 442.773438 344.765625 441.4375 C 346.066406 440.246094 347.632812 440.027344 349.292969 440.175781 Z M 349.292969 440.175781 " fill-opacity="1" fill-rule="nonzero"/><path fill="#bb7d60" d="M 264.417969 442.753906 C 265.988281 441.222656 266.347656 441.171875 272.058594 441.6875 C 271.382812 442.074219 270.792969 442.414062 270.207031 442.753906 C 268.273438 442.753906 266.34375 442.753906 264.417969 442.753906 Z M 264.417969 442.753906 " fill-opacity="1" fill-rule="nonzero"/><path fill="#fb9b2d" d="M 110.191406 285.191406 C 115.269531 285.03125 120.265625 285.28125 124.804688 287.957031 C 126.527344 287.976562 127.691406 289.011719 128.835938 290.105469 C 132.03125 293.316406 134.492188 297.015625 136.222656 301.199219 C 137.066406 303.238281 137.664062 305.476562 140.335938 306.027344 C 140.929688 306.152344 141.394531 306.78125 140.820312 307.519531 C 138.558594 308.539062 139.003906 310.234375 139.542969 312.09375 C 143.242188 324.820312 145.777344 337.808594 148.539062 350.75 C 149.570312 354.898438 150.386719 359.09375 151.535156 363.210938 C 153.054688 368.652344 155.054688 370.222656 160.613281 370.269531 C 167.996094 370.332031 175.304688 369.160156 182.660156 368.722656 C 184.472656 368.613281 186.289062 368.660156 188.097656 368.472656 C 197.519531 367.269531 207.015625 366.910156 216.441406 365.765625 C 217.5 365.636719 218.574219 365.566406 219.597656 366.042969 C 222.0625 370.042969 222.335938 374.28125 220.929688 378.695312 C 219 380.097656 216.667969 380.125 214.480469 380.234375 C 206.585938 380.617188 198.699219 381.101562 190.808594 381.648438 C 179.40625 382.445312 168.023438 383.460938 156.652344 384.621094 C 154.238281 384.671875 152.023438 385.507812 149.816406 386.402344 C 148.480469 385.789062 148.527344 384.890625 149.273438 383.839844 C 149.046875 383.617188 148.796875 383.179688 148.609375 383.203125 C 144.105469 383.824219 143.554688 380.851562 143.058594 377.453125 C 140.273438 358.25 135.152344 339.542969 130.628906 320.722656 C 128.65625 312.53125 126.339844 304.347656 121.511719 297.265625 C 117.183594 290.929688 111.953125 285.945312 103.261719 287.808594 C 102.160156 288.046875 101.113281 287.847656 100.492188 286.722656 C 103.46875 284.621094 106.65625 283.808594 110.191406 285.191406 Z M 110.191406 285.191406 " fill-opacity="1" fill-rule="nonzero"/><path fill="#cc6b31" d="M 105.523438 241.660156 C 105.722656 247.449219 105.914062 253.238281 106.113281 259.023438 C 105.582031 264.207031 105.523438 263.976562 100.152344 265.378906 C 92.386719 267.410156 84.402344 268.0625 76.546875 269.503906 C 74.867188 269.8125 73.160156 270.003906 71.511719 269.265625 C 68.003906 264.117188 66.125 258.148438 63.128906 252.746094 C 61.992188 250.691406 60.921875 248.601562 59.832031 246.523438 C 59.433594 245.757812 59.023438 244.902344 59.621094 244.109375 C 60.199219 243.34375 60.980469 243.949219 61.6875 244.027344 C 73.761719 245.289062 85.730469 247.699219 97.988281 246.84375 C 103.074219 246.484375 104.101562 246.085938 105.523438 241.660156 Z M 105.523438 241.660156 " fill-opacity="1" fill-rule="nonzero"/><path fill="#bc5f2f" d="M 71.519531 269.265625 C 76.625 268.410156 81.707031 267.242188 86.84375 266.789062 C 92.839844 266.261719 98.453125 264.09375 104.382812 263.347656 C 106.734375 263.050781 104.777344 260.195312 106.113281 259.027344 C 107.203125 267.789062 108.40625 276.539062 110.183594 285.199219 C 106.953125 285.707031 103.714844 286.222656 100.480469 286.730469 C 97.363281 287.328125 94.261719 288.027344 91.125 288.492188 C 86.347656 289.199219 82.585938 287.269531 79.742188 283.546875 C 76.386719 279.144531 73.496094 274.460938 71.519531 269.265625 Z M 71.519531 269.265625 " fill-opacity="1" fill-rule="nonzero"/><path fill="#221b19" d="M 136.339844 410.617188 C 136.339844 408.898438 136.339844 407.1875 136.339844 405.46875 C 136.121094 398.226562 135.804688 390.976562 136.5 383.738281 C 138.496094 384.761719 140.679688 384.75 142.835938 384.859375 C 143.917969 385.664062 144.085938 386.859375 143.988281 388.035156 C 143.335938 396.347656 143.164062 404.691406 142.589844 413.003906 C 142.109375 419.125 141.90625 425.277344 141.238281 431.386719 C 141.101562 432.402344 140.640625 433.222656 139.769531 433.789062 C 139.507812 435.105469 138.566406 435.191406 137.566406 434.855469 C 136.621094 434.535156 136.511719 433.703125 136.519531 432.765625 C 136.539062 430.3125 136.449219 427.863281 136.402344 425.410156 C 136.378906 420.484375 136.359375 415.550781 136.339844 410.617188 Z M 136.339844 410.617188 " fill-opacity="1" fill-rule="nonzero"/><path fill="#bb7d60" d="M 136.492188 383.738281 C 136.441406 390.980469 136.382812 398.226562 136.332031 405.46875 C 135.554688 398.179688 135.972656 390.867188 135.808594 383.566406 C 136.042969 383.628906 136.269531 383.6875 136.492188 383.738281 Z M 136.492188 383.738281 " fill-opacity="1" fill-rule="nonzero"/><path fill="#a56547" d="M 191.816406 287.964844 C 193.089844 287.957031 194.332031 287.914062 195.5625 287.425781 C 196.121094 287.207031 196.976562 286.402344 197.472656 287.359375 C 197.929688 288.242188 197.300781 289.046875 196.546875 289.484375 C 195.734375 289.953125 194.800781 290.214844 193.921875 290.558594 C 193.042969 290.890625 192.328125 291.277344 193.0625 292.363281 C 196.777344 294.429688 201.097656 294.4375 204.996094 295.882812 C 206.28125 296.359375 207.738281 296.585938 208.445312 297.992188 C 208.664062 298.425781 208.625 298.824219 208.066406 298.996094 C 208.683594 299.140625 209.011719 298.628906 209.4375 298.359375 C 209.777344 298.140625 210.273438 298.121094 210.390625 297.679688 C 208.851562 296.300781 206.039062 297.007812 205.265625 294.429688 C 205.792969 289.488281 209.140625 286.820312 213.125 284.65625 C 215.695312 284.882812 217.667969 286.402344 219.71875 287.726562 C 222.675781 289.628906 225.644531 291.515625 228.535156 293.515625 C 229.371094 294.09375 230.003906 294.128906 230.871094 293.746094 C 233.230469 292.726562 234.804688 293.542969 234.78125 296.097656 C 234.75 298.738281 237.105469 297.722656 238.117188 298.695312 C 235.765625 300.964844 232.84375 299.789062 230.15625 300.011719 C 228.265625 299.519531 226.5 300.503906 224.652344 300.535156 C 221.40625 301.054688 218.148438 301.519531 214.871094 301.769531 C 208.761719 301.582031 202.765625 300.289062 197.183594 299.710938 C 196.269531 299.742188 196.863281 300.4375 196.6875 300.046875 C 196.65625 299.976562 196.726562 299.917969 196.894531 299.921875 C 201.453125 299.957031 205.894531 300.980469 210.382812 301.5625 C 211.222656 301.671875 211.511719 302.453125 211.3125 303.308594 C 211.054688 303.796875 210.6875 304.238281 210.183594 304.402344 C 205.285156 305.917969 201.214844 309.199219 196.335938 310.789062 C 192.691406 311.980469 189.007812 312.867188 185.355469 311.542969 C 177.84375 308.800781 170.089844 308.867188 162.292969 308.980469 C 160.503906 309.007812 158.640625 309.230469 157 308.152344 C 156.691406 307.847656 156.351562 307.5 156.332031 307.082031 C 156.058594 301.980469 156.902344 297.191406 160.328125 293.144531 C 162.957031 293.414062 165.617188 293.503906 168.191406 294 C 170.546875 294.449219 171.617188 293.984375 171.261719 291.394531 C 171.109375 290.253906 171.273438 289.078125 171.292969 287.914062 C 172.957031 288.152344 172.742188 289.554688 172.773438 290.597656 C 172.847656 292.667969 173.902344 292.746094 175.503906 292.328125 C 178.808594 291.464844 181.765625 289.863281 184.6875 288.15625 C 187.035156 287.339844 189.433594 287.953125 191.816406 287.964844 Z M 191.816406 287.964844 " fill-opacity="1" fill-rule="nonzero"/><path fill="#fdfaf8" d="M 160.308594 293.148438 C 158.9375 297.960938 156.859375 302.601562 156.808594 307.726562 C 156.296875 308.523438 155.480469 308.882812 154.632812 308.902344 C 149.886719 309.019531 145.0625 309.617188 140.671875 307.042969 C 137.652344 307.027344 136.5 305.203125 135.648438 302.523438 C 134.175781 297.898438 131.375 293.984375 127.949219 290.539062 C 127.871094 288.574219 129.476562 288.195312 130.78125 287.597656 C 132.828125 286.660156 135.039062 286.355469 137.257812 286.15625 C 139.898438 286.203125 142.617188 285.917969 144.8125 287.886719 C 148.9375 289.160156 153.066406 290.414062 157.179688 291.726562 C 158.273438 292.074219 159.492188 292.191406 160.308594 293.148438 Z M 160.308594 293.148438 " fill-opacity="1" fill-rule="nonzero"/><path fill="#e8d6ac" d="M 144.8125 287.886719 C 142.21875 287.65625 139.621094 287.425781 137.035156 287.199219 C 136.261719 286.679688 135.140625 286.492188 135.109375 285.242188 C 134.785156 284.316406 133.800781 284.148438 133.175781 283.578125 C 133.300781 278.476562 133.523438 273.375 134.019531 268.292969 C 134.21875 266.277344 134.4375 264.273438 133.929688 262.277344 C 133.980469 260.515625 133.441406 258.6875 134.457031 257.015625 C 135.1875 257.882812 134.664062 258.972656 134.921875 259.921875 C 135.023438 260.339844 135.25 259.921875 135.238281 259.902344 C 134.289062 257.570312 135.339844 255.054688 134.605469 252.6875 C 134.582031 251.105469 134.167969 249.488281 135.0625 247.996094 C 136.042969 248.910156 134.992188 250.285156 135.792969 251.246094 C 136.847656 257.820312 139.105469 264.09375 140.683594 270.53125 C 141.871094 275.363281 143.492188 280.097656 145 284.84375 C 145.347656 285.953125 145.421875 286.910156 144.8125 287.886719 Z M 144.8125 287.886719 " fill-opacity="1" fill-rule="nonzero"/><path fill="#a84825" d="M 184.710938 288.484375 C 181.648438 292.210938 177.242188 292.984375 172.878906 293.785156 C 171.640625 294.019531 171.9375 292.949219 171.847656 292.28125 C 171.65625 290.828125 172.226562 289.277344 171.289062 287.917969 C 170.714844 280.25 171.289062 272.617188 171.917969 264.980469 C 173.226562 264.695312 173.214844 265.789062 173.355469 266.496094 C 174.765625 273.714844 178.789062 279.550781 183.148438 285.21875 C 183.886719 286.195312 185.078125 286.96875 184.710938 288.484375 Z M 184.710938 288.484375 " fill-opacity="1" fill-rule="nonzero"/><path fill="#e7cfa5" d="M 184.710938 288.484375 C 178.609375 281.648438 173.453125 274.292969 171.914062 264.980469 C 171.371094 257.125 172.976562 249.367188 172.503906 241.511719 C 172.871094 241.503906 173.230469 241.503906 173.597656 241.5 C 173.597656 244.984375 173.910156 248.511719 173.515625 251.953125 C 173.105469 255.585938 173.375 259.210938 173.148438 262.824219 C 173.007812 265.039062 175.105469 265.730469 176.046875 267.207031 C 178.375 270.859375 180.488281 274.746094 183.941406 277.5625 C 184.46875 277.589844 184.171875 279.214844 185.226562 278.230469 C 184.785156 283.261719 187.269531 286.3125 191.816406 287.964844 C 189.472656 288.441406 187.171875 289.578125 184.710938 288.484375 Z M 184.710938 288.484375 " fill-opacity="1" fill-rule="nonzero"/><path fill="#d3ab75" d="M 133.929688 262.277344 C 135.078125 263.699219 134.5625 265.378906 134.464844 266.890625 C 134.144531 271.773438 133.742188 276.644531 133.890625 281.539062 C 133.917969 282.296875 133.796875 283.03125 133.175781 283.578125 C 130.242188 283.011719 127.734375 284.203125 125.25 285.496094 C 124.804688 285.726562 124.292969 286.175781 123.820312 285.675781 C 123.273438 285.089844 123.636719 284.484375 124.054688 283.96875 C 125.554688 282.148438 127.800781 281.796875 129.855469 281.652344 C 132.09375 281.5 132.738281 280.558594 132.855469 278.558594 C 133.15625 273.128906 133.5625 267.707031 133.929688 262.277344 Z M 133.929688 262.277344 " fill-opacity="1" fill-rule="nonzero"/><path fill="#d6b489" d="M 135.109375 285.242188 C 135.957031 285.6875 136.601562 286.34375 137.035156 287.199219 C 133.777344 287.695312 130.523438 288.203125 127.949219 290.542969 C 126.898438 289.683594 125.851562 288.820312 124.800781 287.957031 C 128.027344 286.253906 131.464844 285.359375 135.109375 285.242188 Z M 135.109375 285.242188 " fill-opacity="1" fill-rule="nonzero"/><path fill="#d3ab75" d="M 135.792969 251.25 C 134.765625 250.34375 135.378906 249.070312 135.0625 248.003906 C 135.140625 246.621094 135.089844 245.21875 135.320312 243.859375 C 135.753906 241.332031 136.988281 239.71875 140.613281 240.6875 C 136.632812 243.382812 135.683594 247.109375 135.792969 251.25 Z M 135.792969 251.25 " fill-opacity="1" fill-rule="nonzero"/><path fill="#c69e66" d="M 185.226562 278.226562 C 184.957031 278.65625 184.5 279.480469 184.457031 279.460938 C 183.605469 279.046875 184.261719 278.171875 183.941406 277.5625 C 184.3125 274.820312 185.460938 272.34375 186.664062 269.902344 C 186.875 269.46875 187.113281 268.550781 187.984375 269.289062 C 186.367188 272.054688 185.53125 275.058594 185.226562 278.226562 Z M 185.226562 278.226562 " fill-opacity="1" fill-rule="nonzero"/><path fill="#e6b27d" d="M 161.421875 214.539062 C 158.617188 217.664062 156.949219 217.792969 152.527344 215.476562 C 155.390625 216.023438 158.21875 216.082031 161.421875 214.539062 Z M 161.421875 214.539062 " fill-opacity="1" fill-rule="nonzero"/><path fill="#d3ab75" d="M 134.605469 252.691406 C 135.707031 255.117188 134.929688 257.613281 134.664062 260.097656 C 134.59375 259.066406 134.523438 258.046875 134.457031 257.015625 C 134.511719 255.574219 134.5625 254.132812 134.605469 252.691406 Z M 134.605469 252.691406 " fill-opacity="1" fill-rule="nonzero"/><path fill="#28201e" d="M 140.671875 307.042969 C 146.046875 307.335938 151.398438 308.265625 156.8125 307.726562 C 158.628906 307.773438 160.453125 307.917969 162.265625 307.847656 C 170.417969 307.527344 178.480469 307.765625 186.308594 310.503906 C 190.058594 311.816406 193.539062 310.351562 197.171875 309.207031 C 202 307.675781 205.664062 303.582031 210.949219 303.242188 C 211.949219 301.898438 213.457031 301.382812 214.929688 300.816406 C 218.125 300.386719 221.316406 299.957031 224.511719 299.523438 C 227.769531 300.652344 229.3125 303.675781 231.527344 305.933594 C 232.46875 306.890625 232.21875 308.144531 231.445312 309.1875 C 227.441406 314.578125 225.28125 320.855469 222.84375 327 C 225.347656 320.777344 227.484375 314.378906 231.644531 308.960938 C 233.0625 307.117188 232.894531 305.476562 231.128906 303.925781 C 230.246094 303.152344 229.3125 302.40625 228.675781 301.402344 C 227.828125 300.070312 228.199219 299.222656 229.738281 298.882812 C 232.527344 298.824219 235.320312 298.757812 238.109375 298.703125 C 245.113281 300.683594 247.554688 304.136719 248.277344 313.054688 C 248.515625 316.023438 248.789062 318.996094 249.046875 321.96875 C 249.113281 334.4375 250.453125 346.832031 251.28125 359.253906 C 251.6875 365.289062 251.757812 371.347656 252.761719 377.339844 C 252.800781 385.070312 253.859375 392.710938 254.921875 400.347656 C 257.375 402.980469 256.226562 406.453125 257.070312 409.457031 C 257.445312 420.375 261.699219 425.648438 272.285156 429.15625 C 273.761719 429.792969 275.53125 429.835938 276.585938 431.296875 C 277.25 431.992188 278.191406 431.78125 278.996094 432.003906 C 280.378906 432.390625 280.773438 433.296875 280.695312 434.648438 C 280.605469 436.25 279.515625 436.167969 278.429688 436.167969 C 267.117188 436.160156 255.804688 436.15625 244.488281 436.148438 C 243.613281 436.148438 242.746094 436.171875 242.480469 435.0625 C 241.238281 433.792969 241.523438 432.210938 241.558594 430.671875 C 241.539062 427.8125 240.125 427.03125 237.421875 427.617188 C 235.230469 428.09375 232.953125 427.953125 230.710938 427.816406 C 227.261719 427.605469 225.933594 426.53125 225.210938 423.132812 C 224.441406 419.488281 223.925781 415.78125 223.636719 412.054688 C 223.523438 410.660156 223.320312 409.316406 222.984375 407.972656 C 221.832031 400.160156 221.039062 392.308594 220.261719 384.453125 C 220.066406 382.492188 219.46875 380.417969 220.667969 378.523438 C 220.597656 374.410156 220.246094 370.332031 219.332031 366.3125 C 217.898438 364.910156 218.046875 362.984375 217.761719 361.242188 C 217.015625 356.617188 216.183594 352.011719 214.976562 347.484375 C 213.507812 345.714844 211.621094 346.414062 209.933594 346.800781 C 203.378906 348.292969 196.882812 350.050781 190.222656 351.070312 C 177.28125 353.058594 164.300781 353.257812 151.277344 352.144531 C 149.878906 352.023438 148.5 351.855469 147.496094 350.710938 C 144.394531 337.074219 141.90625 323.289062 137.703125 309.925781 C 136.570312 306.335938 139.03125 307.320312 140.671875 307.042969 Z M 140.671875 307.042969 " fill-opacity="1" fill-rule="nonzero"/><path fill="#321c12" d="M 171.308594 170.601562 C 169.078125 171.992188 166.5625 172.105469 164.070312 172.34375 C 166.304688 171.109375 168.609375 170.09375 171.308594 170.601562 Z M 171.308594 170.601562 " fill-opacity="1" fill-rule="nonzero"/><path fill="#3c1e0f" d="M 169.898438 174.628906 C 169.910156 175.3125 169.742188 175.929688 168.964844 175.984375 C 168.378906 176.03125 168.023438 175.640625 168.050781 175.007812 C 168.074219 174.429688 168.398438 174.019531 168.910156 173.832031 C 169.621094 173.5625 169.769531 174.109375 169.898438 174.628906 Z M 169.898438 174.628906 " fill-opacity="1" fill-rule="nonzero"/><path fill="#7b4932" d="M 205.253906 294.4375 C 207.441406 295.914062 210.472656 295.621094 212.539062 297.960938 C 210.75 299.105469 208.898438 299.5625 206.664062 299.414062 C 207.203125 298.757812 208.953125 298.089844 206.785156 297.523438 C 203.597656 296.6875 200.417969 295.824219 197.242188 294.929688 C 195.621094 294.476562 193.847656 294.210938 193.058594 292.371094 C 197.203125 292.578125 201.214844 293.59375 205.253906 294.4375 Z M 205.253906 294.4375 " fill-opacity="1" fill-rule="nonzero"/><path fill="#fdfbf9" d="M 379.542969 407.328125 C 375.910156 407.832031 372.273438 408.339844 368.640625 408.839844 C 363.929688 409.308594 363.363281 409 362.789062 404.542969 C 361.605469 395.324219 362.136719 386.066406 362.410156 376.824219 C 362.292969 369.835938 362.085938 362.832031 363.253906 356.957031 C 360.820312 363.371094 356.335938 369.554688 350.75 375.007812 C 349.082031 376.21875 348.082031 378.484375 345.53125 378.308594 C 340.195312 374.566406 335.058594 370.582031 330.699219 365.667969 C 329.945312 363.460938 330.035156 361.65625 332.863281 361.164062 C 333.96875 359.441406 335.082031 357.71875 336.191406 355.988281 C 339.765625 351.601562 342.859375 346.902344 345.367188 341.820312 C 348.746094 336.507812 352.132812 331.1875 355.511719 325.875 C 357.375 322.652344 359.253906 319.441406 361.09375 316.207031 C 366.992188 305.847656 370.902344 303.9375 382.699219 305.699219 C 394.667969 307.945312 406.636719 310.191406 418.605469 312.429688 C 430.15625 315.105469 441.804688 317.285156 453.472656 319.375 C 454.734375 319.601562 455.984375 319.898438 457.238281 320.160156 C 455.699219 329.066406 452.359375 337.484375 450.21875 346.226562 C 449.816406 347.902344 448.625 347.71875 447.484375 347.539062 C 445.183594 347.179688 442.898438 346.703125 440.605469 346.273438 C 437.246094 347.027344 434.285156 345.507812 431.355469 344.386719 C 419.148438 339.71875 407.320312 334.179688 395.753906 328.085938 C 391.558594 325.558594 386.980469 323.757812 382.792969 321.164062 C 379.304688 319.003906 374.953125 320.386719 372.867188 323.96875 C 371.242188 326.753906 370.664062 329.941406 369.484375 332.890625 C 370.785156 329.644531 371.351562 326.09375 373.417969 323.152344 C 375.808594 319.75 380.984375 319.351562 383.488281 322.355469 C 383.703125 323.203125 383.644531 324.058594 383.503906 324.902344 C 381.765625 335.601562 383.328125 346.164062 384.835938 356.71875 C 385.207031 359.359375 385.976562 361.945312 387.101562 364.382812 C 388.265625 366.902344 388.484375 369.476562 387.898438 372.160156 C 387.855469 373.382812 387.804688 374.609375 387.757812 375.832031 C 386.089844 382.175781 385.898438 388.761719 384.621094 395.175781 C 383.90625 398.796875 383.378906 402.457031 382.773438 406.101562 C 381.707031 406.511719 380.625 406.917969 379.542969 407.328125 Z M 379.542969 407.328125 " fill-opacity="1" fill-rule="nonzero"/><path fill="#bc7f62" d="M 313.25 410.082031 C 313.472656 410.082031 313.699219 410.074219 313.933594 410.074219 C 314.878906 412.488281 312.945312 413.402344 311.472656 414.160156 C 308.085938 415.910156 304.5625 417.414062 300.726562 417.949219 C 299.980469 417.980469 299.257812 417.800781 298.433594 417.640625 C 302.046875 419.453125 305.863281 420.34375 309.6875 421.113281 C 311.316406 421.441406 313.082031 421.648438 314.5625 420.445312 C 316.273438 419.378906 317.792969 418.078125 319.152344 416.59375 C 320.453125 415.453125 321.695312 414.269531 322.535156 412.71875 C 323.609375 411.445312 324.464844 409.90625 326.3125 409.546875 C 328.078125 409.746094 328.039062 410.78125 327.480469 412.0625 C 326.660156 413.914062 325.84375 415.769531 325.28125 417.71875 C 325.980469 415.574219 326.808594 413.496094 327.808594 411.472656 C 328.414062 410.242188 329.199219 409.34375 330.601562 409.105469 C 334.722656 408.472656 338.90625 409.125 343.027344 408.453125 C 345.359375 410.890625 346.253906 416.785156 344.726562 419.632812 C 340.550781 421.898438 335.765625 423.300781 331.367188 423.605469 C 327.59375 423.859375 324.109375 424.535156 320.484375 425.296875 C 317.976562 425.824219 315.121094 425.816406 313.109375 423.40625 C 312.625 422.824219 311.980469 422.871094 311.492188 423.519531 C 309.539062 426.125 306.726562 425.644531 304.203125 425.21875 C 295.523438 423.757812 287.257812 425.320312 279.117188 428.160156 C 277.65625 428.667969 277.199219 430.074219 276.574219 431.304688 C 274.988281 431.175781 273.457031 430.878906 272.105469 429.972656 C 271.429688 426.59375 269.34375 424.851562 265.929688 424.480469 C 265.195312 424.402344 264.226562 424.046875 264.40625 422.863281 C 266.007812 423.0625 266.839844 422.535156 267.1875 420.765625 C 267.894531 417.171875 267.964844 413.433594 269.503906 410.015625 C 269.503906 410.015625 269.589844 409.960938 269.589844 409.960938 C 270.558594 410.640625 271.660156 410.300781 272.699219 410.308594 C 282.425781 410.339844 292.148438 410.21875 301.878906 410.378906 C 305.683594 410.429688 309.484375 411.148438 313.25 410.082031 Z M 313.25 410.082031 " fill-opacity="1" fill-rule="nonzero"/><path fill="#97664d" d="M 317.8125 327.828125 C 317.652344 329.304688 318.921875 329.167969 319.738281 329.535156 C 318.585938 329.726562 317.71875 330.023438 316.996094 331.253906 C 313.621094 336.996094 304.113281 336.90625 300.917969 331.125 C 300.21875 329.855469 299.359375 329.578125 298.117188 329.578125 C 293.964844 329.597656 289.8125 329.59375 285.664062 329.597656 C 289.644531 328.609375 293.699219 329.136719 297.71875 329.027344 C 299.226562 328.980469 299.792969 329.011719 299.507812 326.9375 C 298.839844 322.046875 298.402344 317.09375 298.5625 312.125 C 298.574219 311.671875 298.691406 311.308594 299.246094 311.308594 C 303.300781 312.289062 307.421875 311.726562 311.503906 311.722656 C 313.816406 311.714844 316.128906 311.59375 318.4375 311.675781 C 319.785156 313.007812 317.917969 315.234375 319.765625 316.425781 C 320.171875 317.117188 319.945312 317.898438 320.054688 318.628906 C 320.320312 321.003906 319.480469 323.371094 320.011719 325.746094 C 319.972656 327.179688 318.324219 326.898438 317.8125 327.828125 Z M 317.8125 327.828125 " fill-opacity="1" fill-rule="nonzero"/><path fill="#c18365" d="M 256.105469 410.003906 C 258.222656 410.890625 260.425781 410.5 262.589844 410.378906 C 263.621094 410.320312 264.644531 409.925781 265.617188 410.582031 C 265.726562 414.726562 264.167969 418.703125 264.410156 422.851562 C 265.191406 423.746094 266.363281 423.640625 267.347656 423.878906 C 271.808594 424.953125 272.660156 424.152344 272.113281 429.960938 C 265.988281 429.015625 261.648438 425.191406 258.292969 420.476562 C 256.207031 417.550781 256.632812 413.554688 256.105469 410.003906 Z M 256.105469 410.003906 " fill-opacity="1" fill-rule="nonzero"/><path fill="#352620" d="M 318.445312 311.691406 C 312.648438 313.582031 306.726562 313.046875 300.816406 312.570312 C 300.113281 312.511719 299.285156 312.34375 299.246094 311.324219 C 305.671875 310.164062 312.082031 309.4375 318.445312 311.691406 Z M 318.445312 311.691406 " fill-opacity="1" fill-rule="nonzero"/><path fill="#362d28" d="M 319.101562 318.257812 C 319 317.53125 319.378906 316.984375 319.765625 316.429688 C 320.390625 316.316406 321.015625 316.191406 321.640625 316.078125 C 323.402344 316.230469 325.46875 315.910156 325.914062 318.386719 C 326.4375 321.273438 325.996094 323.949219 323.449219 325.777344 C 321.792969 326.96875 319.816406 327.496094 317.808594 327.824219 C 317.71875 326.460938 319.058594 326.523438 319.714844 325.914062 C 320.003906 324.863281 320.949219 324.492188 321.734375 323.957031 C 323.195312 322.964844 324.09375 321.652344 323.570312 319.886719 C 323.074219 318.207031 321.511719 318.746094 320.285156 318.664062 C 319.863281 318.636719 319.460938 318.507812 319.101562 318.257812 Z M 319.101562 318.257812 " fill-opacity="1" fill-rule="nonzero"/><path fill="#dfcb9a" d="M 396.179688 327.191406 C 407.382812 332.859375 418.664062 338.359375 430.394531 342.871094 C 433.742188 344.15625 437.207031 345.148438 440.621094 346.273438 C 442.628906 348.09375 445.292969 347.675781 447.65625 348.265625 C 448.777344 348.550781 449.925781 348.589844 450.761719 349.507812 C 447.070312 350.707031 443.207031 350.6875 439.429688 350.769531 C 429.738281 350.976562 420.042969 350.820312 410.34375 350.816406 C 405.535156 350.210938 400.726562 349.605469 395.917969 348.996094 C 394.761719 348.847656 393.617188 348.667969 392.472656 348.5 C 392.402344 348.414062 392.265625 348.332031 392.273438 348.261719 C 393.039062 341.988281 391.652344 335.582031 393.464844 329.378906 C 393.609375 328.871094 393.894531 328.414062 394.242188 327.996094 C 394.730469 327.339844 395.5625 327.527344 396.179688 327.191406 Z M 396.179688 327.191406 " fill-opacity="1" fill-rule="nonzero"/><path fill="#f7edd6" d="M 387.917969 372.164062 C 388.007812 369.996094 387.476562 368.03125 386.515625 366.042969 C 383.417969 359.609375 382.542969 352.589844 382.183594 345.617188 C 381.769531 337.710938 380.519531 329.722656 382.769531 321.859375 C 385.511719 321.417969 387.347656 323.03125 389.167969 324.683594 C 389.496094 325.496094 389.601562 326.335938 389.496094 327.191406 C 388.511719 335.261719 389.734375 343.113281 391.78125 350.890625 C 390.695312 358.019531 389.542969 365.140625 387.917969 372.164062 Z M 387.917969 372.164062 " fill-opacity="1" fill-rule="nonzero"/><path fill="#eddfb9" d="M 391.78125 350.890625 C 388.90625 348.28125 388.976562 344.605469 388.574219 341.230469 C 387.914062 335.660156 387.53125 330.042969 388.5625 324.445312 C 391.195312 324.574219 393.269531 325.765625 394.925781 327.773438 C 393.714844 331.472656 393.371094 335.285156 393.695312 339.132812 C 393.964844 342.367188 393.390625 345.4375 392.476562 348.492188 C 392.308594 349.316406 392.472656 350.230469 391.78125 350.890625 Z M 391.78125 350.890625 " fill-opacity="1" fill-rule="nonzero"/><path fill="#bb7d60" d="M 242.460938 430.5625 C 242.460938 432.0625 242.46875 433.5625 242.46875 435.054688 C 239.816406 435.902344 237.453125 436.011719 235.011719 433.980469 C 232.277344 431.695312 228.871094 432.421875 225.824219 433.496094 C 219.152344 435.847656 212.167969 436.089844 205.289062 436.226562 C 189.125 436.554688 172.941406 436.546875 156.773438 436.210938 C 151.089844 436.097656 145.429688 434.636719 139.757812 433.789062 C 139.507812 433.023438 139.875 432.421875 140.277344 431.832031 C 141.894531 430.320312 143.992188 430.292969 145.996094 430.070312 C 162.578125 428.164062 179.253906 427.328125 195.871094 425.882812 C 206.785156 424.929688 217.195312 426.59375 227.671875 428.820312 C 231.664062 429.671875 235.597656 430.65625 239.726562 429.972656 C 240.679688 429.816406 241.664062 429.84375 242.460938 430.5625 Z M 242.460938 430.5625 " fill-opacity="1" fill-rule="nonzero"/><path fill="#241c1a" d="M 360.652344 376.894531 C 358.699219 385.101562 357.910156 393.515625 356.335938 401.796875 C 355.785156 404.722656 355.171875 407.636719 354.585938 410.558594 C 354.097656 413.695312 353.601562 416.835938 353.128906 419.976562 C 352.949219 421.203125 352.699219 422.511719 351.101562 422.238281 C 349.578125 421.976562 350.445312 420.722656 350.496094 419.878906 C 350.683594 416.574219 350.910156 413.273438 351.121094 409.972656 C 352.289062 399.214844 353.460938 388.46875 354.625 377.710938 C 356.851562 375.433594 358.191406 375.253906 360.652344 376.894531 Z M 360.652344 376.894531 " fill-opacity="1" fill-rule="nonzero"/><path fill="#281d1c" d="M 344.050781 381.777344 C 345.003906 391.175781 345.957031 400.582031 346.917969 409.980469 C 347.980469 411.582031 347.8125 413.316406 347.472656 415.074219 C 347.601562 416.425781 347.84375 417.769531 347.839844 419.121094 C 347.832031 420.40625 348.945312 422.421875 346.589844 422.621094 C 344.625 422.785156 345.113281 420.800781 344.746094 419.628906 C 344.574219 415.890625 343.921875 412.230469 342.9375 408.628906 C 341.269531 407.378906 341.339844 405.476562 341.238281 403.726562 C 341.121094 401.875 340.761719 400.179688 339.519531 398.746094 C 340.355469 396.265625 340.40625 393.769531 339.988281 391.175781 C 339.480469 388.023438 339.996094 384.96875 341.785156 382.246094 C 342.292969 381.453125 342.914062 380.058594 344.050781 381.777344 Z M 344.050781 381.777344 " fill-opacity="1" fill-rule="nonzero"/><path fill="#bc7f62" d="M 355.070312 410.570312 C 357.566406 410.550781 360.070312 410.480469 362.570312 410.53125 C 363.863281 410.558594 365.023438 410.34375 366.019531 409.503906 C 365.90625 414.660156 365.558594 419.789062 364.082031 424.773438 C 364.398438 421.4375 363.335938 418.285156 362.71875 415.082031 C 362.210938 412.449219 359.789062 412.757812 357.855469 412.589844 C 356.441406 412.46875 354.953125 412.6875 355.070312 410.570312 Z M 355.070312 410.570312 " fill-opacity="1" fill-rule="nonzero"/><path fill="#d09565" d="M 293.28125 440.175781 C 293.71875 438.328125 293.109375 437.472656 291.09375 437.484375 C 289.464844 437.5 287.757812 437.929688 286.207031 437.023438 C 288.023438 437.003906 289.84375 436.972656 291.660156 436.972656 C 294.269531 436.976562 294.621094 438.15625 293.28125 440.175781 Z M 293.28125 440.175781 " fill-opacity="1" fill-rule="nonzero"/><path fill="#d09565" d="M 347.464844 415.074219 C 347.277344 413.375 347.097656 411.675781 346.910156 409.980469 C 348.121094 410.015625 349.332031 410.0625 350.535156 410.101562 C 347.253906 410.363281 348.488281 413.421875 347.464844 415.074219 Z M 347.464844 415.074219 " fill-opacity="1" fill-rule="nonzero"/><path fill="#ce6c30" d="M 147.496094 350.710938 C 167.738281 352.71875 187.757812 351.746094 207.414062 346.097656 C 209.140625 345.605469 210.957031 345.390625 212.746094 345.1875 C 214.226562 345.019531 215.496094 345.488281 216.050781 347.070312 C 215.304688 349.019531 213.46875 349.484375 211.792969 350.144531 C 203.957031 353.246094 195.652344 354.070312 187.390625 355.117188 C 186.335938 355.253906 185.253906 355.261719 184.25 355.671875 C 183.554688 355.953125 182.917969 356.261719 182.679688 357.113281 C 181.945312 359.761719 184.070312 365.199219 186.457031 366.828125 C 187.359375 367.445312 188.71875 367.90625 187.867188 369.484375 C 178.5 369.992188 169.195312 371.453125 159.792969 371.464844 C 154.632812 371.472656 151.835938 369.40625 150.601562 364.433594 C 149.480469 359.878906 148.527344 355.285156 147.496094 350.710938 Z M 147.496094 350.710938 " fill-opacity="1" fill-rule="nonzero"/><path fill="#e47b2e" d="M 187.878906 369.476562 C 187.765625 368.285156 186.835938 367.886719 185.902344 367.667969 C 182.78125 366.949219 181.929688 364.8125 182.085938 361.925781 C 182.128906 361.089844 182.019531 360.214844 181.820312 359.402344 C 180.886719 355.574219 181.589844 354.496094 185.5 354.121094 C 191.414062 353.546875 197.3125 352.878906 203.128906 351.582031 C 207.621094 350.578125 211.960938 349.1875 216.050781 347.070312 C 217.757812 353.382812 219 359.769531 219.328125 366.3125 C 215.179688 367.773438 210.78125 367.476562 206.507812 368.011719 C 200.332031 368.78125 194.09375 369.019531 187.878906 369.476562 Z M 187.878906 369.476562 " fill-opacity="1" fill-rule="nonzero"/><path fill="#221a18" d="M 155.660156 383.777344 C 154.804688 392.929688 153.953125 402.085938 153.097656 411.238281 C 152.621094 411.964844 153.125 413.015625 152.414062 413.621094 C 151.4375 414.460938 150.425781 414.9375 149.886719 413.15625 C 149.828125 404.066406 149.761719 394.976562 149.707031 385.882812 C 149.71875 384.570312 150.367188 384.1875 151.664062 384.222656 C 152.996094 384.261719 154.328125 383.945312 155.660156 383.777344 Z M 155.660156 383.777344 " fill-opacity="1" fill-rule="nonzero"/><path fill="#b0735c" d="M 149.890625 413.164062 C 152.273438 414.714844 152.289062 412.308594 153.105469 411.238281 C 153.277344 412.082031 153.34375 412.730469 154.65625 412.636719 C 170.796875 411.414062 186.984375 412.339844 203.148438 411.496094 C 209.023438 411.1875 214.929688 411.175781 220.820312 411.296875 C 223.371094 411.347656 224.355469 410.527344 224.027344 408.054688 C 224.839844 413.195312 225.757812 418.324219 226.417969 423.480469 C 226.746094 426.082031 228 426.988281 230.464844 426.792969 C 233.023438 426.59375 235.605469 426.648438 238.148438 426.351562 C 242.710938 425.816406 242.707031 425.738281 242.46875 430.558594 C 238.40625 431.785156 234.367188 431.5625 230.246094 430.679688 C 220.789062 428.660156 211.394531 426.007812 201.574219 426.703125 C 190.660156 427.476562 179.769531 428.597656 168.839844 429.125 C 159.273438 429.59375 149.839844 431.265625 140.292969 431.824219 C 140.363281 425.597656 140.8125 419.398438 141.574219 413.222656 C 144.339844 413.207031 147.117188 413.183594 149.890625 413.164062 Z M 149.890625 413.164062 " fill-opacity="1" fill-rule="nonzero"/><path fill="#704533" d="M 229.726562 298.875 C 229.113281 299.460938 228.304688 300.011719 229.253906 300.933594 C 229.636719 301.300781 230.09375 301.597656 230.492188 301.945312 C 234.800781 305.699219 234.722656 305.648438 231.554688 310.304688 C 227.921875 315.644531 225.476562 321.582031 223.324219 327.644531 C 223.082031 328.339844 223.050781 329.105469 222.25 329.757812 C 221.582031 328.558594 222.171875 327.535156 222.5 326.523438 C 224.476562 320.515625 226.796875 314.65625 230.375 309.386719 C 231.4375 307.824219 231.617188 306.84375 229.859375 305.4375 C 227.808594 303.796875 226.261719 301.519531 224.492188 299.519531 C 226.25 299.359375 227.917969 298.539062 229.726562 298.875 Z M 229.726562 298.875 " fill-opacity="1" fill-rule="nonzero"/><path fill="#5e3628" d="M 214.921875 300.824219 C 213.828125 302.015625 212.65625 303.070312 210.945312 303.25 C 210.835938 302 209.875 302.136719 209.039062 302.078125 C 204.480469 301.757812 200.191406 299.859375 195.613281 299.429688 C 202.050781 299.890625 208.492188 300.355469 214.921875 300.824219 Z M 214.921875 300.824219 " fill-opacity="1" fill-rule="nonzero"/><path fill="#895946" d="M 240.296875 388.601562 C 239.738281 398.105469 236.957031 407.066406 233.621094 416.375 C 232.40625 412.804688 237.433594 391.890625 240.296875 388.601562 Z M 240.296875 388.601562 " fill-opacity="1" fill-rule="nonzero"/><path fill="#b4795b" d="M 344.050781 381.777344 C 341.300781 382.871094 341.359375 385.566406 340.910156 387.773438 C 340.589844 389.359375 340.929688 391.175781 341.316406 392.808594 C 341.902344 395.285156 341.984375 397.484375 339.648438 399.125 C 339.582031 399.261719 339.519531 399.390625 339.453125 399.523438 C 334.871094 402.921875 330.324219 406.363281 326.105469 410.230469 C 324.792969 410.957031 324.375 412.640625 322.914062 413.207031 C 322.058594 414.71875 320.441406 415.621094 319.6875 417.214844 C 318.523438 418.816406 317.117188 420.136719 315.257812 420.902344 C 314.035156 421.976562 312.535156 422.066406 311.074219 421.839844 C 307.839844 421.339844 304.71875 420.414062 301.757812 418.976562 C 300.976562 418.597656 300.261719 418.160156 300.242188 417.152344 C 304.074219 416.484375 307.550781 414.804688 311.074219 413.292969 C 312.457031 412.699219 313.636719 411.722656 313.933594 410.070312 C 318.328125 405.476562 321.84375 400.40625 323.867188 394.25 C 326.460938 386.355469 329.351562 378.566406 331.398438 370.5 C 331.84375 368.75 331.851562 367.171875 331.316406 365.527344 C 336.066406 369.625 340.820312 373.722656 345.566406 377.8125 C 344.863281 379.070312 344.078125 380.277344 344.050781 381.777344 Z M 344.050781 381.777344 " fill-opacity="1" fill-rule="nonzero"/><path fill="#f8952c" d="M 360.652344 376.894531 C 358.527344 376.328125 356.589844 377.066406 354.632812 377.710938 C 353.144531 376.609375 351.117188 376.339844 349.988281 374.6875 C 352.691406 371.523438 355.390625 368.359375 357.761719 364.921875 C 360.117188 361.5 362.15625 357.921875 363.929688 354.070312 C 363.734375 361.378906 363.308594 368.640625 363.363281 375.910156 C 362.667969 376.816406 361.535156 376.519531 360.652344 376.894531 Z M 360.652344 376.894531 " fill-opacity="1" fill-rule="nonzero"/><path fill="#cfa583" d="M 394.917969 327.773438 C 392.894531 326.480469 390.855469 325.210938 388.554688 324.453125 C 386.78125 323.25 384.988281 322.074219 382.769531 321.859375 C 376.96875 320.355469 374.0625 321.746094 371.957031 327.1875 C 370.882812 329.960938 369.980469 332.800781 368.757812 335.523438 C 369.734375 330.570312 370.78125 325.570312 373.933594 321.480469 C 375.949219 318.867188 379.007812 318.753906 381.847656 320.070312 C 386.683594 322.316406 391.410156 324.804688 396.179688 327.199219 C 395.761719 327.386719 395.335938 327.578125 394.917969 327.773438 Z M 394.917969 327.773438 " fill-opacity="1" fill-rule="nonzero"/><path fill="#c18365" d="M 313.25 410.082031 C 310.195312 411.046875 307.25 412.945312 303.90625 410.769531 C 303.292969 410.371094 302.238281 410.648438 301.382812 410.640625 C 291.890625 410.636719 282.394531 410.648438 272.902344 410.621094 C 271.777344 410.617188 270.527344 410.996094 269.589844 409.953125 C 284.144531 409.992188 298.699219 410.035156 313.25 410.082031 Z M 313.25 410.082031 " fill-opacity="1" fill-rule="nonzero"/><path fill="#442b20" d="M 339.6875 399.082031 C 336.144531 402.464844 332.140625 405.4375 329.886719 409.980469 C 326.964844 412.90625 326.292969 416.976562 324.542969 420.542969 C 324.511719 417.523438 325.835938 414.886719 326.628906 412.113281 C 326.777344 411.585938 328.367188 410.234375 326.101562 410.230469 C 326.9375 407.347656 329.507812 406.007812 331.613281 404.375 C 334.148438 402.414062 336.378906 399.898438 339.6875 399.082031 Z M 339.6875 399.082031 " fill-opacity="1" fill-rule="nonzero"/><path fill="#442b20" d="M 300.242188 417.152344 C 304.929688 419.652344 309.515625 422.582031 315.25 420.902344 C 313.828125 423.132812 311.621094 422.394531 309.757812 422.085938 C 305.601562 421.390625 301.574219 420.117188 297.628906 418.636719 C 296.816406 418.335938 295.332031 418.230469 295.644531 417.125 C 295.992188 415.902344 297.453125 416.355469 298.472656 416.484375 C 299.078125 416.558594 299.652344 416.921875 300.242188 417.152344 Z M 300.242188 417.152344 " fill-opacity="1" fill-rule="nonzero"/><path fill="#442b20" d="M 319.679688 417.214844 C 320.015625 415.285156 321.644531 414.398438 322.90625 413.207031 C 322.445312 415.042969 320.851562 415.953125 319.679688 417.214844 Z M 319.679688 417.214844 " fill-opacity="1" fill-rule="nonzero"/><path fill="#f9e4b0" d="M 319.101562 318.257812 C 321.070312 317.808594 323.324219 316.351562 324.75 318.894531 C 325.933594 321.023438 324.234375 324.097656 321.535156 325.332031 C 320.960938 325.597656 320.332031 325.726562 319.726562 325.914062 C 317.941406 325.757812 318.5625 324.457031 318.734375 323.570312 C 319.078125 321.800781 319.160156 320.039062 319.101562 318.257812 Z M 319.101562 318.257812 " fill-opacity="1" fill-rule="nonzero"/></svg>